<?xml version="1.0" encoding="utf-8"?>
<!-- Generator: Adobe Illustrator 26.3.1, SVG Export Plug-In . SVG Version: 6.00 Build 0)  -->
<svg version="1.1" id="Layer_1" xmlns="http://www.w3.org/2000/svg" xmlns:xlink="http://www.w3.org/1999/xlink" x="0px" y="0px"
	 viewBox="0 0 60 60" style="enable-background:new 0 0 60 60;" xml:space="preserve">
<style type="text/css">
	.st0{fill:#0066CC;}
	.st1{fill:#FFFFFF;}
	.st2{fill:#3399FF;}
	.st3{fill:#FF0000;}
	.st4{fill:#FF0A0A;}
	.st5{fill:#003399;}
	.st6{fill:url(#SVGID_1_);}
	.st7{fill:url(#SVGID_00000162329340688280892750000016595252088147408798_);}
	.st8{fill:url(#SVGID_00000180339732425949539950000016987761641287688832_);}
	.st9{fill:#009933;}
	.st10{fill:url(#SVGID_00000108989021251672977540000008510153833221412248_);}
	.st11{fill:url(#SVGID_00000146499990415031614660000002726663045942364062_);}
	.st12{fill:url(#SVGID_00000029015842636843646170000001357360869839815614_);}
</style>
<g>
	<g>
		<path d="M58.87,35.55c0.02,0.48-0.35,1.04-0.54,1.58c-0.32,0.92,0.09,1.87-0.28,2.76c-0.09,0.22-0.06,0.5-0.22,0.69
			c-1.27,1.54-1.79,3.46-2.6,5.22c-0.58,1.24-1.36,2.34-2.25,3.31C52.17,50,51.5,51,50.66,51.86c-0.31,0.32-0.5,0.71-1.02,0.77
			c-0.21,0.02-0.42,0.26-0.57,0.45c-0.94,1.24-2.33,1.75-3.69,2.31c-0.62,0.26-1.16,0.6-1.63,1.05c-0.38,0.35-0.72,0.54-1.3,0.38
			c-1.06-0.31-1.79,0.49-2.5,1.04c-0.45,0.35-0.87,0.5-1.4,0.55c-1.77,0.16-3.52,0.45-5.3,0.49c-0.29,0.01-0.56,0.02-0.84-0.09
			c-0.31-0.12-0.64-0.18-0.93,0.07C31.26,59.06,31,59,30.77,58.94c-1.1-0.29-2.24-0.33-3.37-0.41c-0.84-0.06-1.68-0.15-2.5-0.49
			c-0.77-0.32-1.65-0.42-2.49-0.56c-0.34-0.06-0.65-0.15-0.9-0.33c-0.66-0.48-1.54-0.54-2.15-0.94c-1.32-0.85-3.03-0.97-4.07-2.32
			c-0.38-0.48-1.03-0.77-1.6-1.09c-0.69-0.4-1.46-0.68-1.7-1.57c-0.04-0.13-0.22-0.25-0.36-0.32c-1.11-0.55-1.64-1.69-2.51-2.47
			c-0.36-0.33,0.04-0.64-0.22-1.03c-0.65-1.01-1.58-1.83-2.03-2.97c0.05-0.18,0.02-0.31-0.21-0.3c-0.27-0.31-0.53-0.62-0.8-0.92
			c0.02-0.09,0.03-0.17,0.04-0.26c0.19-0.16,0.14-0.29,0.04-0.51c-0.34-0.72-0.86-1.4-0.78-2.28c0.02-0.15,0-0.38-0.1-0.46
			c-0.66-0.57-0.46-1.56-1.1-2.14c-0.11-0.1-0.22-0.33-0.18-0.43c0.62-1.37-0.43-2.72-0.01-4.08c0.08-0.25,0.03-0.6-0.08-0.84
			c-0.49-1.05-0.18-2.15-0.26-3.23C3.41,28.52,3.57,28,3.13,27.63c-0.27-0.23,0.01-0.33,0.08-0.48c0.41-0.83,0.54-1.8,1.22-2.51
			c0.24-0.24,0.06-0.58-0.02-0.81c-0.37-1.11,0.03-1.96,0.89-2.59c0.41-0.3,0.49-0.66,0.67-1.07c0.77-1.72,1.51-3.45,2.87-4.83
			c0.75-0.76,1.38-1.65,1.79-2.65c0.06-0.11,0.11-0.21,0.17-0.32c0.36-0.27,0.66-0.58,0.86-1c0.12-0.25,0.33-0.5,0.56-0.63
			c1.31-0.73,2.29-1.9,3.47-2.75c1.1-0.79,2.06-1.97,3.59-2.09c0.14-0.01,0.27-0.16,0.4-0.26c0.68-0.47,1.38-0.78,2.25-0.94
			c1.43-0.25,2.88-0.51,4.27-1.06c0.82-0.32,1.84-0.36,2.75-0.4c1.13-0.05,2.25-0.11,3.37-0.15c0.2-0.01,0.39-0.09,0.6,0.01
			c1.03,0.5,2.11,0.56,3.22,0.35c0.19-0.04,0.44-0.02,0.6,0.09c0.8,0.51,1.71,0.55,2.59,0.63c1.17,0.11,2.17,0.64,3.2,1.14
			c0.18,0.39,0.58,0.21,0.87,0.33c0.38,0.31,0.71,0.69,1.13,0.91c1.03,0.56,1.99,1.25,2.99,1.81c1.2,0.66,2.04,1.69,2.96,2.56
			c1.13,1.07,2.02,2.41,3.23,3.45c0.79,0.68,1.03,1.72,1.47,2.6c0.65,1.29,1.14,2.67,1.84,3.96c0.34,0.63,0.32,1.42,0.82,1.99
			c0.11,0.13,0.06,0.31-0.02,0.47c-0.24,0.46-0.02,0.84,0.15,1.27c0.46,1.22,0.78,2.49,0.94,3.79c0.01,0.04,0.03,0.1,0.01,0.12
			c-0.82,0.86-0.17,1.84-0.24,2.76c-0.02,0.28-0.04,0.61,0.09,0.85C59.35,33.28,58.82,34.43,58.87,35.55z"/>
	</g>
	<g>
		<g>
			<linearGradient id="SVGID_1_" gradientUnits="userSpaceOnUse" x1="-5.4017" y1="65.7142" x2="64.981" y2="-8.1017">
				<stop  offset="7.458905e-08" style="stop-color:#FDC100"/>
				<stop  offset="0.0823" style="stop-color:#FDBE02"/>
				<stop  offset="0.1421" style="stop-color:#FDB507"/>
				<stop  offset="0.1947" style="stop-color:#FDA50F"/>
				<stop  offset="0.2432" style="stop-color:#FD8F1B"/>
				<stop  offset="0.2888" style="stop-color:#FD722B"/>
				<stop  offset="0.3324" style="stop-color:#FE4E3E"/>
				<stop  offset="0.3735" style="stop-color:#FE2554"/>
				<stop  offset="0.3891" style="stop-color:#FE135E"/>
				<stop  offset="0.8197" style="stop-color:#AF0AE4"/>
			</linearGradient>
			<path class="st6" d="M56.71,30.12c-0.12-0.24-0.11-0.57-0.09-0.85c0.07-0.92-0.58-1.91,0.24-2.76c0.02-0.02,0-0.08-0.01-0.12
				c-0.16-1.31-0.47-2.57-0.94-3.79c-0.17-0.43-0.39-0.81-0.15-1.27c0.08-0.15,0.13-0.33,0.02-0.47c-0.5-0.58-0.48-1.37-0.82-1.99
				c-0.7-1.28-1.19-2.66-1.84-3.96c-0.44-0.88-0.69-1.92-1.47-2.6c-1.21-1.04-2.1-2.38-3.23-3.45c-0.92-0.87-1.76-1.9-2.96-2.56
				c-1-0.56-1.96-1.25-2.99-1.81c-0.42-0.23-0.76-0.61-1.13-0.91c-0.29-0.12-0.69,0.06-0.87-0.33c-1.02-0.5-2.02-1.03-3.2-1.14
				c-0.88-0.08-1.79-0.12-2.59-0.63c-0.15-0.1-0.41-0.12-0.6-0.09c-1.11,0.21-2.18,0.15-3.22-0.35c-0.21-0.1-0.4-0.02-0.6-0.01
				c-1.13,0.04-2.25,0.1-3.37,0.15c-0.91,0.04-1.93,0.08-2.75,0.4c-1.4,0.55-2.85,0.81-4.27,1.06C19,2.8,18.31,3.11,17.63,3.58
				c-0.13,0.09-0.26,0.25-0.4,0.26c-1.53,0.12-2.48,1.3-3.59,2.09c-1.19,0.85-2.16,2.01-3.47,2.75C9.94,8.81,9.73,9.06,9.61,9.31
				c-0.2,0.43-0.5,0.73-0.86,1c-0.06,0.11-0.11,0.21-0.17,0.32c-0.42,1-1.05,1.9-1.79,2.65c-1.37,1.39-2.11,3.11-2.87,4.83
				c-0.18,0.41-0.27,0.77-0.67,1.07c-0.86,0.64-1.26,1.48-0.89,2.59c0.08,0.23,0.26,0.57,0.02,0.81c-0.68,0.71-0.81,1.67-1.22,2.51
				c-0.07,0.15-0.35,0.26-0.08,0.48c0.45,0.36,0.28,0.89,0.31,1.36c0.07,1.07-0.23,2.17,0.26,3.23C1.75,30.41,1.8,30.75,1.72,31
				c-0.42,1.37,0.63,2.72,0.01,4.08c-0.04,0.1,0.07,0.33,0.18,0.43c0.64,0.58,0.44,1.57,1.1,2.14c0.1,0.08,0.11,0.31,0.1,0.46
				c-0.08,0.88,0.43,1.56,0.78,2.28c0.11,0.22,0.15,0.35-0.04,0.51c-0.02,0.09-0.03,0.17-0.04,0.26c0.27,0.31,0.53,0.62,0.8,0.92
				c0.23-0.01,0.26,0.11,0.21,0.3c0.45,1.15,1.38,1.97,2.03,2.97c0.25,0.39-0.15,0.69,0.22,1.03c0.87,0.78,1.4,1.91,2.51,2.47
				c0.14,0.07,0.32,0.19,0.36,0.32c0.24,0.89,1.01,1.18,1.7,1.57c0.57,0.32,1.22,0.61,1.6,1.09c1.05,1.35,2.76,1.47,4.07,2.32
				c0.61,0.4,1.48,0.45,2.15,0.93c0.25,0.18,0.56,0.28,0.9,0.33c0.84,0.14,1.72,0.24,2.49,0.56c0.82,0.34,1.66,0.43,2.5,0.49
				c1.13,0.08,2.26,0.12,3.37,0.41c0.23,0.06,0.49,0.11,0.71-0.07c0.29-0.25,0.62-0.19,0.93-0.07c0.28,0.11,0.54,0.1,0.84,0.09
				c1.78-0.05,3.53-0.33,5.3-0.49c0.53-0.05,0.95-0.2,1.4-0.55c0.71-0.55,1.44-1.36,2.5-1.04c0.58,0.17,0.92-0.02,1.3-0.38
				c0.48-0.46,1.01-0.8,1.63-1.05c1.36-0.55,2.75-1.06,3.69-2.31c0.14-0.19,0.36-0.43,0.57-0.45c0.52-0.06,0.71-0.45,1.02-0.77
				c0.84-0.86,1.5-1.87,2.32-2.75c0.89-0.97,1.67-2.07,2.25-3.31c0.82-1.76,1.33-3.68,2.6-5.22c0.16-0.2,0.13-0.47,0.22-0.69
				c0.37-0.89-0.04-1.84,0.28-2.76c0.18-0.53,0.55-1.1,0.54-1.58C56.77,32.37,57.29,31.23,56.71,30.12z M46.64,28.35
				c-0.12,0.2-0.08,0.38-0.02,0.59c0.48,1.77,0.17,3.56,0.18,5.34c0.01,1.02-0.1,2.02,0.06,3.05c0.13,0.79,0.06,1.69-0.21,2.43
				c-0.5,1.41-0.94,2.85-1.76,4.14c-1.58,2.47-3.89,3.3-6.69,3.23c-0.42-0.15-0.87-0.06-1.32-0.03c-1.46,0.13-2.9,0.17-4.39,0.03
				c-1.31-0.13-2.68,0.2-4.02,0.12c-1.17-0.06-2.34,0.33-3.49-0.12c-0.9,0.47-1.84,0.13-2.76,0.17c-2.11,0.1-4-0.72-5.96-1.3
				c-0.15-0.04-0.31-0.13-0.42-0.25c-0.64-0.68-1.35-1.28-2.15-1.77c-0.62-0.38-0.56-1.15-0.82-1.73c-0.58-1.29-1.25-2.57-1.34-4.04
				c-0.03-0.52-0.18-1.03,0.05-1.57c0.16-0.38,0.08-0.83-0.06-1.21c-0.21-0.6-0.29-1.18-0.04-1.78c0.1-0.25,0.02-0.47-0.08-0.71
				c-0.42-1.05-0.42-2.12-0.24-3.24c0.19-1.22,0.34-2.44,0.14-3.7c-0.14-0.86,0.14-1.78,0.1-2.66c-0.08-1.49,0.54-2.94,0.15-4.45
				c-0.14-0.55,0.29-1.01,0.46-1.5c0.33-0.97,0.42-1.99,1.21-2.86c0.73-0.81,1.62-1.3,2.48-1.87c1.68-1.11,3.64-1.5,5.6-1.71
				c1.1-0.11,2.25-0.25,3.38,0.08c1.2,0.34,2.46,0.03,3.66-0.08c1.23-0.11,2.42,0.13,3.62,0.07c0.56-0.03,1.13,0.21,1.66-0.19
				c0.15-0.11,0.55-0.1,0.71,0.02c1.07,0.8,2.3,0.41,3.44,0.41c1.53,0.01,2.87,0.42,4.14,1.19c0.17,0.1,0.33,0.27,0.52,0.31
				c1.52,0.31,2.44,1.43,3.12,2.63c0.7,1.22,1.31,2.55,1.13,4.04c-0.08,0.66-0.01,1.34,0.08,1.95c0.17,1.17-0.06,2.33,0.17,3.52
				C47.15,25.97,47.28,27.25,46.64,28.35z"/>
			<path class="st1" d="M46.81,34.28c-0.02-1.78,0.29-3.58-0.18-5.34c-0.06-0.21-0.1-0.39,0.02-0.59c0.64-1.1,0.5-2.38,0.3-3.45
				c-0.23-1.19-0.01-2.35-0.17-3.52c-0.09-0.61-0.15-1.29-0.08-1.95c0.17-1.49-0.43-2.82-1.13-4.04c-0.68-1.2-1.6-2.32-3.12-2.63
				c-0.19-0.04-0.35-0.21-0.52-0.31c-1.27-0.77-2.61-1.18-4.14-1.19c-1.14,0-2.37,0.4-3.44-0.41c-0.16-0.12-0.55-0.13-0.71-0.02
				c-0.54,0.4-1.1,0.16-1.66,0.19c-1.2,0.06-2.39-0.17-3.62-0.07c-1.2,0.11-2.46,0.42-3.66,0.08c-1.14-0.32-2.28-0.19-3.38-0.08
				c-1.95,0.21-3.92,0.59-5.6,1.71c-0.85,0.57-1.74,1.06-2.48,1.87c-0.79,0.87-0.87,1.89-1.21,2.86c-0.17,0.49-0.61,0.95-0.46,1.5
				c0.39,1.51-0.23,2.96-0.15,4.45c0.04,0.88-0.24,1.8-0.1,2.66c0.2,1.26,0.05,2.48-0.14,3.7c-0.17,1.11-0.17,2.18,0.24,3.24
				c0.09,0.24,0.18,0.46,0.08,0.71c-0.25,0.6-0.17,1.18,0.04,1.78c0.14,0.39,0.22,0.84,0.06,1.21c-0.23,0.54-0.08,1.05-0.05,1.57
				c0.09,1.46,0.76,2.75,1.34,4.04c0.26,0.58,0.2,1.35,0.82,1.73c0.81,0.49,1.51,1.08,2.15,1.77c0.11,0.12,0.27,0.21,0.42,0.25
				c1.96,0.58,3.85,1.4,5.96,1.3c0.92-0.04,1.87,0.3,2.76-0.17c1.15,0.45,2.33,0.06,3.49,0.12c1.35,0.08,2.72-0.25,4.02-0.12
				c1.48,0.14,2.93,0.1,4.39-0.03c0.45-0.04,0.89-0.13,1.32,0.03c2.8,0.07,5.12-0.76,6.69-3.23c0.82-1.29,1.26-2.73,1.76-4.14
				c0.27-0.75,0.33-1.64,0.21-2.43C46.7,36.3,46.81,35.3,46.81,34.28z M43.83,40.17c-0.57,1.04-1.05,2.19-2.3,2.65
				c-0.24,0.08-0.39,0.27-0.58,0.42c-1.08,0.87-2.34,1.1-3.66,0.77c-0.81-0.21-1.62-0.05-2.42-0.09c-1.07-0.05-2.19-0.27-3.26,0.14
				c-0.24,0.09-0.58-0.01-0.85-0.07c-1.13-0.28-2.24-0.01-3.36,0.09c-0.24,0.02-0.51,0.11-0.73,0.04c-1.53-0.5-3.05-0.24-4.59-0.06
				c-0.94,0.12-1.85-0.15-2.76-0.4c-1.83-0.5-2.76-1.92-3.57-3.44c-0.2-0.38-0.34-0.77-0.76-0.9c-0.71-0.23-0.72-0.78-0.51-1.27
				c0.48-1.1,0.23-2.25,0.3-3.37c0.08-1.32-0.09-2.66,0.04-3.97c0.06-0.57-0.22-1.02-0.19-1.55c0.03-0.6,0.47-1.06,0.52-1.61
				c0.06-0.53-0.59-0.96-0.47-1.59c0.12-0.69,0.02-1.38-0.12-2.07c-0.27-1.29-0.12-2.63-0.01-3.91c0.07-0.8,0.21-1.81,0.76-2.48
				c0.61-0.75,1.39-1.38,2.17-1.94c0.79-0.57,1.62-1.14,2.69-1.03c1.65,0.13,3.31,0.08,4.97,0.21c0.99,0.08,2.02-0.2,3.05-0.12
				c1.65,0.13,3.31,0.06,4.97,0.08c0.5,0.01,0.96-0.03,1.44-0.17c1.09-0.33,2.24-0.03,3.35-0.21c2.04,0.92,4.2,1.69,5.07,4.08
				c0.24,0.65,0.45,1.32,0.92,1.86c0.29,0.34,0.2,0.78,0.14,1.18c-0.16,1.04-0.46,2.08-0.01,3.12c0.03,0.07,0.02,0.16-0.01,0.24
				c-0.43,1.2-0.29,2.51-0.12,3.66c0.22,1.42-0.62,2.81,0.07,4.18c-0.26,1.57,0.19,3.12,0.12,4.7
				C44.08,38.3,44.31,39.29,43.83,40.17z"/>
			
				<linearGradient id="SVGID_00000059282621191335920140000001694768885853333416_" gradientUnits="userSpaceOnUse" x1="-4.7951" y1="65.1791" x2="65.5915" y2="-8.6411">
				<stop  offset="7.458905e-08" style="stop-color:#FDC100"/>
				<stop  offset="0.5101" style="stop-color:#FE135E"/>
				<stop  offset="1" style="stop-color:#AF0AE4"/>
			</linearGradient>
			<path style="fill:url(#SVGID_00000059282621191335920140000001694768885853333416_);" d="M44.12,37.33
				c0.07-1.58-0.38-3.13-0.12-4.7c-0.68-1.37,0.15-2.75-0.07-4.18c-0.17-1.16-0.31-2.46,0.12-3.66c0.03-0.08,0.04-0.17,0.01-0.24
				c-0.45-1.04-0.16-2.08,0.01-3.12c0.06-0.4,0.15-0.84-0.14-1.18c-0.47-0.54-0.68-1.21-0.92-1.86c-0.87-2.39-3.03-3.16-5.07-4.08
				c-1.11,0.17-2.26-0.13-3.35,0.21c-0.48,0.15-0.94,0.18-1.44,0.17c-1.65-0.02-3.31,0.05-4.97-0.08c-1.02-0.08-2.06,0.2-3.05,0.12
				c-1.65-0.13-3.31-0.08-4.97-0.21c-1.07-0.11-1.9,0.47-2.69,1.03c-0.79,0.57-1.57,1.19-2.17,1.94c-0.54,0.67-0.69,1.68-0.76,2.48
				c-0.11,1.28-0.26,2.62,0.01,3.91c0.14,0.69,0.25,1.38,0.12,2.07c-0.11,0.64,0.53,1.06,0.47,1.59c-0.05,0.54-0.49,1.01-0.52,1.61
				c-0.03,0.53,0.25,0.98,0.19,1.55c-0.12,1.31,0.05,2.65-0.04,3.97c-0.07,1.12,0.17,2.27-0.3,3.37c-0.21,0.5-0.2,1.04,0.51,1.27
				c0.41,0.13,0.55,0.53,0.76,0.9c0.81,1.53,1.74,2.94,3.57,3.44c0.91,0.25,1.82,0.52,2.76,0.4c1.54-0.18,3.06-0.45,4.59,0.06
				c0.22,0.07,0.49-0.02,0.73-0.04c1.12-0.1,2.23-0.36,3.36-0.09c0.27,0.07,0.61,0.16,0.85,0.07c1.07-0.42,2.19-0.19,3.26-0.14
				c0.8,0.04,1.61-0.12,2.42,0.09c1.32,0.34,2.58,0.11,3.66-0.77c0.18-0.15,0.33-0.34,0.58-0.42c1.25-0.46,1.73-1.61,2.3-2.65
				C44.31,39.29,44.08,38.3,44.12,37.33z M37.67,33.96c-0.36,0.67-0.86,1.41-1.69,1.81c-0.64,0.3-0.98,1.02-1.56,1.47
				c-1.63,1.26-3.51,1.62-5.46,1.88c-1.46,0.2-2.82-0.17-4.16-0.69c-1.72-0.66-2.71-2-3.47-3.57c-0.11-0.22-0.17-0.46-0.35-0.64
				c-0.8-0.83-1.06-1.91-1.36-2.96c-0.35-1.21-0.31-2.44,0.11-3.6c0.61-1.69,1.29-3.37,2.68-4.62c0.51-0.46,0.59-1.16,1.11-1.68
				c0.72-0.73,1.55-1,2.44-1.23c0.47-0.12,0.93-0.14,1.33-0.52c0.45-0.43,1.1-0.27,1.65-0.22c1.14,0.1,2.27,0.25,3.39,0.47
				c0.91,0.18,1.7,0.61,2.43,1.28c1.09,1.01,2,2.2,3.15,3.14c0.27,0.22,0.44,0.47,0.51,0.81c0.26,1.18,1.07,2.26,0.7,3.3
				C39.25,30.59,38.53,32.33,37.67,33.96z M39.19,22.05c-1.18-0.08-2.43-1.27-2.43-2.31c0-0.84,1.28-2.04,2.15-2.01
				c1.09,0.04,2.23,1.2,2.24,2.3C41.17,20.83,39.94,22.1,39.19,22.05z"/>
			<path class="st1" d="M38.41,25.09c-0.07-0.33-0.24-0.59-0.51-0.81c-1.15-0.94-2.06-2.13-3.15-3.14c-0.73-0.68-1.51-1.1-2.43-1.28
				c-1.12-0.23-2.26-0.38-3.39-0.47c-0.55-0.05-1.2-0.21-1.65,0.22c-0.4,0.38-0.85,0.4-1.33,0.52c-0.89,0.23-1.72,0.5-2.44,1.23
				c-0.52,0.52-0.6,1.22-1.11,1.68c-1.39,1.25-2.07,2.93-2.68,4.62c-0.43,1.16-0.46,2.38-0.11,3.6c0.3,1.05,0.56,2.13,1.36,2.96
				c0.17,0.17,0.24,0.42,0.35,0.64c0.76,1.57,1.75,2.91,3.47,3.57c1.35,0.52,2.7,0.88,4.16,0.69c1.95-0.25,3.83-0.61,5.46-1.88
				c0.58-0.46,0.92-1.17,1.56-1.47c0.83-0.4,1.33-1.14,1.69-1.81c0.87-1.63,1.59-3.37,1.45-5.56
				C39.48,27.35,38.67,26.28,38.41,25.09z M35.44,28.78c-0.11,0.38-0.03,0.81-0.02,1.21c0.01,0.46-0.05,0.95-0.29,1.31
				c-0.98,1.44-1.85,2.98-3.64,3.65c-0.44,0.16-0.85,0.22-1.29,0.24c-1.37-0.03-2.65-0.51-3.94-0.87c-0.68-0.18-1.11-0.86-1.51-1.4
				c-0.35-0.48-0.68-0.99-1.03-1.48c-0.94-1.31-0.57-2.71-0.2-4.09c0.24-0.88,0.81-1.54,1.47-2.19c0.75-0.73,1.64-1.25,2.42-1.92
				c0.4-0.34,1.16-0.36,1.75-0.34c2.35,0.06,4.23,0.96,5.32,3.16c0.05,0.11,0.12,0.23,0.22,0.29
				C35.67,26.94,35.71,27.79,35.44,28.78z"/>
			<path class="st1" d="M41.16,20.02c0.01,0.81-1.22,2.08-1.97,2.03c-1.18-0.08-2.43-1.27-2.43-2.31c0-0.84,1.28-2.04,2.15-2.01
				C40.01,17.76,41.15,18.93,41.16,20.02z"/>
			
				<linearGradient id="SVGID_00000075132099446529863140000012174904364477876134_" gradientUnits="userSpaceOnUse" x1="-4.8718" y1="65.1181" x2="65.5268" y2="-8.7145">
				<stop  offset="7.458905e-08" style="stop-color:#FDC100"/>
				<stop  offset="0.5101" style="stop-color:#FE135E"/>
				<stop  offset="1" style="stop-color:#AF0AE4"/>
			</linearGradient>
			<path style="fill:url(#SVGID_00000075132099446529863140000012174904364477876134_);" d="M35.44,28.78
				c-0.11,0.38-0.03,0.81-0.02,1.21c0.01,0.46-0.05,0.95-0.29,1.31c-0.98,1.44-1.85,2.98-3.64,3.65c-0.44,0.16-0.85,0.22-1.29,0.24
				c-1.37-0.03-2.65-0.51-3.94-0.87c-0.68-0.18-1.11-0.86-1.51-1.4c-0.35-0.48-0.68-0.99-1.03-1.48c-0.94-1.31-0.57-2.71-0.2-4.09
				c0.24-0.88,0.81-1.54,1.47-2.19c0.75-0.73,1.64-1.25,2.42-1.92c0.4-0.34,1.16-0.36,1.75-0.34c2.35,0.06,4.23,0.96,5.32,3.16
				c0.05,0.11,0.12,0.23,0.22,0.29C35.67,26.94,35.71,27.79,35.44,28.78z"/>
		</g>
	</g>
</g>
</svg>
