<?xml version="1.0" encoding="utf-8"?>
<!-- Generator: Adobe Illustrator 26.3.1, SVG Export Plug-In . SVG Version: 6.00 Build 0)  -->
<svg version="1.1" id="Layer_1" xmlns="http://www.w3.org/2000/svg" xmlns:xlink="http://www.w3.org/1999/xlink" x="0px" y="0px"
	 viewBox="0 0 60 60" style="enable-background:new 0 0 60 60;" xml:space="preserve">
<style type="text/css">
	.st0{fill:#0066CC;}
	.st1{fill:#FFFFFF;}
	.st2{fill:#3399FF;}
	.st3{fill:#FF0000;}
	.st4{fill:#FF0A0A;}
	.st5{fill:#003399;}
	.st6{fill:url(#SVGID_1_);}
	.st7{fill:url(#SVGID_00000031202923565557840470000018109540158904341922_);}
	.st8{fill:url(#SVGID_00000078016092434351250890000001525035743631277998_);}
	.st9{fill:#009933;}
	.st10{fill:url(#SVGID_00000070084832100919303910000003628183966022514359_);}
	.st11{fill:url(#SVGID_00000173883702282699994440000009542588604736551852_);}
	.st12{fill:url(#SVGID_00000176038543503091868050000015717090201310106533_);}
</style>
<g>
	<path d="M58.64,36.16c-0.26,0.77-0.48,1.56-0.44,2.39c0.05,0.94-0.01,1.76-0.83,2.5c-0.5,0.45-0.55,1.39-0.89,2.05
		c-0.98,1.86-1.6,3.91-3.08,5.51c-1.06,1.15-1.99,2.41-2.97,3.63c-0.16,0.2-0.37,0.27-0.62,0.34c-0.61,0.18-1,0.71-1.43,1.12
		c-0.52,0.51-0.99,0.85-1.74,1.11c-0.99,0.34-2.09,0.75-2.85,1.61c-0.34,0.39-0.71,0.57-1.3,0.39c-1.01-0.31-1.73,0.42-2.4,0.97
		c-0.51,0.42-1.01,0.57-1.63,0.63c-1.73,0.19-3.45,0.42-5.18,0.48c-0.29,0.01-0.56,0.02-0.84-0.09c-0.31-0.12-0.63-0.19-0.93,0.06
		c-0.22,0.18-0.48,0.14-0.71,0.07c-1.11-0.3-2.24-0.32-3.37-0.41c-0.84-0.07-1.68-0.14-2.5-0.49c-0.77-0.33-1.65-0.43-2.5-0.56
		c-0.33-0.06-0.65-0.15-0.89-0.33c-0.66-0.48-1.54-0.53-2.15-0.93c-1.32-0.85-2.99-1.01-4.09-2.31c-0.6-0.71-1.71-0.89-2.42-1.59
		c-0.31-0.3-0.75-0.46-0.82-0.99c-0.03-0.16-0.25-0.34-0.42-0.42c-1.11-0.56-1.64-1.69-2.51-2.47c-0.37-0.33,0.03-0.64-0.22-1.03
		c-0.65-1.01-1.58-1.83-2.03-2.97c0.05-0.19,0.01-0.31-0.22-0.3c-0.27-0.31-0.53-0.62-0.8-0.93c0.02-0.08,0.03-0.17,0.05-0.26
		c0.19-0.16,0.14-0.29,0.04-0.51c-0.35-0.73-0.86-1.4-0.78-2.28c0.02-0.15-0.01-0.38-0.1-0.46c-0.66-0.57-0.46-1.56-1.1-2.14
		c-0.11-0.09-0.23-0.33-0.18-0.43c0.62-1.36-0.43-2.72-0.02-4.08c0.08-0.25,0.03-0.6-0.08-0.84c-0.48-1.05-0.19-2.16-0.25-3.23
		c-0.03-0.47,0.14-0.99-0.31-1.36c-0.27-0.23,0.01-0.33,0.08-0.48c0.41-0.83,0.54-1.8,1.22-2.5c0.24-0.25,0.06-0.59-0.02-0.81
		c-0.17-0.48-0.2-0.92,0.01-1.38c0.29-0.16,0.23-0.5,0.39-0.73c1.08-0.89,1.51-2.13,1.96-3.41c0.36-1.04,1.17-1.85,1.86-2.71
		c0.75-0.93,1.55-1.82,2.03-2.93c0.06-0.1,0.11-0.21,0.17-0.32c0.25-0.26,0.5-0.51,0.75-0.77c0.22-0.2,0.51-0.34,0.46-0.71
		c1.32-0.77,2.37-1.89,3.56-2.8c1.11-0.85,2.11-2.02,3.66-2.18c0.22-0.03,0.33-0.21,0.5-0.32c0.65-0.44,1.31-0.75,2.13-0.9
		c0.88-0.16,1.8-0.27,2.69-0.55c0.83-0.26,1.71-0.59,2.65-0.64c1.09-0.05,2.17-0.31,3.27-0.3c1.13,0.01,2.27-0.32,3.39,0.25
		c0.55,0.27,1.2,0.14,1.82,0.07c0.37-0.05,0.76-0.17,1.08,0.04c0.76,0.48,1.62,0.53,2.46,0.61c1.2,0.11,2.26,0.6,3.31,1.14
		c0.15,0.27,0.37,0.33,0.64,0.2c0.9,0.69,1.72,1.5,2.89,1.74c0.77,1.06,2.32,1.19,2.94,2.44c0.08,0.16,0.27,0.17,0.37,0.27
		c0.53,0.52,1.4,0.75,1.51,1.65c1.02,0.58,1.45,1.73,2.35,2.42c0.66,0.5,1,1.15,1.39,1.87c0.84,1.53,1.34,3.22,2.23,4.71
		c0.45,0.74,0.38,1.68,1.01,2.31c0.03,0.03,0.05,0.09,0.04,0.11c-0.46,0.84,0.22,1.54,0.26,2.31c0.02,0.26,0.08,0.44,0.19,0.67
		c0.49,1.07,0.74,2.18,0.27,3.33c-0.06,0.15-0.2,0.35-0.15,0.44c0.44,0.84,0.1,1.77,0.37,2.64C59.23,33.64,59.05,34.91,58.64,36.16z
		"/>
	<path d="M36.25,27.7c-0.86,0.91-1.69,1.85-2.55,2.76c-0.25,0.26-0.49,0.17-0.72-0.09c-0.47-0.57-0.81-1.23-1.21-1.84
		c-1.07-1.65-2.69-2.19-4.47-2.43C26.54,26,25.74,25.99,25,26.3c-0.23,0.09-0.52,0.14-0.65,0.32c-0.75,0.99-2.06,1.36-2.68,2.48
		c-0.13,0.24-0.31,0.36-0.57,0.42c-0.29,0.08-0.5,0.3-0.67,0.52c-1.41,1.82-3.07,3.45-4.29,5.42c-0.5,0.79-0.5,1.72-0.77,2.58
		c0.62,1.2,0.58,2.72,1.79,3.65c1.52,1.16,3.15,1.87,5.12,1.7c0.78-0.07,1.34-0.58,2-0.87c0.83-0.37,1.68-0.89,2.19-1.73
		c0.2-0.34,0.6-0.43,0.79-0.76c0.15-0.26,0.37-0.25,0.64-0.17c1.47,0.41,2.98,0.47,4.72,0.52c-0.59,0.64-0.97,1.15-1.5,1.55
		c-0.91,0.68-1.65,1.58-2.45,2.38c-1.41,1.41-3.06,2.36-4.94,2.81c-1.24,0.29-2.55,0.31-3.85,0.2c-2.73-0.23-4.46-1.88-6.07-3.86
		c-1.89-2.31-2.14-5-2.08-7.8c0.01-0.59,0.29-1.06,0.53-1.58c0.77-1.65,2.37-2.65,3.15-4.27c1.64-1.11,2.4-3.11,4.2-4.06
		c0.72-0.38,1.2-1.1,1.74-1.67c1.4-1.5,3.13-2.1,5.07-2.41c1.68-0.27,3.26,0.12,4.8,0.66c0.7,0.25,1.42,0.73,1.88,1.31
		c0.96,1.17,2.04,2.22,3.04,3.35C36.34,27.2,36.55,27.38,36.25,27.7z"/>
	<path d="M47.55,22.93c-0.14,0.38-0.2,0.79-0.24,1.2c-0.05,0.5-0.22,0.91-0.56,1.31c-0.52,0.61-0.7,1.46-1.23,2.09
		c-0.27,0.31-0.46,0.74-0.79,0.94c-0.87,0.51-1.45,1.33-2.02,2.07c-1.06,1.37-2.48,2.38-3.52,3.73c-1.22,1.6-2.89,2.49-4.71,3.1
		c-1.36,0.46-2.8,0.58-4.24,0.47c-0.28-0.02-0.56-0.04-0.85-0.05c-1.11-0.05-2.21-0.12-2.91-1.21c-0.12-0.19-0.4-0.28-0.61-0.41
		c-1.18-0.72-1.96-1.85-2.81-2.87c-0.77-0.95-0.65-1.16,0.16-2.07c0.74-0.83,1.58-1.51,2.73-2.05c0.28,1.41,0.89,2.41,1.93,3.19
		c2,1.49,4.08,1.45,6.2,0.4c1.44-0.71,2.47-1.98,3.7-2.97c1.8-1.45,2.91-3.52,4.6-5.07c0.55-0.5,0.84-1.2,0.74-2.01
		c-0.04-0.28-0.07-0.6,0.03-0.86c0.34-1.01-0.11-1.95-0.59-2.63c-0.94-1.3-2.02-2.48-3.86-2.77c-2.13-0.33-3.83,0.35-5.39,1.64
		c-0.56,0.47-1.15,0.91-1.58,1.53c-0.32,0.46-0.85,0.61-1.43,0.44c-1.1-0.32-2.21-0.61-3.38-0.46c-0.25,0.03-0.51-0.09-0.61-0.31
		c-0.1-0.21,0.08-0.39,0.24-0.52c0.51-0.42,0.83-1.01,1.28-1.48c1.7-1.76,3.44-3.47,5.79-4.38c0.6-0.23,1.1-0.68,1.75-0.86
		c2.65-0.75,4.98,0.09,7.24,1.36c1.35,0.76,2.21,1.96,3.09,3.2c0.69,0.97,1.44,1.89,1.71,3.06C47.66,20.74,47.95,21.82,47.55,22.93z
		"/>
	<g>
		<path class="st5" d="M56.79,30.32c-0.26-0.87,0.08-1.8-0.37-2.64c-0.05-0.09,0.09-0.29,0.15-0.44c0.47-1.15,0.22-2.26-0.27-3.33
			c-0.11-0.23-0.17-0.41-0.19-0.67c-0.04-0.77-0.73-1.47-0.26-2.31c0.01-0.03-0.02-0.09-0.04-0.11c-0.63-0.64-0.57-1.57-1.01-2.31
			c-0.89-1.49-1.39-3.18-2.23-4.71c-0.39-0.72-0.73-1.37-1.39-1.87c-0.89-0.69-1.33-1.84-2.35-2.42c-0.11-0.9-0.98-1.13-1.51-1.65
			c-0.1-0.1-0.29-0.11-0.37-0.27c-0.62-1.25-2.17-1.38-2.94-2.44c-1.17-0.24-1.99-1.05-2.89-1.74c-0.27,0.13-0.49,0.07-0.64-0.2
			c-1.05-0.54-2.1-1.03-3.31-1.14c-0.84-0.08-1.7-0.13-2.46-0.61C34.39,1.23,34,1.35,33.64,1.4c-0.61,0.08-1.27,0.21-1.82-0.07
			c-1.12-0.57-2.26-0.24-3.39-0.25c-1.1-0.01-2.18,0.25-3.27,0.3c-0.95,0.05-1.83,0.38-2.65,0.64c-0.89,0.28-1.81,0.39-2.69,0.55
			c-0.82,0.15-1.49,0.46-2.13,0.9c-0.16,0.11-0.28,0.3-0.5,0.32c-1.55,0.16-2.55,1.33-3.66,2.18c-1.19,0.92-2.24,2.03-3.56,2.8
			C10.01,9.16,9.72,9.3,9.5,9.5c-0.25,0.26-0.5,0.51-0.75,0.77c-0.06,0.11-0.11,0.22-0.17,0.32C8.1,11.7,7.3,12.59,6.55,13.52
			c-0.69,0.86-1.5,1.67-1.86,2.71c-0.45,1.28-0.88,2.51-1.96,3.41c-0.15,0.23-0.09,0.57-0.39,0.73c-0.21,0.46-0.18,0.9-0.01,1.38
			c0.08,0.22,0.26,0.56,0.02,0.81c-0.68,0.7-0.81,1.67-1.22,2.5c-0.08,0.15-0.35,0.26-0.08,0.48c0.45,0.37,0.28,0.89,0.31,1.36
			c0.07,1.07-0.23,2.18,0.25,3.23c0.11,0.24,0.16,0.59,0.08,0.84c-0.42,1.36,0.63,2.72,0.02,4.08c-0.05,0.1,0.07,0.33,0.18,0.43
			c0.64,0.58,0.44,1.57,1.1,2.14c0.1,0.08,0.12,0.31,0.1,0.46c-0.09,0.88,0.43,1.56,0.78,2.28c0.1,0.22,0.15,0.35-0.04,0.51
			c-0.02,0.09-0.03,0.17-0.05,0.26c0.27,0.31,0.53,0.62,0.8,0.93c0.23-0.01,0.26,0.11,0.22,0.3c0.45,1.14,1.37,1.96,2.03,2.97
			c0.25,0.39-0.15,0.69,0.22,1.03c0.87,0.78,1.4,1.91,2.51,2.47c0.17,0.08,0.39,0.26,0.42,0.42c0.07,0.52,0.51,0.68,0.82,0.99
			c0.71,0.7,1.82,0.87,2.42,1.59c1.1,1.31,2.77,1.46,4.09,2.31c0.61,0.4,1.49,0.45,2.15,0.93c0.25,0.18,0.56,0.28,0.89,0.33
			c0.85,0.13,1.73,0.23,2.5,0.56c0.82,0.35,1.67,0.43,2.5,0.49c1.13,0.09,2.26,0.11,3.37,0.41c0.23,0.07,0.49,0.11,0.71-0.07
			c0.3-0.25,0.62-0.18,0.93-0.06c0.28,0.11,0.55,0.1,0.84,0.09c1.74-0.07,3.46-0.3,5.18-0.48c0.62-0.07,1.12-0.21,1.63-0.63
			c0.67-0.56,1.39-1.29,2.4-0.97c0.59,0.18,0.95-0.01,1.3-0.39c0.76-0.86,1.86-1.27,2.85-1.61c0.75-0.26,1.22-0.6,1.74-1.11
			c0.43-0.41,0.82-0.94,1.43-1.12c0.25-0.07,0.46-0.14,0.62-0.34c0.98-1.21,1.91-2.48,2.97-3.63c1.48-1.6,2.1-3.65,3.08-5.51
			c0.35-0.66,0.39-1.6,0.89-2.05c0.83-0.75,0.88-1.56,0.83-2.5c-0.05-0.83,0.17-1.62,0.44-2.39C57,32.85,57.17,31.58,56.79,30.32z
			 M31.12,41.93c-0.91,0.68-1.65,1.58-2.45,2.38c-1.41,1.41-3.06,2.36-4.94,2.81c-1.24,0.29-2.55,0.31-3.85,0.2
			c-2.73-0.23-4.46-1.88-6.07-3.86c-1.89-2.31-2.14-5-2.08-7.8c0.01-0.59,0.29-1.06,0.53-1.58c0.77-1.65,2.37-2.65,3.15-4.27
			c1.64-1.11,2.4-3.11,4.2-4.06c0.72-0.38,1.2-1.1,1.74-1.67c1.4-1.5,3.13-2.1,5.07-2.41c1.68-0.27,3.26,0.12,4.8,0.66
			c0.7,0.25,1.42,0.73,1.88,1.31c0.96,1.17,2.04,2.22,3.04,3.35c0.2,0.22,0.41,0.4,0.1,0.71c-0.86,0.91-1.69,1.85-2.55,2.76
			c-0.25,0.26-0.49,0.17-0.72-0.09c-0.47-0.57-0.81-1.23-1.21-1.84c-1.07-1.65-2.69-2.19-4.47-2.43C26.54,26,25.74,25.99,25,26.3
			c-0.23,0.09-0.52,0.14-0.65,0.32c-0.75,0.99-2.06,1.36-2.68,2.48c-0.13,0.24-0.31,0.36-0.57,0.42c-0.29,0.08-0.5,0.3-0.67,0.52
			c-1.41,1.82-3.07,3.45-4.29,5.42c-0.5,0.79-0.5,1.72-0.77,2.58c0.62,1.2,0.58,2.72,1.79,3.65c1.52,1.16,3.15,1.87,5.12,1.7
			c0.78-0.07,1.34-0.58,2-0.87c0.83-0.37,1.68-0.89,2.19-1.73c0.2-0.34,0.6-0.43,0.79-0.76c0.15-0.26,0.37-0.25,0.64-0.17
			c1.47,0.41,2.98,0.47,4.72,0.52C32.03,41.03,31.65,41.53,31.12,41.93z M47.55,22.93c-0.14,0.38-0.2,0.79-0.24,1.2
			c-0.05,0.5-0.22,0.91-0.56,1.31c-0.52,0.61-0.7,1.46-1.23,2.09c-0.27,0.31-0.46,0.74-0.79,0.94c-0.87,0.51-1.45,1.33-2.02,2.07
			c-1.06,1.37-2.48,2.38-3.52,3.73c-1.22,1.6-2.89,2.49-4.71,3.1c-1.36,0.46-2.8,0.58-4.24,0.47c-0.28-0.02-0.56-0.04-0.85-0.05
			c-1.11-0.05-2.21-0.12-2.91-1.21c-0.12-0.19-0.4-0.28-0.61-0.41c-1.18-0.72-1.96-1.85-2.81-2.87c-0.77-0.95-0.65-1.16,0.16-2.07
			c0.74-0.83,1.58-1.51,2.73-2.05c0.28,1.41,0.89,2.41,1.93,3.19c2,1.49,4.08,1.45,6.2,0.4c1.44-0.71,2.47-1.98,3.7-2.97
			c1.8-1.45,2.91-3.52,4.6-5.07c0.55-0.5,0.84-1.2,0.74-2.01c-0.04-0.28-0.07-0.6,0.03-0.86c0.34-1.01-0.11-1.95-0.59-2.63
			c-0.94-1.3-2.02-2.48-3.86-2.77c-2.13-0.33-3.83,0.35-5.39,1.64c-0.56,0.47-1.15,0.91-1.58,1.53c-0.32,0.46-0.85,0.61-1.43,0.44
			c-1.1-0.32-2.21-0.61-3.38-0.46c-0.25,0.03-0.51-0.09-0.61-0.31c-0.1-0.21,0.08-0.39,0.24-0.52c0.51-0.42,0.83-1.01,1.28-1.48
			c1.7-1.76,3.44-3.47,5.79-4.38c0.6-0.23,1.1-0.68,1.75-0.86c2.65-0.75,4.98,0.09,7.24,1.36c1.35,0.76,2.21,1.96,3.09,3.2
			c0.69,0.97,1.44,1.89,1.71,3.06C47.66,20.74,47.95,21.82,47.55,22.93z"/>
		<path class="st1" d="M36.25,27.7c-0.86,0.91-1.69,1.85-2.55,2.76c-0.25,0.26-0.49,0.17-0.72-0.09c-0.47-0.57-0.81-1.23-1.21-1.84
			c-1.07-1.65-2.69-2.19-4.47-2.43C26.54,26,25.74,25.99,25,26.3c-0.23,0.09-0.52,0.14-0.65,0.32c-0.75,0.99-2.06,1.36-2.68,2.48
			c-0.13,0.24-0.31,0.36-0.57,0.42c-0.29,0.08-0.5,0.3-0.67,0.52c-1.41,1.82-3.07,3.45-4.29,5.42c-0.5,0.79-0.5,1.72-0.77,2.58
			c0.62,1.2,0.58,2.72,1.79,3.65c1.52,1.16,3.15,1.87,5.12,1.7c0.78-0.07,1.34-0.58,2-0.87c0.83-0.37,1.68-0.89,2.19-1.73
			c0.2-0.34,0.6-0.43,0.79-0.76c0.15-0.26,0.37-0.25,0.64-0.17c1.47,0.41,2.98,0.47,4.72,0.52c-0.59,0.64-0.97,1.15-1.5,1.55
			c-0.91,0.68-1.65,1.58-2.45,2.38c-1.41,1.41-3.06,2.36-4.94,2.81c-1.24,0.29-2.55,0.31-3.85,0.2c-2.73-0.23-4.46-1.88-6.07-3.86
			c-1.89-2.31-2.14-5-2.08-7.8c0.01-0.59,0.29-1.06,0.53-1.58c0.77-1.65,2.37-2.65,3.15-4.27c1.64-1.11,2.4-3.11,4.2-4.06
			c0.72-0.38,1.2-1.1,1.74-1.67c1.4-1.5,3.13-2.1,5.07-2.41c1.68-0.27,3.26,0.12,4.8,0.66c0.7,0.25,1.42,0.73,1.88,1.31
			c0.96,1.17,2.04,2.22,3.04,3.35C36.34,27.2,36.55,27.38,36.25,27.7z"/>
		<path class="st1" d="M47.55,22.93c-0.14,0.38-0.2,0.79-0.24,1.2c-0.05,0.5-0.22,0.91-0.56,1.31c-0.52,0.61-0.7,1.46-1.23,2.09
			c-0.27,0.31-0.46,0.74-0.79,0.94c-0.87,0.51-1.45,1.33-2.02,2.07c-1.06,1.37-2.48,2.38-3.52,3.73c-1.22,1.6-2.89,2.49-4.71,3.1
			c-1.36,0.46-2.8,0.58-4.24,0.47c-0.28-0.02-0.56-0.04-0.85-0.05c-1.11-0.05-2.21-0.12-2.91-1.21c-0.12-0.19-0.4-0.28-0.61-0.41
			c-1.18-0.72-1.96-1.85-2.81-2.87c-0.77-0.95-0.65-1.16,0.16-2.07c0.74-0.83,1.58-1.51,2.73-2.05c0.28,1.41,0.89,2.41,1.93,3.19
			c2,1.49,4.08,1.45,6.2,0.4c1.44-0.71,2.47-1.98,3.7-2.97c1.8-1.45,2.91-3.52,4.6-5.07c0.55-0.5,0.84-1.2,0.74-2.01
			c-0.04-0.28-0.07-0.6,0.03-0.86c0.34-1.01-0.11-1.95-0.59-2.63c-0.94-1.3-2.02-2.48-3.86-2.77c-2.13-0.33-3.83,0.35-5.39,1.64
			c-0.56,0.47-1.15,0.91-1.58,1.53c-0.32,0.46-0.85,0.61-1.43,0.44c-1.1-0.32-2.21-0.61-3.38-0.46c-0.25,0.03-0.51-0.09-0.61-0.31
			c-0.1-0.21,0.08-0.39,0.24-0.52c0.51-0.42,0.83-1.01,1.28-1.48c1.7-1.76,3.44-3.47,5.79-4.38c0.6-0.23,1.1-0.68,1.75-0.86
			c2.65-0.75,4.98,0.09,7.24,1.36c1.35,0.76,2.21,1.96,3.09,3.2c0.69,0.97,1.44,1.89,1.71,3.06C47.66,20.74,47.95,21.82,47.55,22.93
			z"/>
	</g>
</g>
</svg>
