<?xml version="1.0" encoding="utf-8"?>
<!-- Generator: Adobe Illustrator 26.3.1, SVG Export Plug-In . SVG Version: 6.00 Build 0)  -->
<svg version="1.1" id="Layer_1" xmlns="http://www.w3.org/2000/svg" xmlns:xlink="http://www.w3.org/1999/xlink" x="0px" y="0px"
	 viewBox="0 0 60 60" style="enable-background:new 0 0 60 60;" xml:space="preserve">
<style type="text/css">
	.st0{fill:#0066CC;}
	.st1{fill:#FFFFFF;}
	.st2{fill:#3399FF;}
	.st3{fill:#FF0000;}
	.st4{fill:#FF0A0A;}
	.st5{fill:#003399;}
	.st6{fill:url(#SVGID_1_);}
	.st7{fill:url(#SVGID_00000083787204725663154120000004905873807112432271_);}
	.st8{fill:url(#SVGID_00000159439316545444982480000003006764048305935543_);}
	.st9{fill:#009933;}
	.st10{fill:url(#SVGID_00000114765524631006066890000016076423266256569517_);}
	.st11{fill:url(#SVGID_00000065067847468973579840000008682394581185214358_);}
	.st12{fill:url(#SVGID_00000153671395757796075140000016813856665021806724_);}
</style>
<g>
	<path d="M31.26,42.12c-3.6,0.64-7.18,1.44-10.8,1.89c-3.44,0.43-6.81,1.41-10.31,1.41c-1.16,0-2.23,0.57-3.42,0.57
		c-2.9-0.01-3.83-0.81-4.07-3.65c-0.15-1.79-0.08-3.57,0.05-5.37C3,33.09,3.6,29.21,2.99,25.3c1.21-1.47-0.03-3.61,1.57-5.15
		c0.74-0.72,0.69-2.33,0.85-3.56c0.16-1.24,0.83-1.42,1.87-1.25c4.74,0.76,9.48,1.49,14.22,2.24c3.08,0.49,6.21,0.67,9.2,1.64
		c0.83,0.27,1.1-0.28,1.09-1.03c-0.01-1.17-0.06-2.34-0.01-3.5c0.08-1.94-0.36-3.85,0.58-5.81c0.77-1.61,1.77-2.5,3.28-1.7
		c3.21,1.7,6.53,3.47,8.9,6.17c1.49,1.7,3.08,3.46,4.62,5.03c1.89,1.93,3.48,4.13,5.42,5.93c1.69,1.57,2.63,3.56,4.02,5.27
		c0.49,0.6,0.14,1.35-0.32,1.98c-1.43,1.99-2.13,4.49-4.36,5.94c-0.54,0.35-0.82,1.14-1.14,1.77c-0.29,0.57-0.58,1.12-1.1,1.51
		c-2.7,2.05-4.59,4.87-6.95,7.23c-2.73,2.72-6.09,4.72-9.61,6.32c-1.38,0.63-2.25-0.26-2.81-1.85c-1.17-3.25-0.17-6.57-0.61-9.82
		C31.77,42.29,31.68,42.07,31.26,42.12z"/>
	<path class="st3" d="M29.85,40.72c-3.6,0.64-7.18,1.44-10.8,1.89c-3.44,0.43-6.81,1.41-10.31,1.41c-1.16,0-2.23,0.57-3.42,0.57
		c-2.9-0.01-3.83-0.81-4.07-3.65c-0.15-1.79-0.08-3.57,0.05-5.37c0.3-3.88,0.89-7.77,0.28-11.67c1.21-1.47-0.03-3.61,1.57-5.15
		C3.9,18.02,3.85,16.41,4,15.18c0.16-1.24,0.83-1.42,1.87-1.25c4.74,0.76,9.48,1.49,14.22,2.24c3.08,0.49,6.21,0.67,9.2,1.64
		c0.83,0.27,1.1-0.28,1.09-1.03c-0.01-1.17-0.06-2.34-0.01-3.5c0.08-1.94-0.36-3.85,0.58-5.81c0.77-1.61,1.77-2.5,3.28-1.7
		c3.21,1.7,6.53,3.47,8.9,6.17c1.49,1.7,3.08,3.46,4.62,5.03c1.89,1.93,3.48,4.13,5.42,5.93c1.69,1.57,2.63,3.56,4.02,5.27
		c0.49,0.6,0.14,1.35-0.32,1.98c-1.43,1.99-2.13,4.49-4.36,5.94c-0.54,0.35-0.82,1.14-1.14,1.77c-0.29,0.57-0.58,1.12-1.1,1.51
		c-2.7,2.05-4.59,4.87-6.95,7.23c-2.73,2.72-6.09,4.72-9.61,6.32c-1.38,0.63-2.25-0.26-2.81-1.85c-1.17-3.25-0.17-6.57-0.61-9.82
		C30.36,40.89,30.27,40.66,29.85,40.72z"/>
</g>
</svg>
