<?xml version="1.0" encoding="utf-8"?>
<!-- Generator: Adobe Illustrator 26.3.1, SVG Export Plug-In . SVG Version: 6.00 Build 0)  -->
<svg version="1.1" id="Layer_1" xmlns="http://www.w3.org/2000/svg" xmlns:xlink="http://www.w3.org/1999/xlink" x="0px" y="0px"
	 viewBox="0 0 60 60" style="enable-background:new 0 0 60 60;" xml:space="preserve">
<style type="text/css">
	.st0{fill:#0066CC;}
	.st1{fill:#FFFFFF;}
	.st2{fill:#3399FF;}
	.st3{fill:#FF0000;}
	.st4{fill:#FF0A0A;}
	.st5{fill:#003399;}
	.st6{fill:url(#SVGID_1_);}
	.st7{fill:url(#SVGID_00000074421907158781461720000017755234555465096064_);}
	.st8{fill:url(#SVGID_00000060728196271004236410000004719891506139056789_);}
	.st9{fill:#009933;}
	.st10{fill:url(#SVGID_00000063593583135107457840000017181366087930536607_);}
	.st11{fill:url(#SVGID_00000062166038086484710120000003771085128502421137_);}
	.st12{fill:url(#SVGID_00000064322509652616965540000005457857494617656991_);}
</style>
<g>
	<path d="M58.87,31.62c-0.48-1.39-0.74-3.03-0.91-4.6c-0.16-1.49-0.79-3.64-1.61-5.82h0.05c-0.08-0.15-0.15-0.3-0.21-0.44
		c-1.58-3.16-3.2-6-5.33-8.49c-2.36-2.74-5.53-4.59-8.42-6.72c-0.1-0.09-0.21-0.16-0.31-0.24c-1.26-0.96-2.81-1.93-4.54-1.93h-0.01
		c-0.01,0-0.01,0-0.03,0c-2.55,0.03-5.04-0.59-7.67-0.2C28,3.47,26.4,4.63,24.5,4.58c-0.44,0.33-0.85,0.35-1.24-0.08
		c-0.39,0.09-0.78,0.18-1.15,0.28c-2.9,0.74-5.6,1.9-8.07,3.56c-0.73,0.48-1.44,1-2.13,1.58c-0.14,0.06-0.28,0.14-0.4,0.23h-0.01
		c-0.43,0.29-0.79,0.65-1.13,1.04c-0.33,0.36-0.64,0.74-1,1.05c-0.06,0.06-0.13,0.13-0.19,0.18c-2.15,1.78-4.3,3.63-4.55,6.9
		c-0.04,0.43-0.1,0.88-0.18,1.33c-0.19,1.1-0.49,2.23-0.81,3.31C2.83,26.66,2.58,32.23,3,35.91c0.07,0.79,0.19,1.49,0.34,2.06
		c1.53,5.88,4.35,10.98,9.13,14.87c1.04,2.05,2.9,3.03,4.9,3.89c2.69,1.16,5.47,1.54,8.4,1.83c1.24,0.13,2.49,0.25,3.73,0.33
		c1.5,0.11,3.01,0.16,4.52,0.08c0.48-0.03,0.95-0.06,1.43-0.11c2.69-0.25,5.32-0.84,7.83-2.15c1.94-1.03,3.79-2.18,5.25-3.7
		c2.05-2.13,4.9-3.53,6.14-6.43c1.03-2.44,3-4.36,3.74-6.95c0.29-0.98,0.33-1.59-0.02-1.91C59.18,35.84,59.63,33.88,58.87,31.62z
		 M43.1,21.91c-0.05,0.06-0.1,0.11-0.16,0.16c-0.05-0.05-0.11-0.11-0.16-0.16H43.1z M20.17,33.2c0.91-0.05,1.67-0.71,1.43-1.41
		C21.85,32.49,21.08,33.15,20.17,33.2z M18.66,37.04c-0.22,0.15-0.46,0.27-0.74,0.36c-0.34,0.11-0.6,0.08-0.8-0.03
		c0.21,0.11,0.47,0.14,0.81,0.03C18.19,37.3,18.44,37.18,18.66,37.04z M20.6,27.91c0,0,0-0.01,0-0.01
		C20.6,27.9,20.6,27.9,20.6,27.91C20.6,27.9,20.6,27.9,20.6,27.91z M20.57,28.16c0-0.01,0-0.02,0-0.02
		C20.57,28.15,20.57,28.15,20.57,28.16c-0.02,0.1-0.03,0.18-0.04,0.27C20.54,28.34,20.55,28.26,20.57,28.16z M20.05,27.07
		C20.05,27.07,20.05,27.07,20.05,27.07C20.05,27.07,20.05,27.07,20.05,27.07z M18.63,26.75c0.17,0.01,0.35,0.03,0.52,0.06l0.07,0.01
		C19.03,26.79,18.83,26.77,18.63,26.75z M16.21,25.88c-1.04-2.07-1.56-1.94-2.73,0.25c-0.14,0.27-0.25,0.52-0.41,0.68
		c0.16-0.17,0.26-0.42,0.41-0.69C14.64,23.94,15.17,23.81,16.21,25.88c0.56,1.11,1.28,0.86,1.99,0.85
		C17.48,26.74,16.77,27,16.21,25.88z M16.52,36.63c-0.05-0.09-0.09-0.18-0.14-0.28c-0.27-0.6-0.51-1.22-0.77-1.87c0,0,0,0,0,0
		c0.26,0.64,0.49,1.27,0.77,1.87C16.43,36.45,16.47,36.54,16.52,36.63z M19.11,36.58c0.15-0.24,0.24-0.53,0.23-0.89
		c0-0.39-0.08-0.79-0.19-1.18c-0.01-0.03-0.01-0.05-0.02-0.07c0.01,0.02,0.01,0.05,0.02,0.07c0.1,0.39,0.19,0.79,0.19,1.18
		C19.35,36.05,19.26,36.34,19.11,36.58z M9.64,31.43c1.24-0.63,1.28-1.3,0.61-2.58c-0.42-0.81-0.44-1.43-0.13-1.77
		c-0.31,0.34-0.29,0.96,0.13,1.77C10.92,30.13,10.89,30.8,9.64,31.43c-0.14,0.08-0.26,0.2-0.38,0.32C9.38,31.62,9.5,31.5,9.64,31.43
		z M8.42,33c0.01-0.05,0.03-0.09,0.04-0.14C8.44,32.91,8.43,32.95,8.42,33z M8.47,32.84c0.1-0.25,0.29-0.52,0.57-0.84
		C8.76,32.32,8.57,32.59,8.47,32.84z M8.4,33.06c-0.01,0.03-0.01,0.06-0.01,0.09C8.39,33.12,8.4,33.09,8.4,33.06z M8.4,33.31
		c0-0.01,0-0.02,0-0.04C8.4,33.28,8.4,33.3,8.4,33.31z M10.59,35.52c0.06-0.47-0.04-0.69-0.29-0.86
		C10.55,34.82,10.65,35.05,10.59,35.52c-0.06,0.55-0.12,1.17,0.2,1.58C10.47,36.69,10.53,36.07,10.59,35.52z M12.2,37.53
		c0.45-0.07,0.83-0.3,1.16-0.65C13.03,37.23,12.65,37.46,12.2,37.53z"/>
	<g>
		<path class="st1" d="M56.32,35.64c-0.24-0.26-0.74-0.34-1.54-0.25c-3.13,0.34-6.22,0.11-9.34-0.02c-1.11-0.05-2.21,0.25-3.33,0.44
			c-0.73,0.14-1.46,0.23-2.21,0.15c-1.65-0.16-3.3-0.19-4.95-0.16c-2.56,0.05-5.14,0.21-7.72,0.15c-0.21,0.04-0.43,0.08-0.64,0.13
			c-0.06-0.53,0.03-0.98,0.54-1.25c-0.04-0.88,0.46-1.51,1.08-2c0.89-0.7,1.13-1.56,0.93-2.6c-0.01-0.1-0.04-0.19-0.06-0.28
			c-0.24-1.16-0.64-2.21-1.34-3.23c-0.2-0.28-0.4-0.55-0.6-0.81c-0.76-0.95-1.6-1.84-2.39-2.75c-0.78-0.89-1.51-1.81-2.1-2.85
			c1.84-0.11,3.69-0.19,5.54-0.24c2.89-0.09,5.78-0.11,8.69-0.14c1.28-0.02,2.56-0.05,3.84-0.06c0.05,0.05,0.12-0.05,0.17,0
			c0.06-0.05,0.1,0.06,0.15,0c2.28-0.05,4.54-0.11,6.83-0.23c2.13-0.11,4.26-0.26,6.42-0.49c0.83,2.18,1.45,4.33,1.61,5.82
			c0.18,1.58,0.44,3.21,0.91,4.6C57.57,31.82,57.12,33.78,56.32,35.64z"/>
		<path class="st9" d="M56.35,37.55c-0.74,2.59-2.71,4.51-3.74,6.95c-1.24,2.9-4.09,4.3-6.14,6.43c-1.46,1.53-3.31,2.68-5.25,3.7
			c-2.51,1.31-5.14,1.9-7.83,2.15c-0.48,0.05-0.95,0.09-1.43,0.11c-1.5,0.09-3.01,0.04-4.52-0.08c-1.24-0.08-2.49-0.2-3.73-0.33
			c-2.94-0.29-5.72-0.66-8.4-1.83c-2-0.86-3.86-1.84-4.9-3.89c0.28-0.26,0.55-0.51,0.85-0.75c2.29-1.94,4.97-3.34,6.9-5.87
			c0.33-0.43,0.65-0.84,1-1.24c1.84-2.18,4.04-4.15,6.5-5.73c0.4-0.25,0.63-0.75,0.93-1.14c0.21-0.05,0.43-0.09,0.64-0.13
			c2.58,0.06,5.15-0.1,7.72-0.15c1.65-0.02,3.3,0,4.95,0.16c0.75,0.08,1.49-0.01,2.21-0.15c1.11-0.19,2.21-0.49,3.33-0.44
			c3.13,0.14,6.22,0.36,9.34,0.02c0.8-0.09,1.3-0.01,1.54,0.25C56.67,35.96,56.64,36.57,56.35,37.55z"/>
		<path class="st3" d="M29.13,30.21c-0.01-0.1-0.04-0.19-0.06-0.28c-0.24-1.16-0.64-2.21-1.34-3.23c-0.2-0.28-0.4-0.55-0.6-0.81
			c-0.76-0.95-1.6-1.84-2.39-2.75c-0.78-0.89-1.51-1.81-2.1-2.85c-2.03-0.88-3.49-2.38-4.92-4.03c-2.51-2.89-5.23-5.62-7.87-8.4
			C9.72,7.92,9.58,8,9.46,8.08H9.45C9.02,8.37,8.66,8.73,8.32,9.12c-0.33,0.36-0.64,0.74-1,1.05c-0.06,0.06-0.13,0.13-0.19,0.18
			c-2.15,1.78-4.3,3.63-4.55,6.9c-0.04,0.43-0.1,0.88-0.18,1.33c-0.19,1.1-0.49,2.23-0.81,3.31c-0.83,2.71-1.08,8.28-0.65,11.96
			c0.07,0.79,0.19,1.49,0.34,2.06c1.53,5.88,4.35,10.98,9.13,14.87c0.28-0.26,0.55-0.51,0.85-0.75c2.29-1.94,4.97-3.34,6.9-5.87
			c0.33-0.43,0.65-0.84,1-1.24c1.84-2.18,4.04-4.15,6.5-5.73c0.4-0.25,0.63-0.75,0.93-1.14c-0.06-0.53,0.03-0.98,0.54-1.25
			c-0.04-0.88,0.46-1.51,1.08-2C29.1,32.11,29.33,31.25,29.13,30.21z M18.03,31.15c-1.04,0.01-1.15,0.49-0.93,1.31
			c0.1,0.39,0.19,0.79,0.19,1.18c0.01,0.95-0.63,1.44-1.43,1.7c-0.9,0.29-1.24-0.4-1.54-1.04c-0.28-0.6-0.51-1.23-0.78-1.88
			c-1.11,0.34-1.44,1.21-1.9,1.94c-0.53,0.84-1.29,1.31-2.26,1.06c-1.04-0.25-0.94-1.18-0.85-1.96c0.09-0.74-0.2-0.88-0.88-1.15
			c-0.56-0.23-0.94-0.44-1.14-0.69c-0.03-0.03-0.05-0.05-0.06-0.08c-0.03-0.04-0.05-0.08-0.06-0.11c0,0-0.01-0.01-0.01-0.03
			c-0.18-0.43,0.09-0.94,0.75-1.64c0.14-0.15,0.28-0.31,0.45-0.4c1.24-0.63,1.28-1.3,0.61-2.58c-0.84-1.63-0.09-2.45,1.74-1.93
			c1.08,0.31,1.16-0.2,1.49-0.8c1.16-2.19,1.69-2.31,2.73-0.25c0.61,1.23,1.43,0.8,2.2,0.86c0.24,0.01,0.5,0.04,0.75,0.08l0.19,0.04
			c0.06,0.01,0.11,0.03,0.18,0.04c0.06,0.01,0.13,0.03,0.18,0.05c0.25,0.08,0.48,0.18,0.63,0.33c0.06,0.06,0.11,0.11,0.15,0.19
			c0.04,0.06,0.06,0.13,0.09,0.2c0.02,0.08,0.04,0.16,0.04,0.25c0,0.04,0,0.08-0.01,0.11c0,0.05,0,0.1-0.01,0.15
			c-0.3,1.43,0.01,2.23,0.86,3.34C20.02,30.26,19.1,31.13,18.03,31.15z"/>
		<path d="M54.33,19.14h-0.05c-2.15,0.23-4.29,0.38-6.42,0.49c-2.29,0.11-4.55,0.18-6.83,0.23h-0.33c-1.28,0.01-2.56,0.04-3.84,0.06
			c-2.91,0.03-5.8,0.05-8.69,0.14c-1.85,0.05-3.7,0.13-5.54,0.24c-2.03-0.88-3.49-2.38-4.92-4.03c-2.51-2.89-5.23-5.62-7.87-8.4
			c0.69-0.58,1.4-1.1,2.13-1.58c2.46-1.66,5.17-2.83,8.07-3.56c0.38-0.1,0.76-0.19,1.15-0.28c0.39,0.43,0.8,0.4,1.24,0.08
			c1.9,0.05,3.5-1.1,5.38-1.39c2.63-0.39,5.12,0.23,7.67,0.2c0.01,0,0.01,0,0.03,0h0.01c1.73,0,3.28,0.96,4.54,1.93
			c0.1,0.08,0.21,0.15,0.31,0.24c2.89,2.13,6.05,3.98,8.42,6.72c2.13,2.49,3.75,5.33,5.33,8.49C54.18,18.84,54.26,18.99,54.33,19.14
			z"/>
		<path class="st1" d="M13.56,32.42c-1.12,0.34-1.44,1.21-1.9,1.94c-0.53,0.83-1.29,1.31-2.27,1.07c-1.04-0.26-0.93-1.18-0.85-1.97
			c0.08-0.74-0.2-0.88-0.88-1.15c-1.63-0.64-1.7-1.28-0.52-2.55c0.13-0.15,0.28-0.3,0.45-0.39c1.24-0.63,1.28-1.3,0.62-2.58
			c-0.84-1.62-0.09-2.45,1.74-1.92c1.07,0.31,1.16-0.2,1.48-0.8c1.17-2.19,1.69-2.32,2.73-0.25c0.62,1.23,1.42,0.8,2.2,0.86
			c1.05,0.08,2.41,0.24,2.17,1.43c-0.29,1.43,0.01,2.23,0.87,3.34c0.63,0.82-0.28,1.69-1.35,1.7c-1.03,0.02-1.14,0.49-0.92,1.31
			c0.1,0.38,0.18,0.78,0.19,1.18c0.01,0.95-0.62,1.44-1.42,1.69c-0.9,0.29-1.24-0.39-1.54-1.04C14.05,33.69,13.82,33.07,13.56,32.42
			z"/>
	</g>
</g>
</svg>
