<?xml version="1.0" encoding="UTF-8"?><svg id="Layer_1" xmlns="http://www.w3.org/2000/svg" viewBox="0 0 60 60"><defs><style>.cls-1{fill:red;}</style></defs><path d="M29.47,40.79c-.07,.55-.15,1.03-.21,1.36h0c-.1,.09-.11,.26-.08,.46-.02,1.61-.21,3.24-.03,4.82,.24,2.17-.9,3.97-1.27,5.96-.19,1.01-1.88,1.49-3,.83-3.52-2.09-7.11-4.01-9.95-7.16h0c-1.35-1.51-1.94-4.08-3.51-5.41-.45-.38-.94-.73-1.49-1.03-.5-.26-.79-.71-1.04-1.18-.17-.32-.86,.16-1.04-.14-1.46-2.4-3.9-4-5.04-6.68-.69-1.62-.95-2.87,.1-4.42,1.14-1.68,1.97-3.55,3.93-4.51,.35-.18,.61-.66,.79-1.06,.68-1.56,1.8-2.62,3.19-3.66,1.56-1.17,2.69-2.92,4.01-4.42,2.65-3,5.8-5.24,9.34-7.01,1.02-.51,1.72-.74,2.27-.65,.76,.12,1.21,.86,1.82,2.34,.95,2.33,.88,4.69,.81,7.1-.01,.46,.01,.91,.02,1.37v.08c-.07,.71-.56,5.41-.2,6.59,.38,1.27,0,7.23,0,7.23,0,0,.3,3.83,.7,5.28,.23,.82,.06,2.56-.12,3.91Z"/><path class="cls-1" d="M28.07,39.39c-.07,.55-.15,1.03-.21,1.36h0c-.1,.09-.11,.26-.08,.46-.02,1.61-.21,3.24-.03,4.82,.24,2.17-.9,3.97-1.27,5.96-.19,1.01-1.88,1.49-3,.83-3.52-2.09-7.11-4.01-9.95-7.16h0c-1.35-1.51-2.48-3.27-4.05-4.6-.45-.38-.94-.73-1.49-1.03-.5-.26-.79-.71-1.04-1.18-.17-.32-.32-.65-.5-.95-1.46-2.4-3.9-4-5.04-6.68-.69-1.62-.95-2.87,.1-4.42,1.14-1.68,1.97-3.55,3.93-4.51,.35-.18,.61-.66,.79-1.06,.68-1.56,1.8-2.62,3.19-3.66,1.56-1.17,2.69-2.92,4.01-4.42,2.65-3,5.8-5.24,9.34-7.01,1.02-.51,1.72-.74,2.27-.65,.76,.12,1.21,.86,1.82,2.34,.95,2.33,.88,4.69,.81,7.1-.01,.46,.01,.91,.02,1.37v.08c-.07,.71-.56,5.41-.2,6.59,.38,1.27,0,7.23,0,7.23,0,0,.3,3.83,.7,5.28,.23,.82,.06,2.56-.12,3.91Z"/><path d="M58.97,40.79c-.07,.55-.15,1.03-.21,1.36h0c-.1,.09-.11,.26-.08,.46-.02,1.61-.21,3.24-.03,4.82,.24,2.17-.9,3.97-1.27,5.96-.19,1.01-1.88,1.49-3,.83-3.52-2.09-7.11-4.01-9.95-7.16h0c-1.35-1.51-2.48-3.27-4.05-4.6-.45-.38-.3-1.49-.85-1.79-.5-.26-1.11-.32-1.36-.79-.17-.32-.64-.28-.82-.58-1.46-2.4-3.9-4-5.04-6.68-.69-1.62-.95-2.87,.1-4.42,1.14-1.68,1.97-3.55,3.93-4.51,.35-.18,.61-.66,.79-1.06,.68-1.56,1.8-2.62,3.19-3.66,1.56-1.17,2.69-2.92,4.01-4.42,2.65-3,5.8-5.24,9.34-7.01,1.02-.51,1.72-.74,2.27-.65,.76,.12,1.21,.86,1.82,2.34,.95,2.33,.88,4.69,.81,7.1-.01,.46,.01,.91,.02,1.37v.08c-.07,.71-.56,5.41-.2,6.59,.38,1.27,0,7.23,0,7.23,0,0,.3,3.83,.7,5.28,.23,.82,.06,2.56-.12,3.91Z"/><path class="cls-1" d="M57.56,39.39c-.07,.55-.15,1.03-.21,1.36h0c-.1,.09-.11,.26-.08,.46-.02,1.61-.21,3.24-.03,4.82,.24,2.17-.9,3.97-1.27,5.96-.19,1.01-1.88,1.49-3,.83-3.52-2.09-7.11-4.01-9.95-7.16h0c-1.35-1.51-2.48-3.27-4.05-4.6-.45-.38-.94-.73-1.49-1.03-.5-.26-.79-.71-1.04-1.18-.17-.32-.32-.65-.5-.95-1.46-2.4-3.9-4-5.04-6.68-.69-1.62-.95-2.87,.1-4.42,1.14-1.68,1.97-3.55,3.93-4.51,.35-.18,.61-.66,.79-1.06,.68-1.56,1.8-2.62,3.19-3.66,1.56-1.17,2.69-2.92,4.01-4.42,2.65-3,5.8-5.24,9.34-7.01,1.02-.51,1.72-.74,2.27-.65,.76,.12,1.21,.86,1.82,2.34,.95,2.33,.88,4.69,.81,7.1-.01,.46,.01,.91,.02,1.37v.08c-.07,.71-.56,5.41-.2,6.59,.38,1.27,0,7.23,0,7.23,0,0,.3,3.83,.7,5.28,.23,.82,.06,2.56-.12,3.91Z"/></svg>