<?xml version="1.0" encoding="utf-8"?>
<!-- Generator: Adobe Illustrator 26.3.1, SVG Export Plug-In . SVG Version: 6.00 Build 0)  -->
<svg version="1.1" id="Layer_1" xmlns="http://www.w3.org/2000/svg" xmlns:xlink="http://www.w3.org/1999/xlink" x="0px" y="0px"
	 viewBox="0 0 60 60" style="enable-background:new 0 0 60 60;" xml:space="preserve">
<style type="text/css">
	.st0{fill:#0066CC;}
	.st1{fill:#FFFFFF;}
	.st2{fill:#3399FF;}
	.st3{fill:#FF0000;}
	.st4{fill:#FF0A0A;}
	.st5{fill:#003399;}
	.st6{fill:url(#SVGID_1_);}
	.st7{fill:url(#SVGID_00000182529673131831255900000014741797732244331430_);}
	.st8{fill:url(#SVGID_00000171699143460223862810000001860487442360302246_);}
	.st9{fill:#009933;}
	.st10{fill:url(#SVGID_00000165207267116725172900000017937527210120739218_);}
	.st11{fill:url(#SVGID_00000155854896779483004900000008147829876319940758_);}
	.st12{fill:url(#SVGID_00000005982935168310879060000000399724529278083263_);}
</style>
<g>
	<path d="M58.87,31.61c-0.17-0.53-0.33-1.08-0.44-1.65C58.21,29,58.07,28,57.96,27.01c-0.07-0.7-0.25-1.55-0.51-2.48
		c-0.29-1.04-0.66-2.19-1.1-3.34h0.05c-0.07-0.15-0.15-0.3-0.21-0.44c-0.18-0.35-0.35-0.69-0.53-1.03c-0.58-1.14-1.18-2.23-1.8-3.28
		c-0.8-1.3-1.65-2.54-2.6-3.69c-0.13-0.18-0.26-0.34-0.4-0.5c-0.93-1.08-1.99-2.03-3.1-2.89c-1.71-1.35-3.56-2.54-5.32-3.83
		c-0.1-0.09-0.21-0.16-0.31-0.24c-1.15-0.88-2.54-1.75-4.09-1.9c-0.15-0.01-0.3-0.03-0.45-0.03h-0.01c-0.01,0-0.01,0-0.03,0
		c-1.64,0.01-3.25-0.23-4.89-0.3c-0.91-0.05-1.84-0.04-2.78,0.1c-1.16,0.18-2.21,0.69-3.29,1.04c-0.68,0.21-1.36,0.38-2.09,0.35
		c-0.44,0.33-0.85,0.35-1.24-0.08c-0.39,0.09-0.78,0.18-1.15,0.28c-0.38,0.1-0.75,0.2-1.11,0.31c-2.49,0.74-4.8,1.8-6.95,3.25
		c-0.73,0.48-1.44,1-2.13,1.58c-0.14,0.06-0.28,0.14-0.4,0.23h-0.01c-0.14,0.09-0.28,0.2-0.4,0.3c-0.26,0.23-0.5,0.48-0.73,0.74
		c-0.33,0.36-0.64,0.74-1,1.05c-0.06,0.06-0.13,0.13-0.19,0.18c-0.29,0.24-0.56,0.46-0.84,0.71c-0.74,0.63-1.44,1.28-2.03,2.03
		c-0.81,1-1.41,2.16-1.64,3.63c-0.01,0.18-0.04,0.35-0.05,0.54c-0.04,0.43-0.1,0.88-0.18,1.33c-0.19,1.1-0.49,2.23-0.81,3.31
		c-0.18,0.56-0.31,1.25-0.44,2.01c-0.2,1.28-0.33,2.78-0.39,4.29c-0.07,1.94-0.01,3.93,0.16,5.55c0,0.04,0.01,0.06,0.01,0.1
		c0.08,0.79,0.19,1.49,0.34,2.06c0.24,0.9,0.5,1.78,0.8,2.63c0.46,1.36,1.01,2.68,1.66,3.94c0.58,1.14,1.23,2.24,1.96,3.28
		c0.86,1.23,2.19,1.54,3.28,2.6c0.56,0.55,0.8,1.91,1.42,2.43c0.43,0.86,1.01,1.54,1.69,2.06c0.94,0.79,2.05,1.33,3.21,1.83
		c1.46,0.63,2.94,1.03,4.47,1.3c1.29,0.24,2.59,0.39,3.94,0.53c0.41,0.04,0.81,0.09,1.23,0.11c0.84,0.09,1.68,0.16,2.5,0.21
		c1.21,0.09,2.44,0.14,3.65,0.11c0.29-0.01,0.58-0.03,0.86-0.04c0.48-0.03,0.95-0.06,1.43-0.11c0.88-0.09,1.75-0.2,2.61-0.38
		c1.78-0.34,3.53-0.89,5.22-1.78c1.94-1.03,3.79-2.18,5.25-3.7c0.64-0.66,1.36-1.26,2.09-1.85c1.31-1.08,2.63-2.13,3.53-3.58v-0.01
		c0.2-0.31,0.38-0.64,0.53-0.99c0.29-0.69,0.66-1.34,1.05-1.98c0.46-0.75,0.98-1.49,1.43-2.24c0.41-0.69,0.79-1.4,1.06-2.15
		c0.07-0.19,0.14-0.39,0.2-0.59c0.29-0.98,0.33-1.59-0.02-1.91c0.3-0.69,0.54-1.39,0.7-2.11C59.35,34.34,59.35,33.04,58.87,31.61z"
		/>
	<g>
		<path class="st1" d="M57.03,33.52c-0.16,0.73-0.4,1.43-0.7,2.11c0.35,0.33,0.31,0.94,0.03,1.91c-0.06,0.2-0.13,0.4-0.2,0.59
			c-0.28,0.75-0.65,1.46-1.06,2.15c-0.45,0.75-0.96,1.49-1.43,2.24c-0.39,0.64-0.76,1.29-1.05,1.98c-0.15,0.35-0.33,0.68-0.53,0.99
			v0.01c-0.9,1.45-2.21,2.5-3.53,3.58c-0.73,0.59-1.45,1.19-2.09,1.85c-1.46,1.53-3.31,2.68-5.25,3.7
			c-1.69,0.89-3.44,1.44-5.22,1.78c-0.86,0.18-1.74,0.29-2.61,0.38c-0.48,0.05-0.95,0.09-1.43,0.11c-0.29,0.01-0.58,0.03-0.86,0.04
			c-1.21,0.02-2.44-0.03-3.65-0.11c-0.83-0.05-1.66-0.13-2.5-0.21c-0.41-0.03-0.81-0.08-1.23-0.11c-1.35-0.14-2.65-0.29-3.94-0.53
			c-1.53-0.28-3-0.68-4.47-1.3c-1.16-0.5-2.28-1.04-3.21-1.83c-0.68-0.53-1.26-1.2-1.69-2.06c-0.63-0.51-1.21-1.04-1.78-1.59
			c-1.09-1.06-2.06-2.21-2.93-3.44c-0.74-1.04-1.39-2.14-1.96-3.28c-0.65-1.26-1.2-2.58-1.66-3.94c-0.3-0.85-0.56-1.73-0.8-2.63
			c-0.15-0.58-0.26-1.28-0.34-2.06c0-0.04-0.01-0.06-0.01-0.1c-0.17-1.63-0.24-3.61-0.16-5.55c0.06-1.51,0.19-3.01,0.39-4.29
			c0.13-0.76,0.26-1.45,0.44-2.01c0.33-1.09,0.63-2.21,0.81-3.31c0.08-0.45,0.14-0.9,0.18-1.33c0.01-0.19,0.04-0.36,0.05-0.54
			c0.23-1.46,0.83-2.63,1.64-3.63c0.59-0.75,1.29-1.4,2.03-2.03c0.28-0.25,0.55-0.48,0.84-0.71c0.06-0.05,0.13-0.11,0.19-0.18
			c0.36-0.31,0.68-0.69,1-1.05c0.23-0.26,0.46-0.51,0.73-0.74c0.13-0.1,0.26-0.21,0.4-0.3h0.01c0.13-0.09,0.26-0.16,0.4-0.23
			c0.69-0.58,1.4-1.1,2.13-1.58c2.15-1.45,4.47-2.51,6.95-3.25c0.36-0.11,0.74-0.21,1.11-0.31c0.38-0.1,0.76-0.19,1.15-0.28
			c0.39,0.43,0.8,0.4,1.24,0.08c0.73,0.03,1.41-0.14,2.09-0.35c1.08-0.35,2.13-0.86,3.29-1.04c0.94-0.14,1.86-0.15,2.78-0.1
			c1.64,0.08,3.25,0.31,4.89,0.3c0.01,0,0.01,0,0.03,0h0.01c0.15,0,0.3,0.01,0.45,0.03c1.55,0.15,2.94,1.03,4.09,1.9
			c0.1,0.08,0.21,0.15,0.31,0.24c1.75,1.29,3.6,2.48,5.32,3.83c1.11,0.86,2.18,1.81,3.1,2.89c0.14,0.16,0.28,0.33,0.4,0.5
			c0.95,1.15,1.8,2.39,2.6,3.69c0.63,1.05,1.23,2.14,1.8,3.28c0.17,0.34,0.35,0.68,0.53,1.03c0.06,0.14,0.14,0.29,0.21,0.44h-0.05
			c0.44,1.15,0.81,2.3,1.1,3.34c0.26,0.93,0.44,1.78,0.51,2.48c0.11,0.99,0.25,1.99,0.48,2.95c0.11,0.58,0.26,1.13,0.44,1.65
			C57.29,30.98,57.29,32.28,57.03,33.52z"/>
		<g>
			<path class="st5" d="M48.56,49.08c-0.73,0.59-1.45,1.19-2.09,1.85c-1.46,1.53-3.31,2.68-5.25,3.7c-1.69,0.89-3.44,1.44-5.22,1.78
				c0-2.7-0.18-5.65,0.06-8.57c0.23-2.76-0.54-5.53,0.21-8.43c2.01,1.53,4.27,2.69,6.03,4.52c1.51,1.55,3.65,2.21,5.2,3.73
				C48.07,48.21,48.42,48.66,48.56,49.08z"/>
			<path class="st5" d="M18.5,16.51c-2.83-2.76-5.48-5.3-8.64-7.27C9.46,8.99,9.2,8.71,9.05,8.38c0.13-0.1,0.26-0.21,0.4-0.3h0.01
				c0.13-0.09,0.26-0.16,0.4-0.23c0.69-0.58,1.4-1.1,2.13-1.58c2.15-1.45,4.47-2.51,6.95-3.25c0.07,0.38,0.11,0.88,0.16,1.54
				c0.23,2.96-0.73,5.94,0.25,8.93C19.62,14.28,19.28,15.51,18.5,16.51z"/>
			<path class="st5" d="M45.7,7.32c-2.55,3.21-6.38,5.18-9.07,8.32c-0.01,0.26-0.16,0.4-0.38,0.29c-0.09-0.04-0.04-0.34-0.04-0.51
				c0.55-4.69,0.33-9.38-0.24-14.06c1.55,0.15,2.94,1.03,4.09,1.9c0.1,0.08,0.21,0.15,0.31,0.24C42.13,4.78,43.98,5.97,45.7,7.32z"
				/>
			<path class="st3" d="M19.12,40.53c-3.34,2.65-6.63,5.39-9.76,8.29c-0.24,0.13-0.49,0.25-0.73,0.38
				c-1.09-1.06-2.06-2.21-2.93-3.44c1.6-0.71,2.4-2.43,4.13-3.04c0.48-0.16,1.19-0.45,1.63-1.16c2.08-3.48,5.43-3.29,8.79-2.99
				C20.73,39.84,19.71,40.06,19.12,40.53z"/>
			<path class="st5" d="M19.84,55.36c0.03,0.21,0.01,0.44-0.06,0.61c-1.53-0.28-3-0.68-4.47-1.3c-1.16-0.5-2.28-1.04-3.21-1.83
				c0.06-0.13,0.16-0.26,0.29-0.41c0.19-0.23,0.23-0.59,0.44-0.8c1.84-1.88,3.85-3.59,5.27-5.87c0.35-0.59,1.01-1.01,1.86-0.89
				C20.36,48.38,19.51,51.87,19.84,55.36z"/>
			<path class="st3" d="M19.11,23.43c-0.41,0.39-0.94,0.15-1.43-0.04c-1.25-0.5-2.19-1.46-3.15-2.36c-3.05-2.9-6.84-4.78-10.09-7.4
				c0-0.21-0.06-0.39-0.16-0.54c0.59-0.75,1.29-1.4,2.03-2.03c0.03,0,0.05,0.01,0.08,0.01c3.31,3.04,7.14,5.4,10.58,8.26
				c0.86,0.73,1.9,1.29,2.36,2.38C19.54,22.25,19.61,22.97,19.11,23.43z"/>
			<path class="st5" d="M12.85,23.9H1.16c0.13-0.76,0.26-1.45,0.44-2.01c0.33-1.09,0.63-2.21,0.81-3.31
				c0.08-0.45,0.14-0.9,0.18-1.33c0.01-0.19,0.04-0.36,0.05-0.54C5.68,19.53,9.4,21.35,12.85,23.9z"/>
			<path class="st5" d="M55.39,22.48c-2.29,0-4.57,0.08-6.83,0.38c-0.49,0.08-1.08,0.25-1.16-0.49c-0.04-0.44,0.4-0.63,0.83-0.66
				c1.16-1.4,2.98-1.81,4.37-2.9c0.4-0.33,0.65-0.79,1.01-1.13c0.17,0.34,0.35,0.68,0.53,1.03c0.06,0.14,0.14,0.29,0.21,0.44h-0.05
				C54.73,20.29,55.1,21.44,55.39,22.48z"/>
			<path class="st5" d="M8.87,38.27c-0.05,0.24-0.1,0.48-0.15,0.71c-1.46,1.05-2.9,2.15-4.4,3.13c-0.16,0.1-0.36,0.25-0.58,0.36
				c-0.65-1.26-1.2-2.58-1.66-3.94c0.66-0.33,1.68-0.14,2.48-0.19C6,38.27,7.42,38.3,8.87,38.27z"/>
			<path class="st5" d="M56.15,38.14c-0.28,0.75-0.65,1.46-1.06,2.15c-1.11,0.09-2.45,0.48-3.19-0.6c-0.59-0.85-1.7-0.66-2.23-1.55
				c1.74-0.93,3.53-0.45,5.29-0.31C55.41,37.87,55.93,37.82,56.15,38.14z"/>
			<path class="st3" d="M57.03,33.52c-0.18,0.01-0.34,0.03-0.51,0.05c-3.21,0.04-6.47-0.59-9.66,0.4
				c-3.46-1.34-6.93,0.68-10.37,0.01c-1.38-0.25-2.34,0.55-3.46,0.89c-0.68,0.23-1.33,0.88-1.26,1.61c0.23,2.76-1.4,5.4-0.31,8.22
				c0.53,1.39-0.44,2.8-0.34,4.25c0.14,2.16-0.07,4.32,0.09,6.47c0.05,0.61,0.01,1.11-0.1,1.51c-1.21,0.02-2.44-0.03-3.65-0.11
				c-0.83-0.05-1.66-0.13-2.5-0.21c0-0.01,0-0.01,0-0.03c0.2-4.13-0.4-8.24-0.43-12.36c-0.01-2.64-1.08-5.24-0.25-7.95
				c0.33-1.11-1.83-2.98-3.38-2.83c-4.37,0.43-8.71-0.71-13.06,0.01c-2.28,0.38-4.64-0.65-6.9,0.29c-0.17-1.63-0.24-3.61-0.16-5.55
				c3.59,0.39,7.18,0.19,10.78,0.03c3.21-0.13,6.44-0.23,9.64-0.23c2.38,0,2.35-0.53,2.7-3c0.28-2.08,0.66-4.18,0.83-6.27
				c0.39-5.14,0.09-10.28-0.1-15.41c-0.01-0.45-0.05-0.83-0.09-1.15c1.08-0.35,2.13-0.86,3.29-1.04c0.94-0.14,1.86-0.15,2.78-0.1
				c0,4.8,0,9.62,0.01,14.42c0,2.9-0.03,5.82,0.08,8.72c0.06,1.69,1.08,3.09,2.41,3.01c2.83-0.14,5.44,0.96,8.22,0.98
				c5.03,0.01,10.04,0.26,15.06-0.25c0.11,0.58,0.26,1.13,0.44,1.65C57.29,30.98,57.29,32.28,57.03,33.52z"/>
			<path class="st3" d="M51.8,14.4c-2.33,0.45-3.86,2.26-5.55,3.66c-1.31,1.06-2.75,2.04-3.79,3.49c-1.39,1.96-3.6,1.39-5.62,1.35
				c-1.13-2.75,1.15-3.78,2.69-4.62c2.76-1.49,5.13-3.36,7.17-5.64c0.78-0.86,1.48-1.18,2.5-1.94C50.15,11.86,51,13.1,51.8,14.4z"/>
			<path class="st3" d="M53.66,42.53c-0.39,0.64-0.76,1.29-1.05,1.98c-0.15,0.35-0.33,0.68-0.53,0.99c-0.24-0.13-0.53-0.3-0.86-0.53
				c-2.21-1.48-3.93-3.7-6.77-4.22c-0.86-0.16-1.64-0.68-2.25-1.19c-0.29,0.08-0.03-0.51,0-0.75c0.05-0.56,0.5-0.25,0.81-0.2
				c2.94,0.13,5.34,1.78,7.94,2.83c0.75,0.3,1.46,0.73,2.24,0.91C53.39,42.4,53.54,42.45,53.66,42.53z"/>
		</g>
	</g>
</g>
</svg>
