<?xml version="1.0" encoding="utf-8"?>
<!-- Generator: Adobe Illustrator 26.3.1, SVG Export Plug-In . SVG Version: 6.00 Build 0)  -->
<svg version="1.1" id="Layer_1" xmlns="http://www.w3.org/2000/svg" xmlns:xlink="http://www.w3.org/1999/xlink" x="0px" y="0px"
	 viewBox="0 0 60 60" style="enable-background:new 0 0 60 60;" xml:space="preserve">
<style type="text/css">
	.st0{fill:#0066CC;}
	.st1{fill:#FFFFFF;}
	.st2{fill:#3399FF;}
	.st3{fill:#FF0000;}
	.st4{fill:#FF0A0A;}
	.st5{fill:#56a7d9;}
	.st6{fill:url(#SVGID_1_);}
	.st7{fill:url(#SVGID_00000148634640581548612000000004642444193456311739_);}
	.st8{fill:url(#SVGID_00000150824344106315395970000004478270573361712278_);}
	.st9{fill:#009933;}
	.st10{fill:url(#SVGID_00000080166677170304736670000013280892659205142191_);}
	.st11{fill:url(#SVGID_00000151509423994599598710000009429819663122366119_);}
	.st12{fill:url(#SVGID_00000012447003546407537400000009135058528119689114_);}
</style>
<g>
	<g>
		<path d="M58.67,36.13c-0.28,0.77-0.49,1.55-0.46,2.38c0.04,0.98,0.02,1.87-0.88,2.6c-0.49,0.4-0.48,1.23-0.79,1.85
			c-0.98,2-1.72,4.12-3.24,5.82c-1.01,1.13-1.94,2.33-2.89,3.52c-0.28,0.35-0.76,0.22-1.06,0.56c-0.43,0.48-0.92,0.91-1.4,1.35
			c-0.26,0.24-0.48,0.47-0.89,0.58c-1.02,0.27-2.02,0.62-2.87,1.29c-0.42,0.33-0.83,0.66-1.24,0.99c-0.1-0.06-0.19-0.11-0.29-0.17
			c-1.18-0.43-1.96,0.37-2.72,0.99c-0.45,0.37-0.85,0.56-1.4,0.57c-0.86,0.02-1.71,0.07-2.53,0.38c-0.42,0.15-0.85,0.23-1.32,0.04
			c-0.29-0.11-0.71-0.17-0.96-0.05c-0.8,0.41-1.6-0.03-2.41,0.11c-0.8,0.13-1.7-0.08-2.52-0.28c-0.73-0.17-1.46-0.14-2.17-0.15
			c-0.56-0.01-1.03-0.08-1.55-0.3c-0.49-0.21-1.04-0.32-1.57-0.45c-0.95-0.23-2.04-0.24-2.73-1.13c-0.02-0.03-0.07-0.05-0.11-0.05
			c-1.47-0.01-2.6-0.98-3.92-1.41c-0.43-0.14-0.94-0.34-1.13-0.81c-0.21-0.51-0.68-0.8-1.06-0.93c-0.82-0.27-1.51-0.78-2-1.36
			c-1.09-1.3-2.52-2.23-3.5-3.64c-0.26-0.37,0.06-0.63-0.2-1.03c-0.65-1-1.58-1.82-2.02-2.96c0.05-0.19,0.01-0.31-0.22-0.3
			c-0.27-0.31-0.54-0.62-0.8-0.93c0.02-0.08,0.03-0.17,0.05-0.26c0.19-0.16,0.14-0.29,0.04-0.51c-0.35-0.73-0.86-1.4-0.78-2.28
			c0.02-0.15-0.01-0.38-0.1-0.46c-0.66-0.57-0.46-1.56-1.1-2.14c-0.11-0.09-0.23-0.33-0.18-0.43c0.62-1.36-0.43-2.72-0.02-4.08
			c0.08-0.25,0.03-0.6-0.08-0.84c-0.48-1.05-0.19-2.16-0.25-3.24c-0.03-0.47,0.14-0.99-0.31-1.36c-0.27-0.23,0.01-0.33,0.08-0.48
			c0.41-0.83,0.54-1.8,1.22-2.51c0.24-0.25,0.06-0.59-0.02-0.81c-0.17-0.48-0.2-0.92,0.01-1.38c0.29-0.16,0.23-0.5,0.39-0.73
			c1.08-0.9,1.51-2.14,1.96-3.41c0.36-1.04,1.17-1.85,1.86-2.71c0.75-0.93,1.55-1.82,2.03-2.93c0.06-0.1,0.11-0.21,0.17-0.32
			c0.25-0.26,0.5-0.51,0.75-0.77c0.22-0.2,0.51-0.34,0.46-0.72c1.32-0.77,2.37-1.89,3.57-2.8c1.11-0.85,2.11-2.02,3.66-2.18
			c0.22-0.03,0.33-0.21,0.5-0.32c0.65-0.44,1.31-0.75,2.14-0.9c0.88-0.16,1.8-0.27,2.69-0.55c0.83-0.26,1.71-0.59,2.65-0.64
			c1.09-0.05,2.17-0.31,3.27-0.3c1.13,0.01,2.27-0.32,3.4,0.25c0.55,0.27,1.2,0.14,1.82,0.07c0.37-0.05,0.76-0.17,1.08,0.04
			c0.76,0.48,1.62,0.53,2.46,0.61c1.2,0.11,2.26,0.6,3.31,1.14c0.15,0.27,0.37,0.33,0.64,0.2c0.9,0.69,1.93,1.19,2.83,1.82
			c1.02,0.72,2.38,1.11,2.99,2.35c0.08,0.16,0.26,0.19,0.37,0.28c0.55,0.51,1.39,0.75,1.51,1.64c1.01,0.59,1.47,1.7,2.34,2.42
			c0.63,0.51,1.01,1.14,1.4,1.86c0.85,1.57,1.38,3.29,2.28,4.82c0.44,0.74,0.41,1.65,0.99,2.33c0.15,0.16-0.05,0.39-0.11,0.58
			c-0.07,0.24-0.09,0.47,0.02,0.72c0.57,1.28,0.92,2.61,1.1,3.99c0.02,0.12,0.08,0.27,0.04,0.36c-0.78,1.46-0.08,2.87,0.07,4.32
			C59.14,33.99,59.04,35.09,58.67,36.13z"/>
	</g>
	<g>
		<g>
			<path class="st5" d="M56.97,30.87c-0.15-1.45-0.85-2.86-0.07-4.32c0.05-0.09-0.02-0.24-0.04-0.36c-0.17-1.38-0.52-2.72-1.1-3.99
				c-0.11-0.24-0.09-0.47-0.02-0.72c0.06-0.19,0.26-0.41,0.11-0.58c-0.58-0.67-0.56-1.58-0.99-2.33c-0.91-1.53-1.44-3.24-2.28-4.82
				c-0.39-0.73-0.77-1.35-1.4-1.86c-0.87-0.72-1.33-1.83-2.34-2.42c-0.12-0.9-0.97-1.13-1.51-1.64c-0.1-0.1-0.28-0.12-0.37-0.28
				c-0.62-1.25-1.98-1.64-2.99-2.35c-0.9-0.63-1.93-1.13-2.83-1.82c-0.27,0.13-0.49,0.07-0.64-0.2c-1.05-0.54-2.1-1.03-3.31-1.14
				c-0.84-0.08-1.7-0.13-2.46-0.61C34.39,1.23,34,1.35,33.64,1.4c-0.61,0.08-1.27,0.21-1.82-0.07c-1.12-0.57-2.26-0.24-3.4-0.25
				c-1.1-0.01-2.18,0.25-3.27,0.3c-0.95,0.05-1.83,0.38-2.65,0.64c-0.89,0.28-1.81,0.39-2.69,0.55c-0.82,0.15-1.49,0.46-2.14,0.9
				c-0.16,0.11-0.28,0.3-0.5,0.32c-1.55,0.16-2.55,1.33-3.66,2.18c-1.19,0.92-2.24,2.03-3.57,2.8C10,9.16,9.71,9.31,9.49,9.5
				c-0.25,0.26-0.5,0.51-0.75,0.77c-0.06,0.11-0.11,0.22-0.17,0.32c-0.47,1.12-1.28,2.01-2.03,2.93c-0.69,0.86-1.5,1.67-1.86,2.71
				c-0.45,1.28-0.88,2.52-1.96,3.41c-0.15,0.23-0.09,0.57-0.39,0.73c-0.21,0.46-0.18,0.9-0.01,1.38c0.08,0.22,0.26,0.56,0.02,0.81
				c-0.68,0.7-0.81,1.67-1.22,2.51c-0.08,0.15-0.36,0.26-0.08,0.48c0.45,0.37,0.28,0.89,0.31,1.36c0.07,1.08-0.23,2.18,0.25,3.24
				c0.11,0.24,0.16,0.59,0.08,0.84c-0.42,1.36,0.63,2.72,0.02,4.08c-0.05,0.1,0.07,0.33,0.18,0.43c0.64,0.58,0.44,1.57,1.1,2.14
				c0.1,0.08,0.12,0.31,0.1,0.46C3,38.99,3.51,39.67,3.86,40.39c0.1,0.22,0.15,0.35-0.04,0.51c-0.02,0.09-0.03,0.17-0.05,0.26
				c0.27,0.31,0.54,0.62,0.8,0.93c0.23-0.01,0.26,0.11,0.22,0.3c0.44,1.14,1.37,1.97,2.02,2.96c0.26,0.4-0.06,0.66,0.2,1.03
				c0.98,1.4,2.41,2.34,3.5,3.64c0.48,0.58,1.17,1.09,2,1.36c0.38,0.12,0.85,0.42,1.06,0.93c0.19,0.47,0.69,0.67,1.13,0.81
				c1.32,0.43,2.44,1.4,3.92,1.41c0.04,0,0.09,0.02,0.11,0.05c0.69,0.88,1.79,0.9,2.73,1.13c0.53,0.13,1.08,0.24,1.57,0.45
				c0.51,0.22,0.99,0.29,1.55,0.3c0.72,0.02,1.45-0.02,2.17,0.15c0.82,0.2,1.71,0.41,2.52,0.28c0.81-0.13,1.62,0.3,2.41-0.11
				c0.25-0.13,0.67-0.07,0.96,0.05c0.46,0.19,0.9,0.12,1.32-0.04c0.82-0.3,1.67-0.36,2.53-0.38c0.55-0.01,0.95-0.21,1.4-0.57
				c0.76-0.62,1.54-1.41,2.72-0.99c0.1,0.06,0.19,0.11,0.29,0.17c0.41-0.33,0.82-0.66,1.24-0.99c0.85-0.67,1.85-1.02,2.87-1.29
				c0.41-0.11,0.63-0.34,0.89-0.58c0.48-0.44,0.97-0.87,1.4-1.35c0.3-0.33,0.78-0.2,1.06-0.56c0.95-1.19,1.88-2.39,2.89-3.52
				c1.52-1.71,2.26-3.83,3.24-5.82c0.31-0.62,0.3-1.46,0.79-1.85c0.91-0.73,0.93-1.62,0.88-2.6c-0.04-0.83,0.18-1.61,0.46-2.38
				C56.98,33.03,57.08,31.93,56.97,30.87z M45.7,44.22c-0.45,1.08-1.61,1.83-2.81,1.82c-0.42-0.01-0.85-0.13-1.14-0.42
				c-0.94-0.97-2.12-1.72-2.8-2.94c-0.06-0.1-0.16-0.19-0.26-0.26c-1.37-0.96-2.55-2.13-3.64-3.38c-0.31-0.35-0.68-0.44-1.11-0.19
				c-0.14,0.08-0.3,0.13-0.44,0.22c-2.12,1.23-4.4,1.58-6.85,1.52c-1.64-0.04-3.2-0.48-4.82-0.55c-0.43-0.02-0.81-0.35-1.22-0.55
				c-2.11-1.04-3.83-2.53-5.17-4.43c-1.22-1.73-2.4-3.5-2.53-5.75c-0.03-0.64-0.25-1.28-0.17-1.89c-0.26-1.9-0.02-3.7,0.62-5.46
				c0.28-0.77,0.62-1.49,1.19-2.1c0.13-0.15,0.24-0.32,0.35-0.49c1.71-2.73,4.23-4.47,7.12-5.75c0.74-0.33,1.55-0.47,2.31-0.77
				c0.54-0.21,1.17-0.41,1.89-0.15c0.66,0.24,1.47,0.1,2.2,0.08c1.35-0.04,2.62,0.33,3.8,0.89c2.32,1.11,4.42,2.55,5.97,4.66
				c0.12,0.16,0.21,0.35,0.3,0.53c1.26,2.32,2.12,4.76,2.12,7.42c0,2.5-0.26,4.98-1.63,7.18c-0.35,0.56-0.1,0.92,0.27,1.28
				c1.04,1,2.12,1.96,3.09,3.05c0.85,0.97,1.87,1.82,2.8,2.74C46.22,41.58,46.36,42.64,45.7,44.22z"/>
			<path class="st1" d="M45.15,40.53c-0.93-0.92-1.95-1.77-2.8-2.74c-0.97-1.1-2.05-2.05-3.09-3.05c-0.38-0.36-0.62-0.72-0.27-1.28
				c1.37-2.2,1.63-4.68,1.63-7.18c-0.01-2.65-0.86-5.1-2.12-7.42c-0.09-0.18-0.18-0.37-0.3-0.53c-1.55-2.11-3.65-3.55-5.97-4.66
				c-1.18-0.56-2.45-0.93-3.8-0.89c-0.74,0.02-1.54,0.15-2.2-0.08c-0.72-0.26-1.35-0.05-1.89,0.15c-0.76,0.3-1.57,0.44-2.31,0.77
				c-2.89,1.28-5.4,3.01-7.12,5.75c-0.11,0.17-0.22,0.34-0.35,0.49c-0.57,0.61-0.91,1.33-1.19,2.1c-0.64,1.76-0.88,3.56-0.62,5.46
				c-0.08,0.62,0.14,1.26,0.17,1.89c0.12,2.25,1.3,4.01,2.53,5.75c1.34,1.91,3.06,3.4,5.17,4.43c0.41,0.2,0.79,0.54,1.22,0.55
				c1.62,0.07,3.18,0.51,4.82,0.55c2.44,0.06,4.72-0.29,6.85-1.52c0.14-0.08,0.3-0.13,0.44-0.22c0.42-0.25,0.8-0.16,1.11,0.19
				c1.1,1.25,2.27,2.42,3.64,3.38c0.1,0.07,0.2,0.15,0.26,0.26c0.68,1.21,1.86,1.97,2.8,2.94c0.28,0.29,0.72,0.42,1.14,0.42
				c1.21,0.02,2.36-0.74,2.81-1.82C46.36,42.64,46.22,41.58,45.15,40.53z M35.6,28.57c-0.22,0.87-0.58,1.7-0.72,2.59
				c-0.12,0.76-0.69,1.33-1.18,1.84c-1.57,1.66-3.29,3.04-5.82,2.76c-1.11-0.12-2.29,0.33-3.36-0.08c-1.54-0.58-3.36-0.73-4.22-2.54
				c-0.29-0.61-0.9-1.06-1.32-1.62c-0.7-0.93-0.99-1.96-1.12-3.15c-0.18-1.57,0.1-3.07,0.22-4.6c0.1-1.19,0.93-2.08,1.57-3.01
				c0.99-1.43,2.42-2.24,4.13-2.55c0.36-0.06,0.74-0.05,1.05-0.29c0.79-0.59,1.62-0.51,2.56-0.32c1.21,0.25,2.35,0.7,3.52,1.04
				c0.6,0.17,1.16,0.62,1.65,1.04c2.3,1.98,3.11,3.94,3.27,6.94C35.95,27.23,35.76,27.91,35.6,28.57z"/>
			<path class="st5" d="M35.6,28.57c-0.22,0.87-0.58,1.7-0.72,2.59c-0.12,0.76-0.69,1.33-1.18,1.84c-1.57,1.66-3.29,3.04-5.82,2.76
				c-1.11-0.12-2.29,0.33-3.36-0.08c-1.54-0.58-3.36-0.73-4.22-2.54c-0.29-0.61-0.9-1.06-1.32-1.62c-0.7-0.93-0.99-1.96-1.12-3.15
				c-0.18-1.57,0.1-3.07,0.22-4.6c0.1-1.19,0.93-2.08,1.57-3.01c0.99-1.43,2.42-2.24,4.13-2.55c0.36-0.06,0.74-0.05,1.05-0.29
				c0.79-0.59,1.62-0.51,2.56-0.32c1.21,0.25,2.35,0.7,3.52,1.04c0.6,0.17,1.16,0.62,1.65,1.04c2.3,1.98,3.11,3.94,3.27,6.94
				C35.95,27.23,35.76,27.91,35.6,28.57z"/>
		</g>
	</g>
</g>
</svg>
