<?xml version="1.0" encoding="utf-8"?>
<!-- Generator: Adobe Illustrator 26.3.1, SVG Export Plug-In . SVG Version: 6.00 Build 0)  -->
<svg version="1.1" id="Layer_1" xmlns="http://www.w3.org/2000/svg" xmlns:xlink="http://www.w3.org/1999/xlink" x="0px" y="0px"
	 viewBox="0 0 60 60" style="enable-background:new 0 0 60 60;" xml:space="preserve">
<style type="text/css">
	.st0{fill:#0066CC;}
	.st1{fill:#FFFFFF;}
	.st2{fill:#3399FF;}
	.st3{fill:#FF0000;}
	.st4{fill:#FF0A0A;}
	.st5{fill:#003399;}
	.st6{fill:url(#SVGID_1_);}
	.st7{fill:url(#SVGID_00000016769237357905337550000007492372772661609139_);}
	.st8{fill:url(#SVGID_00000148653528778264599140000011954104890438460332_);}
	.st9{fill:#009933;}
	.st10{fill:url(#SVGID_00000039844973293344150390000016533091893729109939_);}
	.st11{fill:url(#SVGID_00000112592677011519779030000001097848985507985062_);}
	.st12{fill:url(#SVGID_00000129906046602649592650000004202488622674622137_);}
</style>
<g>
	<path d="M59.02,34.3c-0.01-0.6,0.06-1.17-0.13-1.8c-0.27-0.87-0.26-1.82-0.33-2.75c-0.02-0.19,0.03-0.46,0.16-0.57
		c0.4-0.35,0.28-0.7,0.09-1.06c-0.09-0.18-0.26-0.33-0.19-0.56c0.36-1.1-0.46-1.97-0.64-2.96c-0.08-0.39-0.41-0.7-0.15-1.17
		c0.31-0.58-0.41-0.9-0.46-1.41c-0.08-0.95-0.63-1.75-1.04-2.55c-0.62-1.22-1-2.54-1.72-3.74c-0.38-0.63-0.71-1.22-1.28-1.71
		c-0.5-0.44-1.01-0.9-1.42-1.47c-0.48-0.66-1.02-1.35-1.65-1.88c-1.04-0.88-1.97-1.86-3.15-2.61c-0.86-0.54-1.82-0.89-2.59-1.51
		c-0.73-0.58-1.47-1.1-2.31-1.43c-0.68-0.27-1.27-0.79-2.02-0.82c-1.94-0.08-3.75-1.17-5.75-0.78c-0.29,0.05-0.55-0.13-0.82-0.24
		c-0.49-0.19-0.99-0.25-1.55-0.2c-1.54,0.13-3.06,0.15-4.6,0.35c-0.97,0.12-1.85,0.54-2.82,0.65c-0.52,0.07-1.07,0.25-1.63,0.34
		c-0.81,0.14-1.7,0.13-2.42,0.57c-0.76,0.47-1.44,1.04-2.4,1.04c-0.1,0-0.2,0.12-0.29,0.19c-1.07,0.71-2.05,1.55-3.08,2.31
		c-0.93,0.69-1.53,1.69-2.58,2.3c-0.55,0.31-1.23,0.81-1.53,1.44c-0.87,1.82-2.42,3.15-3.35,4.92c-0.29,0.56-0.71,0.98-0.84,1.68
		c-0.14,0.73-0.64,1.42-1.12,2.03c-0.71,0.92-1.4,1.77-0.96,3.04c0.11,0.33,0.02,0.71-0.27,1.03c-0.74,0.84-1.12,1.83-0.98,2.98
		c0.14,0.16,0.12,0.33,0.02,0.5c0.05,0.16,0.12,0.33-0.02,0.49c0.28,0.27,0.01,0.34-0.16,0.44c0.26,0.12,0.28,0.31,0.18,0.55
		c0.14,0.41,0.28,0.83-0.02,1.24c0.04,0.4,0.22,0.77,0.28,1.17c0.16,1.09,0.07,2.22,0.43,3.29c0.13,0.15,0.21,0.31,0.04,0.48
		c-0.11,1.26,0.15,2.44,0.84,3.48c0.31,0.47,0.12,0.78-0.02,1.21c-0.13,0.41,0.81,0.47,0.5,1.1c-0.16,0.33,0.18,0.48,0.4,0.64
		c0.21-0.04,0.28,0.05,0.23,0.25c-0.04,0.97,0.77,1.55,1.08,2.36c0.33,0.84,1.27,1.25,1.63,2.08c0.16,0.4,0.21,0.86,0.42,1.23
		c0.59,1,3.78,4.12,4.74,4.76c0.33,0.23,0.8,0.11,1.05,0.55c0.41,0.71,1.05,1.12,1.83,1.35c0.22,0.06,0.49,0.09,0.62,0.34
		c0.11,0.05,0.21,0.1,0.32,0.15c0.16-0.06,0.31-0.05,0.46,0.06c0.36,0.25,0.71,0.6,1.1,0.68c0.86,0.18,1.62,0.58,2.37,0.95
		c0.58,0.29,1.11,0.57,1.79,0.55c0.61-0.01,1.2,0.11,1.71,0.51c0.23,0.18,0.49,0.28,0.8,0.24c2.08-0.26,4.12,0.7,6.22,0.23
		c0.99,0.41,2-0.07,3.01,0.07c1.1,0.14,2.15-0.44,3.25-0.38c0.61,0.03,1.04-0.17,1.54-0.54c0.85-0.63,1.69-1.51,2.96-0.97
		c0.26,0.11,0.49-0.08,0.64-0.26c0.74-0.85,1.86-1.06,2.71-1.71c0.21-0.16,0.43-0.31,0.67-0.24c0.52,0.16,0.74-0.22,1.03-0.49
		c0.56-0.54,1.04-1.28,1.71-1.55c0.67-0.28,1.06-0.72,1.46-1.21c0.47-0.56,0.87-1.18,1.34-1.74c1.24-1.46,2.67-2.78,3.07-4.76
		c1.15-1.39,1.29-3.32,2.54-4.65c0.12-0.13,0.11-0.39,0.16-0.58c-0.04-0.22,0.08-0.36,0.22-0.5c-0.14-0.53-0.22-1-0.1-1.61
		C58.49,36.57,59.03,35.49,59.02,34.3z"/>
	<path class="st2" d="M56.96,32.24c-0.01-0.6,0.06-1.17-0.13-1.8c-0.27-0.87-0.26-1.82-0.33-2.75c-0.02-0.19,0.03-0.46,0.16-0.57
		c0.4-0.35,0.28-0.7,0.09-1.06c-0.09-0.18-0.26-0.33-0.19-0.56c0.36-1.1-0.46-1.97-0.64-2.96c-0.08-0.39-0.41-0.7-0.15-1.17
		c0.31-0.58-0.41-0.9-0.46-1.41c-0.08-0.95-0.63-1.75-1.04-2.55c-0.62-1.22-1-2.54-1.72-3.74c-0.38-0.63-0.71-1.22-1.28-1.71
		c-0.5-0.44-1.01-0.9-1.42-1.47c-0.48-0.66-1.02-1.35-1.65-1.88C47.16,7.73,46.22,6.75,45.04,6c-0.86-0.54-1.82-0.89-2.59-1.51
		c-0.73-0.58-1.47-1.1-2.31-1.43c-0.68-0.27-1.27-0.79-2.02-0.82c-1.94-0.08-3.75-1.17-5.75-0.78c-0.29,0.05-0.55-0.13-0.82-0.24
		c-0.49-0.19-0.99-0.25-1.55-0.2c-1.54,0.13-3.06,0.15-4.6,0.35c-0.97,0.12-1.85,0.54-2.82,0.65c-0.52,0.07-1.07,0.25-1.63,0.34
		c-0.81,0.14-1.7,0.13-2.42,0.57c-0.76,0.47-1.44,1.04-2.4,1.04c-0.1,0-0.2,0.12-0.29,0.19c-1.07,0.71-2.05,1.55-3.08,2.31
		c-0.93,0.69-1.53,1.69-2.58,2.3c-0.55,0.31-1.23,0.81-1.53,1.44c-0.87,1.82-2.42,3.15-3.35,4.92c-0.29,0.56-0.71,0.98-0.84,1.68
		c-0.14,0.73-0.64,1.42-1.12,2.03c-0.71,0.92-1.4,1.77-0.96,3.04c0.11,0.33,0.02,0.71-0.27,1.03c-0.74,0.84-1.12,1.83-0.98,2.98
		c0.14,0.16,0.12,0.33,0.02,0.5c0.05,0.16,0.12,0.33-0.02,0.49c0.28,0.27,0.01,0.34-0.16,0.44c0.26,0.12,0.28,0.31,0.18,0.55
		c0.14,0.41,0.28,0.83-0.02,1.24c0.04,0.4,0.22,0.77,0.28,1.17c0.16,1.09,0.07,2.22,0.43,3.29c0.13,0.15,0.21,0.31,0.04,0.48
		c-0.11,1.26,0.15,2.44,0.84,3.48c0.31,0.47,0.12,0.78-0.02,1.21c-0.13,0.41,0.81,0.47,0.5,1.1c-0.16,0.33,0.18,0.48,0.4,0.64
		c0.21-0.04,0.28,0.05,0.23,0.25c-0.04,0.97,0.77,1.55,1.08,2.36c0.33,0.84,1.27,1.25,1.63,2.08c0.16,0.4,0.21,0.86,0.42,1.23
		c0.59,1,3.78,4.12,4.74,4.76c0.33,0.23,0.8,0.11,1.05,0.55c0.41,0.71,1.05,1.12,1.83,1.35c0.22,0.06,0.49,0.09,0.62,0.34
		c0.11,0.05,0.21,0.1,0.32,0.15c0.16-0.06,0.31-0.05,0.46,0.06c0.36,0.25,0.71,0.6,1.1,0.68c0.86,0.18,1.62,0.58,2.37,0.95
		c0.58,0.29,1.11,0.57,1.79,0.55c0.61-0.01,1.2,0.11,1.71,0.51c0.23,0.18,0.49,0.28,0.8,0.24c2.08-0.26,4.12,0.7,6.22,0.23
		c0.99,0.41,2-0.07,3.01,0.07c1.1,0.14,2.15-0.44,3.25-0.38c0.61,0.03,1.04-0.17,1.54-0.54c0.85-0.63,1.69-1.51,2.96-0.97
		c0.26,0.11,0.49-0.08,0.64-0.26c0.74-0.85,1.86-1.06,2.71-1.71c0.21-0.16,0.43-0.31,0.67-0.24c0.52,0.16,0.74-0.22,1.03-0.49
		c0.56-0.54,1.04-1.28,1.71-1.55c0.67-0.28,1.06-0.72,1.46-1.21c0.47-0.56,0.87-1.18,1.34-1.74c1.24-1.46,2.67-2.78,3.07-4.76
		c1.15-1.39,1.29-3.32,2.54-4.65c0.12-0.13,0.11-0.39,0.16-0.58c-0.04-0.22,0.08-0.36,0.22-0.5c-0.14-0.53-0.22-1-0.1-1.61
		C56.43,34.5,56.97,33.43,56.96,32.24z M46.46,19.02c-0.17,1.23-0.62,2.42-1.6,3.1c-1.41,0.97-1.51,2.34-1.65,3.78
		c-0.09,0.93-0.01,1.88-0.29,2.79c-0.48,1.53-0.78,3.12-1.77,4.45c-0.12,0.16-0.22,0.37-0.24,0.56c-0.18,1.16-1.2,1.88-1.54,2.96
		c-1.1,0.57-1.5,1.95-2.79,2.32c-0.42,0.12-0.84,0.4-1.14,0.72c-0.9,0.98-2.16,1.42-3.21,2.15c-0.58,0.41-1.37,0.61-2.08,0.7
		c-1.11,0.14-2.12,0.64-3.21,0.79c-1.51,0.21-3,0.72-4.56,0.4c-0.32-0.07-0.68-0.09-0.98-0.01c-1.45,0.39-2.73-0.21-4.06-0.57
		c-0.83-0.22-1.63-0.5-2.44-0.78c-0.74-0.25-1.26-0.66-1.79-1.14c0.05-0.08,0.09-0.19,0.13-0.19c2.41,0.11,4.5-0.86,6.56-1.93
		c0.3-0.16,0.64-0.14,0.94-0.25c0.45-0.15,0.96-0.25,1.22-0.75c-0.18-0.3-0.52-0.23-0.76-0.3c-2.33-0.71-3.72-2.49-5.01-4.38
		c-0.25-0.37-0.13-0.63,0.33-0.64c0.45-0.01,0.9,0.09,1.34,0.11c0.44,0.02,0.87,0.24,1.46,0.06c-0.65-0.42-1.25-0.76-1.77-1.18
		c-1.05-0.83-2.15-1.58-2.98-2.66c-0.54-0.71-0.77-1.49-0.84-2.33c-0.05-0.6,0.26-0.82,0.87-0.63c0.56,0.18,1.1,0.2,1.72,0.15
		c-0.29-0.99-1.15-1.49-1.56-2.34c-0.49-1.02-0.84-2.1-1.42-3.1c-0.28-0.49-0.15-1.35,0.08-2.02c0.18-0.5,0.39-0.99,0.62-1.47
		c0.24-0.49,0.66-0.6,0.94-0.19c0.75,1.08,1.98,1.56,2.89,2.44c1.15,1.11,2.63,1.78,3.95,2.67c1.14,0.78,2.43,1.45,3.91,1.6
		c0.8,0.08,1.56,0.46,2.39,0.56c0.72,0.09,0.91,0.05,0.85-0.61c-0.15-1.76,0.71-3.22,1.31-4.75c0.29-0.76,1.08-1.21,1.72-1.73
		c0.31-0.25,0.71-0.38,0.82-0.87c0.06-0.25,1.79-0.9,2.14-0.86c0.63,0.06,1.26,0.09,1.91,0.03c0.92-0.08,1.81,0.38,2.65,0.84
		c0.73,0.4,1.45,0.89,2.36,0.87c0.97-0.03,1.79-0.52,2.65-0.85c0.19-0.07,0.33-0.25,0.52-0.34c0.21-0.1,0.42-0.29,0.68-0.1
		c0.25,0.19,0.14,0.42,0.08,0.66c-0.14,0.62-0.45,1.15-0.77,1.67c-0.11,0.18-0.22,0.35-0.31,0.53h0.01
		c0.12,0.03,0.24,0.06,0.36,0.09c0.28-0.17,0.57-0.34,0.85-0.5c0.14-0.08,0.31-0.14,0.45-0.02C46.51,18.69,46.48,18.85,46.46,19.02z
		"/>
	<path class="st1" d="M46.46,19.02c-0.17,1.23-0.62,2.42-1.6,3.1c-1.41,0.97-1.51,2.34-1.65,3.78c-0.09,0.93-0.01,1.88-0.29,2.79
		c-0.48,1.53-0.78,3.12-1.77,4.45c-0.12,0.16-0.22,0.37-0.24,0.56c-0.18,1.16-1.2,1.88-1.54,2.96c-1.1,0.57-1.5,1.95-2.79,2.32
		c-0.42,0.12-0.84,0.4-1.14,0.72c-0.9,0.98-2.16,1.42-3.21,2.15c-0.58,0.41-1.37,0.61-2.08,0.7c-1.11,0.14-2.12,0.64-3.21,0.79
		c-1.51,0.21-3,0.72-4.56,0.4c-0.32-0.07-0.68-0.09-0.98-0.01c-1.45,0.39-2.73-0.21-4.06-0.57c-0.83-0.22-1.63-0.5-2.44-0.78
		c-0.74-0.25-1.26-0.66-1.79-1.14c0.05-0.08,0.09-0.19,0.13-0.19c2.41,0.11,4.5-0.86,6.56-1.93c0.3-0.16,0.64-0.14,0.94-0.25
		c0.45-0.15,0.96-0.25,1.22-0.75c-0.18-0.3-0.52-0.23-0.76-0.3c-2.33-0.71-3.72-2.49-5.01-4.38c-0.25-0.37-0.13-0.63,0.33-0.64
		c0.45-0.01,0.9,0.09,1.34,0.11c0.44,0.02,0.87,0.24,1.46,0.06c-0.65-0.42-1.25-0.76-1.77-1.18c-1.05-0.83-2.15-1.58-2.98-2.66
		c-0.54-0.71-0.77-1.49-0.84-2.33c-0.05-0.6,0.26-0.82,0.87-0.63c0.56,0.18,1.1,0.2,1.72,0.15c-0.29-0.99-1.15-1.49-1.56-2.34
		c-0.49-1.02-0.84-2.1-1.42-3.1c-0.28-0.49-0.15-1.35,0.08-2.02c0.18-0.5,0.39-0.99,0.62-1.47c0.24-0.49,0.66-0.6,0.94-0.19
		c0.75,1.08,1.98,1.56,2.89,2.44c1.15,1.11,2.63,1.78,3.95,2.67c1.14,0.78,2.43,1.45,3.91,1.6c0.8,0.08,1.56,0.46,2.39,0.56
		c0.72,0.09,0.91,0.05,0.85-0.61c-0.15-1.76,0.71-3.22,1.31-4.75c0.29-0.76,1.08-1.21,1.72-1.73c0.31-0.25,0.71-0.38,0.82-0.87
		c0.06-0.25,1.79-0.9,2.14-0.86c0.63,0.06,1.26,0.09,1.91,0.03c0.92-0.08,1.81,0.38,2.65,0.84c0.73,0.4,1.45,0.89,2.36,0.87
		c0.97-0.03,1.79-0.52,2.65-0.85c0.19-0.07,0.33-0.25,0.52-0.34c0.21-0.1,0.42-0.29,0.68-0.1c0.25,0.19,0.14,0.42,0.08,0.66
		c-0.14,0.62-0.45,1.15-0.77,1.67c-0.11,0.18-0.22,0.35-0.31,0.53h0.01c0.12,0.03,0.24,0.06,0.36,0.09c0.28-0.17,0.57-0.34,0.85-0.5
		c0.14-0.08,0.31-0.14,0.45-0.02C46.51,18.69,46.48,18.85,46.46,19.02z"/>
</g>
</svg>
