<?xml version="1.0" encoding="utf-8"?>
<!-- Generator: Adobe Illustrator 26.3.1, SVG Export Plug-In . SVG Version: 6.00 Build 0)  -->
<svg version="1.1" id="Layer_1" xmlns="http://www.w3.org/2000/svg" xmlns:xlink="http://www.w3.org/1999/xlink" x="0px" y="0px"
	 viewBox="0 0 60 60" style="enable-background:new 0 0 60 60;" xml:space="preserve">
<style type="text/css">
	.st0{fill:#0066CC;}
	.st1{fill:#FFFFFF;}
	.st2{fill:#3399FF;}
	.st3{fill:#FF0000;}
	.st4{fill:#FF0A0A;}
	.st5{fill:#003399;}
	.st6{fill:url(#SVGID_1_);}
	.st7{fill:url(#SVGID_00000176738790547680956490000016329696621615399332_);}
	.st8{fill:url(#SVGID_00000040576570568283499600000007019463227553423274_);}
	.st9{fill:#009933;}
	.st10{fill:url(#SVGID_00000060721188382949808720000016317333982119752375_);}
	.st11{fill:url(#SVGID_00000029738533771120126860000005328762336556055184_);}
	.st12{fill:url(#SVGID_00000059993300357038557900000005114746556204815538_);}
</style>
<g>
	<path d="M5.7,42.55c-0.22-0.16-0.56-0.3-0.4-0.64c0.3-0.63-0.64-0.69-0.5-1.1c0.14-0.43,0.33-0.74,0.02-1.2
		c-0.7-1.04-0.96-2.22-0.84-3.48c0.16-0.18,0.09-0.34-0.04-0.49c-0.35-1.06-0.26-2.19-0.43-3.28c-0.06-0.41-0.24-0.77-0.28-1.18
		c0.3-0.41,0.15-0.82,0.02-1.23c0.1-0.23,0.08-0.43-0.18-0.54c0.17-0.1,0.45-0.17,0.17-0.44c0.13-0.16,0.06-0.33,0.02-0.49
		c0.1-0.17,0.12-0.34-0.02-0.5C3.09,26.83,3.47,25.84,4.21,25c0.28-0.32,0.39-0.69,0.27-1.02c-0.45-1.23,0.22-2.06,0.87-2.95
		c0.48-0.65,1.03-1.36,1.2-2.12c0.15-0.68,0.55-1.12,0.84-1.68c0.93-1.77,2.48-3.1,3.35-4.92c0.3-0.63,0.98-1.13,1.53-1.44
		c1.04-0.6,1.64-1.61,2.57-2.3c1.03-0.76,2-1.6,3.07-2.31c0.1-0.07,0.2-0.19,0.29-0.19c0.95,0,1.68-0.5,2.39-1.06
		c0.57-0.45,1.3-0.35,1.94-0.42c1.01-0.12,2.01-0.34,2.94-0.65c2.31-0.77,4.7-0.65,7.06-0.89c0.31-0.03,0.58,0.1,0.82,0.21
		c0.78,0.35,1.58,0.38,2.4,0.24c0.38-0.07,0.77-0.11,1.08,0.09c0.69,0.44,1.46,0.5,2.23,0.57c1.16,0.11,2.17,0.6,3.23,1.04
		c1.02,0.42,1.73,1.31,2.72,1.68c1.29,0.48,2.33,1.34,3.34,2.15c0.89,0.73,1.83,1.47,2.56,2.48c0.66,0.91,1.4,1.87,2.36,2.55
		c0.62,0.44,0.91,1.06,1.29,1.7c0.71,1.19,1.09,2.52,1.71,3.74c0.41,0.8,0.95,1.6,1.04,2.55c0.05,0.51,0.77,0.82,0.46,1.4
		c-0.26,0.48,0.08,0.79,0.15,1.18c0.18,0.99,1,1.86,0.65,2.96c-0.07,0.23,0.09,0.38,0.19,0.55c0.19,0.37,0.3,0.72-0.09,1.06
		c-0.13,0.11-0.18,0.38-0.16,0.57c0.08,0.92,0.06,1.88,0.34,2.74c0.2,0.63,0.13,1.2,0.14,1.8c0.01,1.19-0.52,2.26-0.75,3.4
		c-0.12,0.61-0.04,1.08,0.1,1.61c-0.14,0.14-0.26,0.28-0.22,0.5c-0.05,0.2-0.05,0.45-0.17,0.58c-1.25,1.34-1.39,3.27-2.54,4.66
		c-0.36,1.97-1.83,3.22-3,4.67c-0.18,0.22-0.3,0.5-0.49,0.7c-0.8,0.82-1.25,1.99-2.5,2.4c-0.42,0.14-0.74,0.63-1.08,0.98
		c-0.5,0.52-1.02,0.85-1.76,1.1c-0.99,0.33-2.08,0.75-2.85,1.61c-0.34,0.38-0.7,0.58-1.29,0.39c-1.06-0.34-1.81,0.47-2.5,1.03
		c-0.5,0.4-0.95,0.51-1.52,0.56c-1.77,0.18-3.54,0.51-5.32,0.49c-1.47-0.02-2.96,0.06-4.4-0.28c-0.54-0.13-1.05-0.04-1.57-0.11
		c-2.06-0.3-4.08-0.69-5.94-1.69c-0.37-0.2-0.76-0.29-1.16-0.37c-0.69-0.14-1.35-0.38-1.88-0.84c-0.49-0.43-1.13-0.48-1.69-0.7
		c-0.54-0.21-1-0.43-1.32-0.89c-0.36-0.51-0.93-0.69-1.42-1.01c-1.16-0.75-2.12-1.77-3.11-2.71c-0.76-0.72-1.5-1.62-1.79-2.74
		c-0.26-1.02-1.3-1.52-1.74-2.43c-0.39-0.81-1.1-1.48-1.16-2.45C5.98,42.59,5.91,42.51,5.7,42.55z"/>
	<path class="st0" d="M56.93,32.26c-0.01-0.6,0.06-1.17-0.14-1.8c-0.27-0.86-0.26-1.82-0.33-2.74c-0.02-0.19,0.04-0.46,0.16-0.57
		c0.4-0.34,0.28-0.69,0.09-1.07c-0.09-0.17-0.26-0.32-0.19-0.55c0.36-1.1-0.46-1.97-0.65-2.96c-0.07-0.39-0.41-0.69-0.15-1.17
		c0.31-0.58-0.41-0.9-0.46-1.4c-0.09-0.95-0.63-1.75-1.04-2.55c-0.63-1.22-1-2.54-1.71-3.74c-0.38-0.63-0.67-1.26-1.29-1.69
		c-0.97-0.68-1.71-1.65-2.37-2.56c-0.73-1-1.67-1.75-2.56-2.48c-1-0.82-2.05-1.68-3.34-2.15c-0.99-0.37-1.7-1.26-2.72-1.68
		c-1.05-0.44-2.07-0.93-3.23-1.04c-0.77-0.08-1.54-0.13-2.23-0.57c-0.31-0.2-0.7-0.16-1.08-0.1c-0.82,0.14-1.62,0.11-2.4-0.23
		C31.06,1.1,30.79,0.97,30.48,1c-2.36,0.24-4.75,0.12-7.07,0.89c-0.93,0.31-1.93,0.54-2.94,0.65c-0.64,0.08-1.37-0.02-1.94,0.42
		c-0.7,0.56-1.43,1.05-2.38,1.06c-0.1,0-0.2,0.13-0.29,0.19c-1.08,0.71-2.05,1.55-3.07,2.31c-0.94,0.68-1.53,1.69-2.57,2.3
		c-0.55,0.31-1.23,0.8-1.53,1.44c-0.86,1.82-2.41,3.15-3.34,4.91c-0.29,0.56-0.69,0.99-0.84,1.68c-0.16,0.76-0.72,1.46-1.2,2.11
		c-0.66,0.9-1.33,1.72-0.87,2.95c0.12,0.33,0.02,0.7-0.26,1.02c-0.75,0.84-1.12,1.83-0.98,2.97c0.14,0.16,0.12,0.32,0.02,0.49
		c0.05,0.16,0.12,0.33-0.02,0.49c0.28,0.27,0,0.34-0.17,0.44c0.26,0.11,0.28,0.31,0.18,0.54c0.13,0.42,0.28,0.83-0.02,1.23
		c0.05,0.41,0.22,0.77,0.28,1.18c0.17,1.09,0.08,2.22,0.43,3.28c0.13,0.15,0.21,0.31,0.04,0.49c-0.12,1.26,0.14,2.43,0.84,3.48
		c0.31,0.47,0.12,0.78-0.02,1.2c-0.14,0.41,0.8,0.47,0.5,1.1c-0.16,0.34,0.18,0.48,0.4,0.64c0.21-0.04,0.28,0.05,0.24,0.25
		c0.05,0.97,0.76,1.64,1.15,2.45c0.44,0.91,1.48,1.41,1.74,2.43c0.29,1.13,1.03,2.02,1.79,2.74c0.99,0.94,1.95,1.96,3.1,2.7
		c0.49,0.32,1.05,0.5,1.42,1.01c0.32,0.45,0.79,0.67,1.33,0.89c0.56,0.22,1.19,0.27,1.69,0.69c0.53,0.46,1.19,0.7,1.88,0.84
		c0.4,0.08,0.79,0.16,1.16,0.37c1.85,1,3.88,1.38,5.94,1.69c0.52,0.08,1.03-0.01,1.57,0.11c1.44,0.34,2.93,0.26,4.39,0.28
		c1.79,0.03,3.55-0.3,5.33-0.48c0.57-0.06,1.02-0.16,1.52-0.57c0.69-0.56,1.44-1.37,2.5-1.03c0.59,0.19,0.95-0.01,1.29-0.39
		c0.77-0.86,1.86-1.28,2.85-1.61c0.75-0.25,1.27-0.57,1.76-1.1c0.34-0.35,0.66-0.84,1.08-0.98c1.25-0.41,1.69-1.57,2.5-2.4
		c0.2-0.2,0.31-0.47,0.49-0.69c1.17-1.45,2.63-2.71,2.99-4.67c1.15-1.38,1.3-3.31,2.54-4.65c0.12-0.13,0.11-0.39,0.17-0.58
		c-0.04-0.22,0.08-0.37,0.22-0.5c-0.15-0.53-0.22-1.01-0.1-1.61C56.41,34.53,56.94,33.45,56.93,32.26z M38.85,12.5
		c-0.27,0.81,0.07,1.65-0.31,2.41c-0.19,0.38,0.16,0.7,0.2,1.07c0.07,0.68-0.08,0.92-0.75,1c-0.49,0.06-0.99,0.11-1.48,0.06
		c-1.67-0.17-2.99,0.67-4.09,1.66c-0.71,0.64-1.07,1.85-0.92,2.89c0.13,0.91,0.12,1.77,0.04,2.66c-0.09,1.01,0.3,1.36,1.31,1.12
		c0.59-0.14,1.12-0.12,1.69,0.03c0.31,0.08,0.69,0.13,0.97,0.02c0.86-0.35,1.58,0.02,2.37,0.27c0.45,0.14,0.64,0.34,0.62,0.75
		c-0.08,1.72-0.09,3.45-0.85,5.05c-0.09,0.18-0.15,0.38-0.21,0.58c-0.28,1.02-0.28,0.97-1.3,1.05c-1.27,0.11-2.53,0.27-3.8,0.26
		c-0.52,0-0.81,0.27-0.73,0.75c0.28,1.51-0.29,2.99-0.09,4.52c0.18,1.36,0.01,2.78-0.09,4.17c-0.04,0.61-0.16,1.24-0.06,1.84
		c0.27,1.58-0.1,3.18,0.21,4.76c0.17,0.91-0.22,1.22-1.14,1.28c-1.42,0.08-2.84-0.07-4.27,0.11c-1.57,0.21-2.71-1.21-2.42-2.8
		c0.04-0.24,0.12-0.49,0.1-0.73c-0.26-2.94,0.07-5.88,0.08-8.82c0.01-1.55-0.05-3.1,0.13-4.65c0.05-0.43-0.17-0.76-0.66-0.63
		c-1.5,0.37-2.98-0.22-4.49-0.03c-0.77,0.1-1.1-0.4-1.21-1.21c-0.2-1.46-0.34-2.9-0.03-4.37c0.38-1.78,0.43-1.87,2.19-2.15
		c0.24-0.04,0.48-0.12,0.73-0.13c0.49-0.03,0.98-0.01,1.48-0.01v-0.04c0.25,0,0.49-0.02,0.74,0c1.44,0.08,1.51,0.07,1.52-1.31
		c0.01-2.15,0.28-4.31-0.12-6.45c-0.1-0.53,0.15-0.98,0.34-1.41c0.34-0.78,0.8-1.5,1.18-2.26c0.24-0.47,0.52-0.83,1.1-0.85
		c0.08,0,0.16-0.04,0.23-0.09c1.29-1.08,2.96-1.26,4.45-1.86c0.75-0.3,1.49-0.44,2.22-0.04c0.38,0.21,0.78,0.13,1.07,0.04
		c1.09-0.36,2.1,0.03,3.12,0.24C38.69,11.36,39.08,11.81,38.85,12.5z"/>
	<path class="st1" d="M38.85,12.5c-0.27,0.81,0.07,1.65-0.31,2.41c-0.19,0.38,0.16,0.7,0.2,1.07c0.07,0.68-0.08,0.92-0.75,1
		c-0.49,0.06-0.99,0.11-1.48,0.06c-1.67-0.17-2.99,0.67-4.09,1.66c-0.71,0.64-1.07,1.85-0.92,2.89c0.13,0.91,0.12,1.77,0.04,2.66
		c-0.09,1.01,0.3,1.36,1.31,1.12c0.59-0.14,1.12-0.12,1.69,0.03c0.31,0.08,0.69,0.13,0.97,0.02c0.86-0.35,1.58,0.02,2.37,0.27
		c0.45,0.14,0.64,0.34,0.62,0.75c-0.08,1.72-0.09,3.45-0.85,5.05c-0.09,0.18-0.15,0.38-0.21,0.58c-0.28,1.02-0.28,0.97-1.3,1.05
		c-1.27,0.11-2.53,0.27-3.8,0.26c-0.52,0-0.81,0.27-0.73,0.75c0.28,1.51-0.29,2.99-0.09,4.52c0.18,1.36,0.01,2.78-0.09,4.17
		c-0.04,0.61-0.16,1.24-0.06,1.84c0.27,1.58-0.1,3.18,0.21,4.76c0.17,0.91-0.22,1.22-1.14,1.28c-1.42,0.08-2.84-0.07-4.27,0.11
		c-1.57,0.21-2.71-1.21-2.42-2.8c0.04-0.24,0.12-0.49,0.1-0.73c-0.26-2.94,0.07-5.88,0.08-8.82c0.01-1.55-0.05-3.1,0.13-4.65
		c0.05-0.43-0.17-0.76-0.66-0.63c-1.5,0.37-2.98-0.22-4.49-0.03c-0.77,0.1-1.1-0.4-1.21-1.21c-0.2-1.46-0.34-2.9-0.03-4.37
		c0.38-1.78,0.43-1.87,2.19-2.15c0.24-0.04,0.48-0.12,0.73-0.13c0.49-0.03,0.98-0.01,1.48-0.01v-0.04c0.25,0,0.49-0.02,0.74,0
		c1.44,0.08,1.51,0.07,1.52-1.31c0.01-2.15,0.28-4.31-0.12-6.45c-0.1-0.53,0.15-0.98,0.34-1.41c0.34-0.78,0.8-1.5,1.18-2.26
		c0.24-0.47,0.52-0.83,1.1-0.85c0.08,0,0.16-0.04,0.23-0.09c1.29-1.08,2.96-1.26,4.45-1.86c0.75-0.3,1.49-0.44,2.22-0.04
		c0.38,0.21,0.78,0.13,1.07,0.04c1.09-0.36,2.1,0.03,3.12,0.24C38.69,11.36,39.08,11.81,38.85,12.5z"/>
</g>
</svg>
