<?xml version="1.0" encoding="utf-8"?>
<!-- Generator: Adobe Illustrator 26.3.1, SVG Export Plug-In . SVG Version: 6.00 Build 0)  -->
<svg version="1.1" id="Layer_1" xmlns="http://www.w3.org/2000/svg" xmlns:xlink="http://www.w3.org/1999/xlink" x="0px" y="0px"
	 viewBox="0 0 60 60" style="enable-background:new 0 0 60 60;" xml:space="preserve">
<style type="text/css">
	.st0{fill:#0066CC;}
	.st1{fill:#FFFFFF;}
	.st2{fill:#3399FF;}
	.st3{fill:#FF0000;}
	.st4{fill:#FF0A0A;}
	.st5{fill:#003399;}
	.st6{fill:url(#SVGID_1_);}
	.st7{fill:url(#SVGID_00000008829191901643823660000010465042989741544889_);}
	.st8{fill:url(#SVGID_00000103986349970762335040000016408914543793380765_);}
	.st9{fill:#009933;}
	.st10{fill:url(#SVGID_00000098201329285366890740000005937880648161608638_);}
	.st11{fill:url(#SVGID_00000006683809079150042900000018273770491125539477_);}
	.st12{fill:url(#SVGID_00000077308192580493579560000008158660538666652304_);}
</style>
<g>
	<path d="M29.59,42.61c-0.03,1.61-0.21,3.24-0.04,4.83c0.24,2.16-0.9,3.96-1.27,5.96c-0.19,1.01-1.88,1.49-3,0.82
		c-3.52-2.09-7.11-4-9.95-7.16c-1.75-1.94-3.12-4.33-5.55-5.63c-0.83-0.45-1.09-1.39-1.54-2.14c-1.46-2.39-3.9-3.99-5.04-6.68
		c-0.69-1.61-0.95-2.87,0.1-4.42c1.14-1.67,1.97-3.54,3.93-4.51c0.35-0.17,0.61-0.66,0.78-1.06c0.69-1.56,1.81-2.62,3.19-3.66
		c1.56-1.17,2.69-2.93,4.02-4.42c2.65-3,5.79-5.24,9.34-7.01c2.44-1.21,3.05-0.86,4.08,1.68c0.95,2.34,0.89,4.7,0.82,7.1
		c-0.02,0.63,0.03,1.26,0.03,1.88c0,1.07,0.62,1.21,1.41,0.88c2.16-0.9,4.53-0.75,6.73-1.31c3.27-0.84,6.68-0.76,9.89-1.61
		c1.9-0.5,3.84-0.17,5.7-0.83c1.2-0.42,2.05,0.22,2.39,1.47c0.58,2.15,1.43,4.17,1.7,6.47c0.33,2.82,0.9,5.65,0.85,8.49
		c-0.05,2.97,0.85,5.85,0.54,8.82c-0.05,0.44-0.07,0.9-0.05,1.34c0.19,2.96-1.94,4.25-5,3.9c-2.99-0.34-5.95-0.96-8.95-1.23
		c-3.88-0.34-7.61-1.68-11.55-1.53c-1.15,0.04-1.83-1.47-3.14-1C29.62,42.03,29.53,42.25,29.59,42.61z"/>
	<path class="st3" d="M28.19,41.21c-0.03,1.61-0.21,3.24-0.04,4.83c0.24,2.16-0.9,3.96-1.27,5.96c-0.19,1.01-1.88,1.49-3,0.82
		c-3.52-2.09-7.11-4-9.95-7.16c-1.75-1.94-3.12-4.33-5.55-5.63c-0.83-0.45-1.09-1.39-1.54-2.14c-1.46-2.39-3.9-3.99-5.04-6.68
		c-0.69-1.61-0.95-2.87,0.1-4.42c1.14-1.67,1.97-3.54,3.93-4.51c0.35-0.17,0.61-0.66,0.78-1.06c0.69-1.56,1.81-2.62,3.19-3.66
		c1.56-1.17,2.69-2.93,4.02-4.42c2.65-3,5.79-5.24,9.34-7.01c2.44-1.21,3.05-0.86,4.08,1.68c0.95,2.34,0.89,4.7,0.82,7.1
		c-0.02,0.63,0.03,1.26,0.03,1.88c0,1.07,0.62,1.21,1.41,0.88c2.16-0.9,4.53-0.75,6.73-1.31c3.27-0.84,6.68-0.76,9.89-1.61
		c1.9-0.5,3.84-0.17,5.7-0.83c1.2-0.42,2.05,0.22,2.39,1.47c0.58,2.15,1.43,4.17,1.7,6.47c0.33,2.82,0.9,5.65,0.85,8.49
		c-0.05,2.97,0.85,5.85,0.54,8.82c-0.05,0.44-0.07,0.9-0.05,1.34c0.19,2.96-1.94,4.25-5,3.9c-2.99-0.34-5.95-0.96-8.95-1.23
		c-3.88-0.34-7.61-1.68-11.55-1.53c-1.15,0.04-1.83-1.47-3.14-1C28.22,40.62,28.13,40.85,28.19,41.21z"/>
</g>
</svg>
