<?xml version="1.0" encoding="utf-8"?>
<!-- Generator: Adobe Illustrator 26.3.1, SVG Export Plug-In . SVG Version: 6.00 Build 0)  -->
<svg version="1.1" id="Layer_1" xmlns="http://www.w3.org/2000/svg" xmlns:xlink="http://www.w3.org/1999/xlink" x="0px" y="0px"
	 viewBox="0 0 500 500" style="enable-background:new 0 0 500 500;" xml:space="preserve">
<style type="text/css">
	.st0{fill:#0066CC;}
	.st1{fill:#FFFFFF;}
	.st2{fill:#3399FF;}
	.st3{fill:#FF0000;}
	.st4{fill:#FF0A0A;}
	.st5{fill:#003399;}
	.st6{fill:url(#SVGID_1_);}
	.st7{fill:url(#SVGID_00000079469619375030734340000015157930588870246273_);}
	.st8{fill:url(#SVGID_00000169560268119752711410000009602384206745780627_);}
	.st9{fill:#009933;}
	.st10{fill:url(#SVGID_00000098906664859439070710000003799707804595306927_);}
	.st11{fill:url(#SVGID_00000074401368649899037690000016266258096754406281_);}
	.st12{fill:url(#SVGID_00000150061196749418836360000002984775917421095052_);}
</style>
<g>
	<g>
		<path d="M221.4,336.08l-0.01,0.96c0,0.93-0.28,1.83-0.8,2.61c0.01,0.13,0.02,0.25,0.02,0.38c0.03,0.7,0.05,1.4-0.03,2.04
			c-0.12,1.06-0.6,2.04-1.36,2.79l-3.93,3.92c-0.88,0.87-2.06,1.36-3.31,1.36l-1.1,0.02c-0.45,0-0.96-0.01-1.45-0.06
			c-0.2,0.06-0.54,0.08-0.9,0.08c-1.29,0-2.33-0.33-3.14-0.8h-0.18c-0.36,0-1.12-0.08-1.46-0.16c-0.75-0.16-1.45-0.51-2.09-1
			c-0.88-0.29-2.03-0.88-2.92-2.17c-0.13-0.14-0.31-0.28-0.48-0.43c-0.61-0.54-1.5-1.32-2.21-2.46c-0.98-0.59-1.75-1.46-2.23-2.56
			c-0.18-0.46-0.31-0.82-0.43-1.17c-0.06-0.18-0.1-0.36-0.18-0.53c-0.1-0.15-0.29-0.32-0.4-0.4c-1.7-1.08-2.4-2.58-2.76-3.41
			c-0.55-0.47-1.06-1-1.58-1.55l-0.58-0.6c-0.89-0.89-1.38-2.09-1.38-3.35v-0.3l-0.24-0.18c-1.12-0.9-2.11-2.53-2.11-3.96v-1.37
			c0.01-0.93,0.02-1.78-0.01-2.62c-0.02-0.81,0.1-1.5,0.29-2.09c-0.45-1.55-0.25-2.93-0.16-3.62c0.06-0.7,0.29-1.45,0.65-2.13
			c-0.01-0.39-0.01-0.81,0.06-1.27c0.06-0.42,0.16-0.83,0.33-1.22c0.39-0.9,0.93-1.56,1.38-2.02c0.4-1.26,1.31-2.32,2.57-2.87
			l2.61-1.17c0.61-0.27,1.26-0.4,1.91-0.4l5.49,0.01c0.95,0.02,2.03,0.43,2.87,1.01c0.69,0.21,1.22,0.51,1.6,0.77
			c1.67,0.47,2.64,1.7,3.02,2.17c0.21,0.18,0.57,0.55,0.91,0.95l0.09,0.09c1.53,0.46,2.73,1.67,3.18,3.21
			c0.07,0.07,0.15,0.14,0.23,0.2c0.75,0.66,2.02,1.76,2.73,3.51c0.27,0.3,0.52,0.6,0.83,0.83c1.35,1.06,1.93,2.28,2.24,3
			c0.7,0.76,1.13,1.74,1.22,2.77l0.62,0.62c0.05,0.05,0.28,0.31,0.32,0.36c0.82,0.88,1.51,2.3,1.51,3.5v2.15
			c0.59,1.11,0.83,2.45,0.73,3.99C221.42,334.5,221.41,335.3,221.4,336.08z"/>
		<path d="M333.38,264.7c0.37,1.51,0.16,3.07-0.62,4.54c0,1.73-0.96,3.32-2.49,4.14l-0.44,0.27c-0.7,0.44-1.66,1.03-2.94,1.31
			c-0.2,0.06-0.4,0.09-0.6,0.13c-0.89,0.53-1.95,0.87-2.88,0.87c-0.14,0-0.63-0.03-0.76-0.05h-5.84c-1.25,0-2.45-0.5-3.32-1.37
			l-1.38-1.4c-0.91-0.92-1.83-1.88-2.8-2.77c-0.31-0.28-0.6-0.59-0.87-0.91c-0.75-0.23-1.44-0.63-1.97-1.18l-0.53-0.48
			c-0.63-0.58-1.52-1.37-2.25-2.5l-0.45-0.74c-0.18-0.31-0.44-0.73-0.54-0.84c-0.95-0.77-1.55-2-1.73-3.24
			c-0.12-0.12-0.22-0.22-0.31-0.31c-0.69-0.73-1.12-1.65-1.26-2.63c-0.05-0.39-0.07-0.78-0.06-1.19c-0.66-1-0.91-2.25-0.68-3.48
			c-0.14-0.74-0.35-2.57,0.62-4.42c0.05-0.45,0.09-0.92,0.07-1.15c-0.23-2.04,0.5-3.61,0.89-4.45c0-0.02,0.01-0.05,0.02-0.06
			c0.03-1.8,1.02-3.18,2.33-4c0.16-0.28,0.36-0.54,0.59-0.81c0.9-1.03,2.19-1.61,3.55-1.61h8.47c1.14,0,2.24,0.42,3.1,1.17
			c0.28,0.23,0.53,0.5,0.78,0.75c0.01,0,0.01,0.01,0.02,0.02c2.3,0.89,3.43,2.46,3.96,3.91c0.4,0.43,0.81,0.87,1.26,1.23
			c1.03,0.89,1.55,1.89,1.82,2.58c0.52,0.45,0.96,0.92,1.34,1.32c0.17,0.21,0.36,0.4,0.57,0.59c1.25,1.15,2.02,2.42,2.31,3.79
			c0.84,0.96,1.19,1.95,1.37,2.48c1.01,1.56,1,3.1,0.99,3.89c0.03,0.7,0.05,1.3,0.02,1.87C333.57,261.45,333.78,263.13,333.38,264.7
			z"/>
		<path d="M493.06,259.89c0.38-1.04,0.81-2.4,0.86-3.77c0.04-1.84-0.76-3.39-1.33-4.48c-0.23-0.41-0.61-1.22-0.66-1.45
			c0-0.38,0.29-1.13,0.52-1.84c0.43-1.17,0.95-2.55,0.9-4.1c-0.06-1.18-0.1-2.36-0.19-3.58l-0.14-2.26
			c-0.09-1.04-0.23-2.06-0.52-3.48c-0.14-0.75-0.28-1.56-0.32-2.31c-0.11-1.36-0.43-2.64-0.77-3.73c-0.18-0.7-0.36-1.36-0.47-2.01
			c-0.04-0.86,0-1.7,0-2.5c0.05-1.18,0.05-2.36-0.04-3.44c-0.14-1.03-0.37-2.02-0.71-3.53c-0.18-0.71-0.33-1.46-0.47-2.31
			c-0.14-0.75-0.09-1.56-0.09-2.31c0-1.08,0-2.3-0.23-3.48c-0.11-0.57,0-1.32,0.09-2.12c0.09-1.18,0.23-2.49-0.05-3.91
			c-0.33-1.75-1.42-3.06-2.17-4.01c-0.33-0.41-0.9-1.07-0.94-1.31c-0.14-0.57-0.09-1.32-0.09-2.45c0.04-1.03,0.04-2.26-0.24-3.48
			c-0.15-0.57-0.15-1.33-0.15-2.21c0.05-1.13,0.05-2.46-0.32-3.78l-0.81-2.91c-0.23-0.89-0.46-1.84-0.75-2.78
			c-0.32-1.04-0.74-2.07-1.26-3.26c-0.34-0.7-0.66-1.5-0.95-2.25c-0.28-0.94-0.66-1.84-1.27-3.25c-0.33-0.7-0.61-1.42-0.94-2.26
			c-0.19-0.61-0.37-1.22-0.52-1.83l-0.1-0.38c-0.27-1.23-0.61-2.31-0.98-3.4c-0.33-0.75-0.52-1.51-0.85-2.53
			c-0.33-1.09-0.66-2.13-0.99-3.03c-0.52-1.31-1.32-2.35-2.02-3.29c-0.47-0.71-0.9-1.32-1.13-1.79l-0.9-2.26
			c-0.43-1.04-0.89-2.11-1.41-3.24c-0.47-0.95-0.99-1.9-1.6-2.92c-0.43-0.72-0.85-1.42-1.22-2.17c-0.38-0.76-0.77-1.51-1.09-2.26
			c-0.47-1.04-0.94-2.03-1.42-3.02c-0.65-1.23-1.5-2.16-2.4-3.15c-0.56-0.57-1.03-1.09-1.26-1.51c-0.29-0.48-0.43-1.32-0.52-1.93
			c-0.23-1.13-0.52-2.55-1.27-3.82c-0.66-1.17-1.51-2.17-2.31-3.1c-0.43-0.57-0.85-1.09-1.22-1.7c-0.61-0.94-1.28-1.84-2.22-3.02
			c-0.42-0.56-0.85-1.13-1.22-1.69c-0.29-0.37-0.47-1.13-0.67-1.93c-0.32-1.18-0.7-2.49-1.54-3.77c-0.48-0.66-0.9-1.32-1.33-2.07
			c-0.61-0.99-1.18-1.94-1.83-2.82l-0.8-1.13c-0.9-1.23-1.79-2.45-2.73-3.68c-0.81-1.03-1.75-1.84-2.74-2.63
			c-0.52-0.48-1.08-0.9-1.55-1.47c-0.89-1.13-1.98-1.88-3.11-2.58c-0.7-0.47-1.22-0.86-1.51-1.18c-0.23-0.24-0.47-0.99-0.75-1.8
			c-0.38-1.13-0.79-2.54-1.88-3.71c-1.33-1.47-2.64-2.97-3.96-4.29c-0.8-0.89-1.6-1.74-2.73-2.83l-1.42-1.45
			c-1.02-1.04-2.21-1.7-3.39-2.31c-0.66-0.38-1.22-0.7-1.54-1.04c-0.34-0.27-0.66-0.99-1.04-1.69c-0.57-1.09-1.18-2.36-2.26-3.3
			c-1.13-1.09-2.49-1.65-3.58-2.11c-0.67-0.29-1.37-0.57-1.69-0.86c-0.43-0.38-0.81-0.99-1.38-1.78c-0.61-0.95-1.31-2.03-2.4-2.92
			c-1.17-0.95-2.49-1.51-3.53-1.89c-0.61-0.28-1.31-0.57-1.78-0.89c-0.86-0.71-1.75-1.37-2.65-1.94l-0.56-0.42
			c-0.52-0.33-1.04-0.71-1.51-1.03c-0.32-0.29-0.8-1.04-1.18-1.65c-0.61-0.99-1.36-2.22-2.58-3.11c-1.22-0.9-2.6-1.32-3.82-1.64
			c-0.61-0.2-1.41-0.43-1.79-0.72c-0.61-0.42-1.17-0.89-1.98-1.59c-0.89-0.72-1.69-1.42-2.63-2.03c-0.57-0.38-1.09-0.75-1.6-1.13
			l-0.39-0.23c-0.93-0.72-1.88-1.38-2.82-1.99c-0.8-0.52-1.64-0.99-2.49-1.45c0,0-1.93-1.13-2.64-1.51
			c-0.57-0.34-2.45-1.51-2.45-1.51c-0.84-0.52-1.7-1.04-2.54-1.5c-1.04-0.57-2.12-1.04-3.44-1.51c-0.61-0.28-1.32-0.52-1.98-0.9
			c-0.7-0.37-1.41-0.8-2.06-1.18c-1.04-0.61-2.03-1.18-3.07-1.69c-0.47-0.24-0.99-0.66-1.97-1.41c-0.81-0.66-1.8-1.36-2.88-1.88
			c-1.55-0.72-3.2-0.72-4.33-0.72c-0.66-0.04-1.47-0.04-1.75-0.18c-0.23-0.09-0.79-0.75-1.13-1.13c-0.79-0.99-1.92-2.36-3.53-2.97
			c-1.22-0.47-2.5-0.7-3.72-0.94c-0.66-0.09-1.36-0.23-2.02-0.48c-1.04-0.41-2.12-0.75-3.25-1.08c-0.8-0.23-1.56-0.46-2.4-0.75
			c-1.04-0.32-2.12-0.61-3.44-0.93c-0.71-0.2-1.46-0.34-2.21-0.58c-1-0.32-2.03-0.57-3.44-0.8c-0.76-0.13-1.51-0.27-2.31-0.52
			c-0.76-0.23-1.51-0.51-2.3-0.79c-1.09-0.43-2.13-0.81-3.21-1.09c-0.75-0.18-1.56-0.47-2.4-0.75c-1.08-0.38-2.12-0.71-3.25-0.99
			c-0.48-0.14-1.09-0.52-1.74-0.9c-1-0.56-2.27-1.31-3.58-1.6c-0.61-0.14-1.27-0.23-2.03-0.23c-0.57,0-1.18,0.05-2.07,0.14
			c-0.47,0.04-0.94,0.09-1.46,0.09h-0.52c-0.7-0.18-1.41-0.23-2.35-0.23l-2.49,0.05c-0.48,0-0.86,0-1.04-0.05
			c-0.24-0.05-0.9-0.57-1.33-0.89c-1.07-0.85-2.4-1.89-4.19-2.17l-3.05-0.47c-0.95-0.14-1.84-0.29-3.21-0.43h-0.47
			c-1.18,0-2.22,0.24-3.15,0.48c-0.76,0.13-1.37,0.27-1.89,0.32c-0.61-0.09-1.23-0.19-1.79-0.28l-0.57-0.04
			c-1.22-0.24-2.39-0.43-3.53-0.48c-0.74-0.04-1.51-0.23-2.35-0.38c-1.22-0.23-2.35-0.41-3.82-0.51c-1.31,0-2.49,0.37-3.71,0.75
			c-0.85,0.28-1.42,0.43-1.89,0.43c-0.28,0-1.03-0.33-1.59-0.56c-1.13-0.52-2.6-1.19-4.25-1.19c-0.79,0-1.65-0.09-2.44-0.14
			c-1.04-0.09-2.08-0.19-3.44-0.19c0,0,0,0-0.05,0c-1.74,0.05-3.2,0.9-4.52,1.79c-0.43,0.29-1.04,0.66-1.42,0.71
			c-0.7,0-1.4-0.1-2.3-0.23c-0.94-0.14-1.84-0.24-2.68-0.24c-0.1,0-0.61,0.05-0.72,0.05c-1.54,0.09-3.01,0.23-4.52,0.37l-1.36,0.14
			h-0.47c-0.61,0-1.18-0.05-1.74-0.14c-0.8-0.05-1.61-0.14-2.4-0.14c-0.29,0-0.57,0.05-1.33,0.09c-1.12,0.14-2.25,0.43-3.48,0.81
			c-2.4,0.09-6.16,1.13-9.46,2.2c-0.2,0-0.38-0.04-0.57-0.04c-0.61-0.05-1.17-0.05-1.78-0.05c-0.81,0-1.47,0.05-2.03,0.15
			c-0.34,0.09-0.71,0.09-1.18,0.09l-2.26-0.04c-0.7,0-1.65,0.04-2.54,0.23c-1.23,0.29-2.36,0.79-3.49,1.31
			c-0.66,0.34-1.32,0.67-2.02,0.81c-0.8,0.23-1.65,0.32-2.45,0.43c-1.17,0.18-2.3,0.32-3.43,0.66c-1.38,0.36-2.51,1.13-3.55,1.78
			c-0.75,0.48-1.27,0.85-1.74,0.94c-0.46,0.15-1.13,0.19-2.11,0.29c-1.13,0.04-2.46,0.09-3.82,0.56c-1.31,0.43-2.44,1.13-3.39,1.74
			c-0.7,0.43-1.31,0.8-1.88,1c-1.04,0.36-2.03,0.93-3.16,1.54c-0.66,0.38-1.31,0.81-2.07,1.09c-0.1,0.04-0.37,0.1-1.03,0.1h-1.65
			c-0.81,0-2.08,0.04-3.3,0.51c-1.08,0.42-2.12,0.99-3.16,1.51l-0.51,0.29c-0.56,0.27-1.13,0.56-1.65,0.79
			c-1.37,0.61-2.5,1.51-3.25,2.17c-0.66,0.57-1.22,0.99-1.74,1.22c-0.47,0.23-1.18,0.38-2.03,0.52c-1.22,0.23-2.45,0.52-3.67,1.13
			c-1.18,0.57-2.17,1.36-3.07,2.17c-0.61,0.52-1.22,0.98-1.79,1.32c-0.7,0.38-1.45,0.7-2.26,1.03c-1.02,0.48-2.02,0.94-3.01,1.46
			c-0.75,0.42-5.04,2.97-5.04,2.97c-0.37,0.23-1.04,0.42-1.83,0.61c-1.32,0.28-2.6,0.66-3.87,1.41c-0.88,0.57-1.74,1.22-2.82,2.12
			c-0.61,0.48-1.22,0.95-1.88,1.37c-1.09,0.7-1.93,1.6-2.78,2.35c-0.52,0.52-1.04,1.08-1.7,1.51c-0.89,0.66-1.79,1.46-2.82,2.44
			c-0.52,0.48-1.04,0.95-1.61,1.38c-0.61,0.47-1.31,0.75-1.97,1.04c-0.95,0.41-2.12,0.93-3.3,1.83c-0.94,0.7-1.88,1.5-3.1,2.49
			l-1.47,1.18c-0.84,0.7-1.65,1.51-2.53,2.5c-0.52,0.52-1.04,1.07-1.65,1.64c-0.52,0.43-1.09,0.81-1.61,1.19l-0.38,0.23
			c-0.99,0.65-1.88,1.27-2.78,2.07c-0.61,0.52-1.27,1.03-1.97,1.5c-0.9,0.71-1.79,1.38-2.64,2.13c-1.32,1.26-2.63,2.53-4.19,4
			c-0.61,0.61-1.22,1.17-1.94,1.79c-0.88,0.8-1.69,1.51-2.35,2.21c-0.93,0.95-1.59,1.93-2.26,2.96c-0.41,0.62-0.8,1.27-1.31,1.84
			c-0.34,0.29-1,0.67-1.65,0.99c-1.13,0.57-2.36,1.22-3.35,2.35c-0.89,1.04-1.74,2.08-2.49,3.03l-1.27,1.5
			c-0.76,0.85-1.42,1.74-2.31,2.91c-0.47,0.61-0.94,1.24-1.37,1.8c-0.93,1.18-1.45,2.49-1.88,3.72c-0.29,0.75-0.52,1.36-0.75,1.69
			c-0.67,0.9-1.23,1.88-1.89,3.06c-0.37,0.67-0.75,1.37-1.13,1.94c-0.52,0.65-1.08,1.27-1.6,1.78c-0.85,0.9-1.64,1.75-2.36,2.74
			c-0.37,0.61-0.89,1.08-1.59,1.79c-0.71,0.75-1.56,1.6-2.21,2.64c-0.67,0.98-1.33,2.02-1.9,3.01l-1.17,1.97l-1.46,2.22
			c-0.61,0.9-1.23,1.83-1.78,2.78c-0.38,0.7-0.9,1.31-1.47,2.12c-0.7,0.89-1.36,1.83-1.88,2.73c-0.61,1.09-0.99,2.16-1.37,3.29
			c-0.23,0.71-0.47,1.46-0.84,2.17c-0.61,1.17-0.95,2.35-1.23,3.63c-0.24,0.75-0.38,1.45-0.71,2.07c-0.46,0.99-0.84,1.98-1.32,3.29
			c-0.23,0.71-0.51,1.41-0.79,2.08c-0.38,0.75-0.76,1.45-1.18,2.11c0,0-0.24,0.47-0.29,0.47c-0.47,0.9-0.94,1.75-1.31,2.6
			c-0.34,0.7-0.76,1.36-1.27,2.26c-0.62,0.98-1.19,1.93-1.6,2.97c-0.52,1.31-0.66,2.68-0.76,3.81c-0.1,0.85-0.19,1.5-0.37,2.02
			c-0.1,0.24-0.66,0.75-1.09,1.13c-0.99,0.9-2.17,2.03-2.78,3.77c-0.52,1.5-0.42,2.97-0.33,4.14c0,0.62,0.04,1.47-0.05,1.84
			c-0.09,0.33-0.66,0.94-1.04,1.46c-0.79,0.95-1.83,2.17-2.25,3.67c-0.33,1.09-0.47,2.22-0.71,3.77c-0.09,0.66-0.19,1.36-0.37,2.02
			c-0.2,0.67-0.43,1.33-0.67,1.99l-0.14,0.33c-0.47,1.18-0.84,2.2-1.13,3.33c-0.18,0.67-0.32,1.38-0.52,2.03
			c-0.32,1.23-0.65,2.45-0.89,3.63c-0.33,1.22-0.28,2.41-0.28,3.81c0.04,0.8,0.04,1.61-0.05,2.17c-0.23,1.32-0.18,2.54-0.09,3.76
			c0.04,0.86,0.09,1.61,0,2.17c-0.14,0.7-0.29,1.42-0.43,2.08l-0.14,0.7c-0.18,0.99-0.42,1.99-0.52,2.97
			c-0.09,0.51-0.42,1.22-0.75,1.98c-0.42,1.08-0.94,2.26-1.13,3.71c-0.13,0.95-0.19,1.84-0.24,2.78v0.52
			c-0.04,0.86-0.09,1.74-0.14,2.55c-0.09,0.8-0.23,1.59-0.42,2.45c-0.23,1.17-0.42,2.3-0.52,3.39c-0.1,1.56,0.33,2.92,0.67,4.14
			c0.18,0.66,0.41,1.37,0.37,1.74c0,0.57-0.24,1.27-0.52,2.22c-0.33,1.08-0.71,2.3-0.71,3.62c-0.04,0.8-0.18,1.55-0.32,2.36
			c-0.2,1.03-0.43,2.26-0.43,3.58c0,1.31,0.28,2.58,0.52,3.67c0.19,0.7,0.37,1.41,0.37,2.12l0.05,0.99c0,1.65,0.05,3.29,0.15,4.99
			c0.04,0.99,0.18,1.98,0.41,3.34c0.15,0.81,0.29,1.6,0.34,2.46c0.09,0.79,0.09,1.64,0.14,2.58c0,1.08,0.04,2.21,0.15,3.25
			c0.13,1.13,0.36,2.31,0.74,3.62c0.19,0.71,0.39,1.38,0.48,2.17c0,0.29-0.29,1.04-0.43,1.56c-0.52,1.41-0.99,2.87-0.75,4.47
			c0.23,1.65,1.09,2.97,1.93,4.19c0.18,0.29,0.79,1.09,0.84,1.32c0.1,0.61,0.06,1.32-0.05,2.26c-0.04,1.08-0.13,2.36,0.11,3.72
			c0.14,0.8,0.14,1.56,0.14,2.26c0,1.13,0,2.4,0.27,3.67c0.24,1.09,0.52,2.12,0.9,3.35c0.23,0.76,0.48,1.51,0.71,2.4
			c0.38,1.55,1.22,2.68,2.03,3.72c0.37,0.52,0.84,1.18,0.93,1.56c0.15,0.37,0.05,1.13,0,1.97c-0.09,1.13-0.23,2.6,0.24,4.05
			c0.23,0.81,0.37,1.56,0.57,2.5c0.23,1.13,0.47,2.22,0.79,3.24c0.38,1.18,0.95,2.22,1.56,3.35c0.38,0.61,0.75,1.27,1.04,2.08
			c0.56,1.5,1.54,2.58,2.4,3.48c0.42,0.47,0.99,1.08,1.13,1.46c0.28,0.71,0.52,1.5,0.75,2.25c0,0.06,0.19,0.52,0.19,0.52
			c0.28,0.9,0.62,1.8,0.98,2.74c0.15,0.33,0.2,1.08,0.25,1.78c0.04,1.33,0.09,2.74,0.7,4.1c0.52,1.28,1.27,2.26,2.02,3.3
			c0.52,0.66,0.95,1.23,1.19,1.69c0.18,0.52,0.32,1.18,0.46,2.03c0.19,1.32,0.43,2.59,1.08,3.87c0.72,1.36,1.79,2.4,2.69,3.19
			c0.47,0.48,0.99,0.99,1.18,1.38c0.38,0.7,0.75,1.4,1.08,2.16l0.19,0.42c0.42,0.94,0.85,1.83,1.32,2.64
			c0.23,0.47,0.42,1.22,0.57,1.93c0.23,1.17,0.52,2.5,1.27,3.77c0.61,1.13,1.4,2.02,2.21,3.01c0,0,0.8,0.94,0.89,1.04
			c0.2,0.23,0.33,0.47,0.52,0.75c0.38,0.61,0.66,1.22,0.99,2.03c0.43,0.99,0.95,2.17,1.65,3.15c0.8,1.32,1.97,2.21,2.96,2.91
			c0.66,0.52,1.18,0.95,1.42,1.28c0.28,0.37,0.46,0.75,0.66,1.09l0.61,1.18c0.57,0.98,1.09,1.97,1.7,2.87
			c0.37,0.47,0.65,1.17,0.99,1.97c0.46,1.04,0.93,2.21,1.68,3.16c1,1.36,2.37,2.17,3.54,2.78c0.42,0.23,1.18,0.66,1.46,0.98
			c0.33,0.38,0.56,1.04,0.9,1.8c0.47,1.07,0.99,2.35,1.92,3.48c0.43,0.52,0.81,0.98,1.23,1.5l0.56,0.72
			c0.61,0.79,1.22,1.59,1.99,2.4c0.51,0.56,0.99,1.17,1.65,2.06c0.65,0.9,1.31,1.7,2.01,2.51c1.13,1.17,2.55,1.74,3.87,2.26
			c0.47,0.18,1.31,0.52,1.46,0.65c0.57,0.57,0.94,1.18,1.46,1.88c0.61,0.9,1.32,1.94,2.26,2.78c0.56,0.57,1.13,1.18,1.69,1.79
			c0,0,0.29,0.34,0.34,0.34c0.65,0.75,1.36,1.45,2.06,2.12c0.38,0.32,1.74,1.69,1.74,1.69c0.81,0.8,1.61,1.6,2.51,2.4
			c0.84,0.71,1.78,1.41,2.78,2.07c0.65,0.42,1.31,0.85,1.92,1.37c0.8,0.7,1.79,1.32,2.97,2.06c0.61,0.39,1.28,0.77,1.89,1.29
			c0.37,0.32,0.84,1.02,1.22,1.69c0.61,0.94,1.36,2.11,2.59,3.06l1.64,1.31c1,0.81,1.99,1.56,2.97,2.26
			c0.99,0.76,2.08,1.47,3.07,2.13l1.79,1.17c1.17,0.86,2.44,1.22,3.86,1.61c0.66,0.18,1.36,0.38,1.79,0.65
			c0.37,0.23,0.79,0.75,1.31,1.41c0.76,0.9,1.65,1.98,2.92,2.78c1.28,0.81,2.69,1.13,3.86,1.42c0.71,0.18,1.42,0.38,1.84,0.61
			c0.7,0.43,1.32,0.9,2.03,1.45c0.93,0.72,1.83,1.42,2.73,1.9c0.52,0.27,1.03,0.61,1.5,0.88c0.14,0.15,0.29,0.25,0.43,0.29
			c0.33,0.23,0.56,0.34,0.56,0.34c0.86,0.55,1.7,1.07,2.64,1.59l1.27,0.67c1.32,0.7,2.59,1.36,3.96,2.02
			c1.36,0.65,2.83,0.79,4.09,0.94c0.52,0,1.37,0.09,1.75,0.23c0.7,0.38,1.36,0.8,1.98,1.22c1.08,0.71,2.07,1.32,3.1,1.79
			c0.34,0.15,0.9,0.72,1.36,1.13c0.95,0.99,1.99,1.99,3.59,2.69c0.8,0.29,1.65,0.43,2.72,0.43c0.52,0,1.09-0.05,1.85-0.09
			c0.32-0.05,0.66-0.1,0.98-0.1c0.38,0,0.47,0.05,0.52,0.1c0.38,0.13,0.94,0.56,1.51,1.02c0.85,0.72,2.03,1.65,3.53,2.17
			c1.04,0.38,2.21,0.61,3.48,0.85c0.76,0.1,1.51,0.23,2.22,0.48c1.37,0.46,2.73,0.56,3.77,0.61c0.8,0.04,1.6,0.14,2.12,0.28
			c0.71,0.18,1.46,0.47,2.16,0.7c1.18,0.43,2.26,0.81,3.44,1.13c0.33,0.1,0.99,0.56,1.6,0.99c0.99,0.75,2.17,1.56,3.73,1.98
			c0.79,0.19,1.55,0.42,2.35,0.71c1.13,0.37,2.21,0.75,3.01,0.89c0.7,0.19,1.46,0.28,2.35,0.28c0.47,0,0.95-0.04,1.42-0.04
			c0.05,0,0.57-0.05,0.57-0.05c0.37-0.04,0.79-0.09,1.22-0.09c0.23,0,0.47,0.05,0.66,0.09c0.56,0.09,1.17,0.37,2.03,0.8
			c0.98,0.52,2.21,1.13,3.34,1.27c0.37,0.1,1.18,0.19,1.5,0.19c1.04,0,1.98-0.24,2.97-0.42c0.51-0.1,1.03-0.23,1.69-0.23
			c0.06,0,0.06,0,0.09,0c0.48,0.09,1.19,0.46,1.76,0.75c0.98,0.51,2.35,1.22,4.18,1.45c0.14,0,0.71,0.05,0.85,0.05
			c0.76,0,1.51-0.1,2.31-0.24c0,0,0.23,0,0.62-0.09v0.05c0.46-0.09,0.93-0.14,1.74-0.14c0.09,0,0.93,0.05,1.08,0.05
			c0.84,0,1.69-0.14,2.87-0.29c0.57-0.09,1.23-0.23,2.11-0.23c0.62,0.04,1.28,0.23,2.17,0.56c1.09,0.28,2.31,0.66,3.68,0.71
			c0.8,0.04,1.55,0.19,2.72,0.42c1.09,0.19,2.13,0.33,3.17,0.33l2.26,0.1c1.17,0.05,2.39,0.09,3.57,0.09c1.47,0,2.83-0.43,3.91-0.75
			c0.8-0.24,1.47-0.42,1.99-0.47c0.41,0,1.13,0.28,1.68,0.47c1.13,0.42,2.5,0.89,3.91,0.89h0.29c1.5-0.09,2.82-0.57,3.91-0.95
			c0.75-0.27,1.45-0.56,1.88-0.61c1.31-0.04,2.49-0.46,3.82-0.89c0.7-0.28,1.4-0.51,2.06-0.56c0.76-0.09,1.56-0.14,2.37-0.24
			c1.07-0.05,2.2-0.14,3.38-0.28c0.28,0,1.13,0.32,1.6,0.52c0.99,0.37,2.26,0.84,3.63,0.84c0.23,0,0.52-0.04,0.8-0.09
			c1.04-0.09,2.07-0.32,3.1-0.52l0.47-0.09c0.77-0.19,1.47-0.34,2.41-0.47c0.94-0.19,1.88-0.48,3.34-0.95
			c0.71-0.23,1.42-0.51,2.21-0.66c1.56-0.32,2.78-1.13,3.91-1.83c0.57-0.37,1.23-0.75,1.65-0.84c0.38,0,0.95,0.13,1.98,0.37
			c0.76,0.14,1.55,0.33,2.5,0.33c0.38,0,1.22-0.09,1.6-0.19c1.6-0.42,2.83-1.46,3.87-2.3c0.41-0.34,1.07-0.9,1.31-0.99l2.54-0.66
			c1.04-0.24,2.07-0.52,3.07-0.85l2.35-0.66c1.13-0.28,2.21-0.61,3.3-0.95c0.56-0.18,1.31-0.28,2.31-0.37
			c1.08-0.09,2.26-0.24,3.62-0.67c0.7-0.27,1.46-0.5,2.17-0.75c1.08-0.32,2.21-0.7,3.34-1.13l2.16-0.79
			c1.14-0.38,2.26-0.81,3.25-1.23l1.56-0.61c1.31-0.52,2.69-1.08,3.91-1.65c0.75-0.28,1.5-0.61,2.3-0.9
			c1.13-0.38,2.22-0.79,3.2-1.26c0.57-0.25,1.18-0.48,1.75-0.71l0.61-0.24c1.13-0.42,2.16-0.8,3.11-1.27
			c1.22-0.61,2.17-1.46,3.2-2.35c0.62-0.61,1.09-1.04,1.61-1.32c0.65-0.38,1.31-0.67,2.2-1.13c0.99-0.52,1.98-0.99,2.92-1.55
			c0.71-0.34,1.42-0.66,2.21-1.04c1.13-0.48,2.22-0.99,3.12-1.51c1.22-0.71,2.12-1.65,3.01-2.63c0.52-0.61,1.04-1.13,1.42-1.42
			c0.37-0.19,1.08-0.37,2.15-0.66c1.09-0.28,2.31-0.61,3.59-1.45c1.27-0.86,2.07-2.03,2.78-3.12c0.37-0.52,0.84-1.22,1.07-1.41
			c0.38-0.28,1.24-0.47,1.9-0.66c1.17-0.33,2.53-0.66,3.76-1.55c1.03-0.76,1.78-1.6,2.64-2.55c0.52-0.56,1.04-1.13,1.69-1.65
			c0.38-0.32,1.84-1.41,1.84-1.41c0.94-0.65,1.89-1.37,2.73-2.07c0.61-0.52,1.32-0.84,1.98-1.18c1.08-0.61,2.07-1.17,3.11-2.02
			c1.04-0.9,1.78-1.93,2.44-2.93c0.48-0.7,0.9-1.27,1.33-1.68c0.28-0.24,0.98-0.52,1.65-0.81c1.07-0.42,2.49-0.94,3.67-2.06
			c0.94-0.86,1.6-1.89,2.3-2.93c0.48-0.71,0.9-1.32,1.27-1.74l0.71-0.66c1.18-1.13,2.36-2.31,3.54-3.49
			c0.56-0.56,1.17-1.08,1.83-1.6c0.94-0.79,1.79-1.51,2.58-2.35c0.9-0.99,1.56-2.12,2.08-3.1c0.43-0.77,0.75-1.42,1.13-1.85
			c0.57-0.61,1.13-1.18,1.74-1.74c0.86-0.84,1.65-1.65,2.4-2.54c0.9-1.08,1.47-2.31,1.99-3.44c0.27-0.71,0.56-1.32,0.88-1.69
			l1.28-1.61l3.72-4.7c0.7-0.95,1.46-1.94,2.17-2.92c0.18-0.2,0.94-0.57,1.51-0.85c1.13-0.61,2.58-1.36,3.57-2.78
			c0.33-0.52,0.71-1.09,1.04-1.7c1.36-1.79,2.45-3.86,2.63-4.28c0.05-0.04,0.05-0.09,0.05-0.09c0.15-0.2,0.24-0.38,0.38-0.57
			l0.47-0.62c0.66-0.89,1.27-1.74,1.84-2.67l1.36-2.08c0.62-0.95,1.23-1.93,1.8-2.87c0.56-0.95,1.02-1.98,1.65-3.39
			c0.27-0.62,0.56-1.27,0.93-1.84c0.43-0.75,0.85-1.42,1.27-2.12c0.56-0.84,1.08-1.65,1.65-2.58c0,0,0.15-0.29,0.19-0.39
			c0.75-1.4,0.89-2.91,1.03-4.14c0.06-0.61,0.1-1.41,0.29-1.78c0.29-0.57,0.8-1.13,1.27-1.7c0.81-0.99,1.6-1.94,2.07-2.98
			c0.24-0.46,0.43-0.93,0.57-1.49c0.23-0.77,0.37-1.61,0.47-2.36c0,0,0.1-0.67,0.1-0.71c0.13-0.66,0.23-1.13,0.38-1.46
			c0.18-0.47,0.61-1.03,1.13-1.69c0.84-0.99,1.59-2.03,2.11-3.3c0.29-0.7,0.71-1.36,1.13-1.97c0.56-0.95,1.22-2.03,1.69-3.26
			l0.25-0.61c0.61-1.6,1.22-3.25,1.83-4.9c0.32-1.04,0.61-2.06,0.93-3.48c0.2-0.71,0.38-1.47,0.67-2.26
			c0.33-1.04,0.52-2.22,0.66-3.4c0.14-0.79,0.23-1.55,0.47-2.35c0.28-1.04,0.46-2.17,0.61-3.62c0.1-0.72,0.19-1.47,0.37-2.21
			c0.29-1.09,0.52-2.17,0.86-3.49l0.52-2.17c0.09-0.42,0.61-1.08,0.99-1.69c0.66-0.99,1.5-2.22,1.83-3.73
			c0.28-1.08,0.37-2.21,0.52-3.44c0.09-0.79,0.14-1.6,0.32-2.39c0.25-1.23,0.2-2.4,0.2-3.72c-0.06-0.76-0.1-1.46,0.05-2.17
			c0.09-0.56,0.41-1.27,0.79-1.98c0.48-1.09,1.04-2.26,1.27-3.76c0.2-1.51-0.18-2.98-0.56-4.29c-0.14-0.48-0.37-1.36-0.33-1.74
			c0.05-0.43,0.28-1.09,0.61-1.84c0.57-1.22,1.04-2.44,1.13-3.77c0.14-1.18,0.19-2.35,0.24-3.48c0-0.85,0.04-1.65,0.09-2.45
			c0.09-1.04,0.04-2.12,0-3.39c-0.05-0.85-0.09-1.7-0.05-2.5C492.59,261.41,492.83,260.68,493.06,259.89z M372.79,209.87
			c-0.04,0.14-0.14,0.29-0.14,0.34c-0.1,0.18-0.19,0.41-0.24,0.61c-0.43,0.23-0.79,0.47-1.27,0.84c-0.23,0.2-0.7,0.66-0.9,0.9
			c-0.27,0.37-0.52,0.75-0.7,1.18c-0.09,0.18-0.23,0.61-0.23,0.61c-0.29,0.7-0.43,1.45-0.38,2.4c-0.09,0.18-0.14,0.33-0.23,0.52
			c-0.15,0.18-0.29,0.42-0.43,0.66c-0.43,0.28-0.8,0.61-1.13,0.99c-0.43,0.52-0.99,1.36-1.22,2.68c-0.05,0.14-0.05,0.28-0.05,0.42
			c-0.1,0.1-0.15,0.24-0.19,0.33c-0.14,0.19-0.24,0.43-0.33,0.66c-0.19,0.24-0.42,0.57-0.76,1.04c-0.04,0.05-0.04,0.05-0.04,0.05
			c-1.18,0.23-2.31,0.94-3.02,1.92c-0.38,0.38-1.08,0.99-1.64,1.94c-0.43-0.43-1-0.95-1.65-1.37c-0.14-0.23-0.28-0.42-0.48-0.66
			c-0.5-0.61-1.13-1.22-1.59-1.7c-0.29-0.27-0.52-0.51-0.9-0.79c-0.7-0.57-1.83-1.47-3.53-2.12c-0.38-0.43-0.85-0.8-1.31-1.09
			c-0.38-0.18-0.72-0.32-1.04-0.47c-0.76-0.66-1.51-1.07-2.12-1.45c-0.23-0.14-0.52-0.25-0.66-0.38c-0.47-0.62-1.04-1.09-1.74-1.56
			c-0.38-0.28-0.75-0.51-1.09-0.66c-0.79-0.41-1.74-0.75-2.64-1.08c-0.28-0.1-0.56-0.19-0.56-0.19c-0.19-0.04-0.33-0.09-0.52-0.14
			c-0.05-0.09-0.57-0.61-0.57-0.61c-0.32-0.38-0.66-0.7-1.02-1.04c-0.43-0.38-0.95-0.75-1.85-1.22c-1.5-0.85-3.2-1.79-5.09-2.4
			c-1.69-0.52-3.24-1.32-4.61-2.07c-0.98-0.62-2.02-0.75-2.78-0.8c-0.98-0.9-2.22-1.42-3.53-1.51c-0.37-0.19-0.8-0.38-1.18-0.47
			c0.14-0.14,0.29-0.34,0.43-0.48c0.61-0.27,1.6-0.75,2.4-1.6c0.05-0.05,0.38-0.18,0.43-0.23c0.18-0.09,0.47-0.23,0.65-0.38
			c0,0,0.57-0.23,0.66-0.28c0.61-0.24,1.13-0.56,1.42-0.76c0.14-0.09,0.32-0.23,0.46-0.37c1.04-0.18,1.8-0.66,2.32-1.04
			c0.93-0.27,1.83-0.84,2.44-1.51c0.71-0.75,1.09-1.17,1.09-1.27c0.14-0.04,0.37-0.09,0.61-0.18c1.08-0.29,1.93-0.85,2.49-1.27
			c0.05-0.06,0.09-0.06,0.14-0.1c2.73-0.51,4.29-2.5,5.09-3.49c0.15-0.18,0.29-0.32,0.38-0.46c0.04-0.06,0.09-0.1,0.14-0.15
			c0.24-0.14,0.47-0.23,1.03-0.52c0.1-0.04,1.13-0.61,1.47-0.75c0.05,0,1.13-0.09,1.13-0.09c0.37-0.05,0.75-0.09,1.08-0.24
			c0.71-0.23,1.41-0.61,1.98-1.18c0,0,0.04-0.04,0.09-0.09c0.24-0.14,0.7-0.47,1.27-0.89c0.05,0,0.05,0,0.05-0.05
			c0.28-0.1,0.51-0.19,0.8-0.33c0.38-0.18,0.7-0.33,1.13-0.56l0.52-0.24c0.57-0.19,1.32-0.47,2.07-0.94
			c0.42-0.05,0.76-0.14,0.89-0.19c0.57-0.1,1.09-0.28,1.56-0.56c1.56-0.1,2.68-0.72,3.58-1.24c0.66-0.18,1.42-0.5,2.03-1.17
			c0.14,0,2.67,0,2.67,0c1,0,1.99-0.32,2.83-0.89c0.14,0,0.33,0.05,0.52,0.09c0.47,0.09,0.9,0.09,1.37,0.09
			c0.23,0,0.89-0.04,1.07-0.04c0.63-0.09,1.24-0.09,1.9-0.09h1.08c0.89-0.05,1.74-0.29,2.45-0.81c0.09,0.06,0.18,0.06,0.27,0.06
			c0.43,0.04,0.86,0.09,1.28,0.13c0.05,0.05,0.14,0.1,0.19,0.14c0.7,0.61,1.42,1.27,2.07,1.99v2.53c0,0.57-0.04,1.32,0.14,2.31
			c0.09,0.38,0.19,0.66,0.28,0.99c-0.09,0.23-0.14,0.52-0.19,0.8c-0.04,0.09-0.09,0.29-0.09,0.29c-0.29,1.31-0.18,2.58-0.09,3.48
			v0.05c-0.05,0.09-0.09,0.18-0.09,0.23c-0.15,0.29-0.24,0.61-0.34,0.94c-0.23,0.8-0.18,1.75,0.1,2.65
			c-0.14,0.18-0.43,0.65-0.48,0.7l-0.37,0.75c-0.09,0.24-0.19,0.47-0.24,0.66c-0.09,0.33-0.18,0.65-0.18,0.99
			c-0.48,0.84-0.71,1.6-0.75,2.31c-0.15,0.28-0.34,0.56-0.48,0.89c-0.61,0.75-1.03,1.55-1.37,2.16c0,0-0.09,0.11-0.18,0.24
			c-1.18,0.89-1.88,2.31-1.88,3.76C372.75,209.27,372.75,209.55,372.79,209.87z M108.42,308.35c0.04-0.05,0.41-0.52,0.41-0.52
			c0.25-0.38,0.48-0.75,0.72-1.13c0.14-0.23,0.28-0.52,0.51-0.8c0.71-0.47,1.28-1.13,1.65-1.94c0,0,0.04-0.04,0.1-0.04
			c0.41-0.23,0.8-0.52,1.12-0.85c0.29-0.28,0.67-0.76,0.85-1.08c0.14-0.2,0.34-0.52,0.47-0.95c0.05-0.09,1.55-1.51,2.22-2.21
			c0.52-0.57,0.93-1.22,1.13-1.97c0.56-0.52,0.98-1.09,1.36-1.84c0.14-0.29,0.29-0.67,0.38-0.99c0.28-0.43,0.52-0.85,0.71-1.27
			c0,0,0.38-0.9,0.42-1.04c0.14-0.19,0.28-0.42,0.42-0.61c0.05,0,0.05-0.04,0.1-0.04c0.37-0.11,0.84-0.29,1.27-0.52
			c0,0,0.47-0.05,0.7-0.09l0.61-0.2c0.75-0.28,1.52-0.8,2.08-1.41c0.57-0.61,0.84-1.22,0.99-1.69c0.19-0.38,0.37-0.77,0.51-1.33
			c1.51-1.27,1.89-2.87,2.03-3.48c0,0,0-0.1,0.05-0.19c0.04-0.18,0.09-0.38,0.18-0.56c0.43-0.14,0.86-0.43,1.24-0.75
			c0.36-0.2,0.75-0.38,0.98-0.52c0.15-0.09,0.52-0.38,0.65-0.48c0.67-0.47,1.24-1.08,1.65-1.74c0.05,0,0.57-0.38,0.72-0.47
			c0.89-0.7,1.54-1.6,1.97-2.83c0.09-0.09,0.24-0.27,0.43-0.42c1.22-0.09,2.35-0.61,3.19-1.55c0,0,0.61-0.71,0.67-0.76
			c0.09-0.09,1.84-1.83,1.84-1.83c0.61-0.61,0.99-1.36,1.22-2.17c0.47-0.14,0.94-0.37,1.36-0.66c0.29-0.18,0.52-0.38,0.76-0.56
			c0.14-0.1,0.23-0.19,0.28-0.24c0.24-0.24,0.47-0.42,0.7-0.65c0,0,1.09-1.13,1.13-1.18l0.2-0.2c0.14,0,0.23-0.04,0.32-0.09
			c0.57-0.23,1.13-0.66,1.56-1.08c0.52-0.52,0.84-1.09,1.08-1.56c0.05-0.09,0.14-0.37,0.14-0.37c0.38-0.19,0.7-0.38,1.13-0.66
			c0.47-0.28,0.95-0.62,1.08-0.8c0.48-0.33,0.86-0.71,1.18-1.13c0.52-0.66,1.13-1.23,1.79-1.79l0.05-0.09
			c0.51-0.2,0.94-0.38,1.17-0.57c0.29-0.18,0.76-0.56,0.99-0.81c0.25-0.23,0.48-0.46,0.66-0.7c0.09-0.05,0.9-0.75,1.22-1.04
			c1.24-0.46,2.41-1.45,3.07-3.1c0-0.05,0.05-0.05,0.05-0.05c0.23-0.09,0.47-0.24,0.66-0.33c0.09,0,0.18,0,0.18,0
			c0.72,0,3.82-0.19,5.14-3.39c1.18-0.37,2.16-1.23,2.73-2.36l0.29-0.61c0.09-0.09,0.13-0.18,0.18-0.23
			c0.18-0.15,0.38-0.24,0.99-0.52c0.71-0.29,1.74-0.71,2.78-1.6c0.05,0,0.09-0.05,0.09-0.05c0.52-0.13,1-0.33,1.5-0.56h0.76
			c1.14,0,2.22-0.38,3.06-1.13c0.2-0.14,0.34-0.29,0.47-0.43c1.32-0.18,2.74-0.84,3.73-2.35c0.61-0.05,1.22-0.23,1.88-0.57
			c0.28-0.14,0.61-0.33,0.84-0.52c0.15-0.09,0.29-0.23,0.48-0.38c0.09-0.09,0.24-0.23,0.38-0.32c0.42-0.43,0.75-0.9,0.99-1.31
			c0.14-0.11,0.46-0.34,0.46-0.34c0.43-0.33,0.81-0.7,1.13-1.18c0.15-0.09,0.81-0.51,0.85-0.51c0.1-0.05,0.48-0.24,0.57-0.28
			c0.56-0.34,1.17-0.62,1.74-0.99l0.8-0.52c0.33-0.24,0.65-0.48,0.94-0.75c2.35-0.11,3.35-0.57,6.36-2.03
			c0.65-0.34,1.42-0.57,2.17-0.8l1.92-0.67c1.47-0.52,2.46-1.08,3.21-1.88h0.05c0.7,0,2.26,0,3.72-0.79
			c0.28-0.05,0.57-0.05,1.03-0.05c0.42-0.05,0.8-0.1,1.23-0.2c0.94-0.13,1.79-0.61,2.49-1.22h3.67c1.28,0,2.6-0.66,3.54-1.65
			c0.09,0,0.19-0.04,0.28-0.04c0.33-0.05,0.7-0.14,0.7-0.14c0.38-0.09,0.95-0.29,1.33-0.48c0.05,0,0.09-0.04,0.14-0.09
			c0.18,0.05,0.33,0.05,0.42,0.05c0.33,0,0.66-0.05,0.75-0.05c0.1,0,1.04-0.04,1.04-0.04c0.33,0,1.56,0.04,1.65,0.04
			c1.5,0,2.87-0.42,4-1.22c0.23-0.09,0.52-0.2,0.71-0.29h0.61c1.74,0,3.06-0.7,3.82-1.18c0.09,0,0.47-0.23,0.56-0.23
			c0.14-0.09,0.33-0.19,0.48-0.19c0.51,0.06,0.98,0.1,1.49,0.1c0.95,0,1.79-0.19,2.46-0.42c0.42,0.13,0.75,0.18,0.84,0.18
			c0.34,0.09,0.85,0.14,1.18,0.14c0.95,0,1.83-0.28,2.6-0.75c0.04,0,0.04,0,0.09,0c0.84,0,1.55-0.14,2.17-0.38
			c0.61,0.19,1.31,0.38,2.2,0.38c1.23,0.7,2.36,0.9,3.16,0.9c0.43,0,0.85-0.05,1.22-0.15c0.09,0.24,0.14,0.52,0.05,0.85l-0.14,0.05
			c0,0-0.7,0.52-0.75,0.52h-0.29c-0.93,0-1.88,0.27-2.67,0.84c-0.34,0.2-0.63,0.47-0.86,0.67c-0.23,0.18-0.42,0.41-0.66,0.66
			l-0.13,0.13h-0.43c-1.98,0-3.63,1.18-4.34,2.88l-0.18,0.33c-0.09,0-0.23,0.05-0.34,0.05c-1.08,0.18-2.3,1.13-3.01,1.97
			c-0.33,0.38-0.65,0.81-0.9,1.18c-0.09,0.19-0.18,0.33-0.23,0.47c-0.52,0.23-1.08,0.56-1.65,1.13l-2.44,2.44
			c-0.66,0.25-1.22,0.57-1.84,1.04c-0.28,0.2-0.56,0.48-0.67,0.57c-0.27,0.29-0.56,0.56-0.7,0.7l-0.79,0.95
			c-0.14,0.09-0.48,0.23-1,0.38l-1.6,0.56c-0.18,0.05-0.57,0.23-0.75,0.28c-0.99,0.43-2.49,1.18-3.77,2.87l-0.14,0.15
			c-0.8,0.19-1.56,0.61-2.17,1.22l-0.93,0.94c-0.67,0.66-1.33,1.28-1.94,1.98c-0.14,0.05-0.61,0.23-0.75,0.33
			c-1.37,0.04-2.64,0.56-3.44,1.69c-0.14,0.09-0.33,0.2-0.47,0.29c-0.75,0.37-1.83,0.99-2.83,2.06l-0.27,0.39
			c-0.29,0.13-0.57,0.28-0.81,0.42c-1.6,0.47-3.01,1.41-4,2.74c-0.14,0.13-0.23,0.27-0.33,0.47c-0.15,0.04-0.28,0.09-0.38,0.14
			c-0.38,0.14-0.75,0.32-1.08,0.61c-0.14,0.04-0.23,0.04-0.34,0.09c-0.36,0.14-0.65,0.29-0.98,0.47c-0.71,0.1-1.37,0.28-1.98,0.61
			s-0.99,0.57-1.41,1.09c-0.29,0.23-0.52,0.43-0.52,0.43c-0.28,0.27-0.61,0.55-1.08,1.13c-0.14,0.18-0.29,0.37-0.38,0.56
			c-1.45,0.23-2.78,0.94-3.91,2.16c-0.42,0.43-0.89,0.9-1.64,1.65l-0.38,0.38c-0.33,0.28-0.66,0.66-1.04,0.89
			c-1.41,0.56-2.59,1.42-3.53,2.17c-0.47,0.38-0.85,0.76-1.27,1.17c0,0-0.76,0.81-0.8,0.86c-0.71,0.09-1.41,0.32-1.98,0.74
			c-0.38,0.25-0.76,0.48-1.13,0.66c-0.28,0.15-0.56,0.24-0.71,0.34c-1.64,0.42-3.1,1.6-3.9,3.05c-0.34,0.2-0.61,0.43-0.85,0.62
			c-1.27,0.19-2.5,0.8-3.26,1.84c-0.14,0.09-0.32,0.19-0.52,0.28c-0.41,0.23-0.84,0.47-1.22,0.75c-0.52,0.38-0.98,0.76-1.36,1.13
			c0,0,0,0-0.05,0c-0.85,0.19-1.6,0.52-2.26,0.99c-0.23,0.14-0.42,0.33-0.65,0.56c-0.05,0.05-0.15,0.14-0.25,0.24
			c-0.18,0.1-0.46,0.19-0.75,0.38c-0.33,0-1.65,0-1.65,0c-1.26,0-2.49,0.52-3.34,1.41l-0.93,0.94c-0.52,0.47-1.04,0.99-1.52,1.56
			h-0.13c-1.33,0.09-2.55,0.75-3.4,1.78l-0.38,0.48h-0.13c-0.81,0-1.56,0.18-2.27,0.56c-0.38,0.23-0.75,0.48-1.13,0.8
			c-0.28,0.19-0.56,0.47-0.85,0.76c0,0.05-0.09,0.09-0.14,0.18c-2.07,0.1-3.82,1.09-4.99,2.69c-0.42,0.19-0.94,0.43-1.46,0.8
			c-0.28,0.09-0.51,0.18-0.76,0.33c-0.37,0.14-0.89,0.47-1.4,0.99c-0.14,0.14-0.34,0.37-0.52,0.62c-0.52,0-1,0.09-1.46,0.18
			c-0.19-0.05-0.42-0.05-0.62-0.05c-1.18,0-2.87,0.37-4.23,2.17c-0.57,0.52-1.04,1.09-1.36,1.5l-0.15,0.14
			c-0.05,0.06-0.1,0.06-0.14,0.06c-0.95,0.18-1.84,0.56-2.59,1.08c-0.38,0.23-0.76,0.56-1.13,0.89c-0.05,0.05-0.1,0.09-0.15,0.14
			h-0.7c-0.43,0-0.89,0.09-1.31,0.19c-0.29,0.1-0.9,0.33-1.18,0.52c-0.38,0.14-0.72,0.37-0.81,0.47c-0.23,0.15-0.56,0.42-0.75,0.61
			l-0.09,0.1c-0.14,0.14-0.47,0.52-0.57,0.66c-0.04,0.09-0.38,0.61-0.42,0.66c-0.38,0.18-0.71,0.47-0.99,0.7
			c-1.18,0.09-2.12,0.38-2.88,0.81h-1.5c-1.6,0-3.06,0.79-3.95,2.15c-0.15,0.2-0.81,0.67-1.33,1c-0.61,0.38-1.31,0.89-2.06,1.51
			c-1.04,0.18-1.85,0.61-2.36,0.99c-0.24,0.14-0.42,0.32-0.71,0.56c-0.61,0.1-1.27,0.33-1.84,0.66c-0.32,0.23-0.7,0.46-1.22,0.84
			c-0.38,0.1-0.7,0.19-1.13,0.29c-0.29,0.14-0.7,0.28-1.13,0.51c-0.38,0.15-0.66,0.33-0.75,0.38c-0.33,0.2-0.61,0.43-1.13,0.76
			C107.9,310.18,108.27,309.29,108.42,308.35z M441.73,354.64c-0.51,1.04-1.08,2.08-1.64,3.07c-0.75,1.41-1.13,2.83-1.41,3.96
			c-0.15,0.56-0.34,1.31-0.43,1.45c-0.14,0.19-0.7,0.66-1.08,0.95c-0.95,0.75-2.13,1.74-3.06,3.15c-0.95,1.46-1.33,2.97-1.6,4.2
			c-0.15,0.47-0.29,1.13-0.38,1.26c-0.14,0.28-0.75,0.75-1.23,1.13c-0.85,0.75-1.93,1.65-2.82,2.88c-0.99,1.36-1.47,2.78-1.84,3.91
			c-0.19,0.47-0.42,1.22-0.56,1.4c-0.57,0.77-1.09,1.56-1.6,2.31c-0.57,0.81-1.09,1.6-1.56,2.22c-0.19,0.13-0.75,0.47-1.13,0.65
			c-1.13,0.67-2.54,1.42-3.72,2.83c-1.13,1.33-1.69,2.78-2.12,3.96c-0.18,0.42-0.43,1.08-0.52,1.22c-0.56,0.62-1.17,1.13-1.79,1.71
			c-0.79,0.7-1.6,1.4-2.35,2.2c-0.66,0.71-1.37,1.37-2.08,2.03c-0.65,0.61-1.31,1.27-1.92,1.88l-1.65,1.69
			c-0.76,0.81-1.51,1.61-2.35,2.4c-0.72,0.76-1.51,1.42-2.26,2.13c-0.66,0.56-1.27,1.13-1.85,1.69c-0.8,0.71-1.55,1.51-2.25,2.35
			c-0.52,0.62-1.04,1.23-1.65,1.79c-0.76,0.61-1.51,1.18-2.26,1.74c-0.71,0.57-1.46,1.13-2.17,1.75c-0.33,0.28-0.99,0.62-1.65,0.94
			c-0.99,0.47-2.17,1.04-3.3,1.94c-1.45,1.22-2.3,2.77-2.91,3.85c-0.14,0.29-0.34,0.61-0.48,0.86c-0.27,0.09-0.56,0.09-0.89,0.13
			c-1.32,0.23-3.16,0.52-4.85,1.7c-1.09,0.81-1.93,1.7-2.74,2.49c-0.51,0.57-1.02,1.09-1.45,1.37c-0.75,0.52-1.51,1.09-2.26,1.65
			c-0.76,0.57-1.51,1.13-2.31,1.65c-0.85,0.57-1.69,1.18-2.55,1.84c-0.65,0.52-1.36,1.04-2.06,1.45c-0.9,0.57-1.8,1.18-2.64,1.85
			c-0.66,0.51-1.27,0.98-1.97,1.4c-0.77,0.43-1.56,0.75-2.37,1.13c-0.93,0.43-1.88,0.9-2.77,1.36c-0.76,0.43-1.6,0.77-2.41,1.13
			c-0.93,0.39-1.88,0.81-2.67,1.24c-0.25,0.09-1,0.18-1.52,0.28c-1.17,0.18-2.68,0.38-4.14,1.08c-1.51,0.7-2.59,1.7-3.48,2.49
			c-0.38,0.34-0.95,0.86-1.13,0.95c-1.33,0.56-2.36,1.31-3.3,1.98c-0.56,0.42-1.18,0.84-1.18,0.89c-0.33,0-0.76-0.09-1.13-0.14
			c-0.8-0.09-1.6-0.18-2.4-0.18c-1.08,0-2.03,0.13-2.97,0.5c-1.22,0.48-2.49,0.9-3.76,1.33l-1.51,0.52
			c-1.65,0.57-2.83,1.5-3.82,2.26c-0.37,0.28-0.93,0.7-1.08,0.8c-0.85,0.28-1.7,0.47-2.59,0.65c-0.99,0.25-1.98,0.48-2.87,0.71
			c-0.76,0.24-1.56,0.33-2.31,0.42c-1.13,0.14-2.26,0.34-3.3,0.62c-1.65,0.42-2.96,1.32-4,1.98c-0.38,0.28-0.94,0.66-0.99,0.7
			c-0.37,0-0.8-0.09-1.18-0.18c-1.04-0.2-2.07-0.38-3.05-0.38c-0.62,0-1.23,0.04-1.79,0.18c-0.76,0.15-1.61,0.2-2.41,0.29
			c-1.03,0.05-2.11,0.14-3.2,0.37c-2.17,0.38-3.72,1.71-4.85,2.64c-0.23,0.24-0.42,0.43-0.66,0.61h-0.32c-0.43,0-0.9-0.04-1.33-0.04
			c-0.66-0.05-1.32-0.1-1.97-0.1c-0.61,0-1.18,0-1.79,0.1c-1.85,0.24-3.73,0.47-5.9,0.7c-0.56,0-1.08-0.09-1.64-0.14
			c-0.94-0.14-1.88-0.23-2.77-0.23c-0.34,0-0.67,0-0.95,0.05c-1.13,0.04-2.26,0.27-3.44,0.56c-0.7,0.14-1.41,0.33-2.16,0.37
			c-1.18,0.05-2.4,0.34-3.58,0.57c-0.66,0.15-1.37,0.33-2.12,0.38c-0.38,0-1.04-0.19-1.7-0.33c-1.08-0.24-2.4-0.57-3.91-0.57
			c-0.38,0-1.08-0.19-1.74-0.37c-1.08-0.29-2.4-0.61-3.86-0.66h-0.33c-1.13,0-2.26,0.19-3.43,0.37c-0.57,0.09-1.18,0.24-1.9,0.24
			c-0.79-0.04-1.59-0.19-2.4-0.33c-1.03-0.23-2.12-0.43-3.19-0.52h-0.76c-1.32,0-2.49,0.24-3.49,0.47
			c-0.56,0.14-1.17,0.23-1.51,0.23c-0.32,0-1.02-0.27-1.63-0.51c-1.04-0.38-2.32-0.89-3.82-1.08c-0.52-0.09-1.04-0.09-1.61-0.09
			c-0.75,0-1.55,0.04-2.3,0.14c-0.43,0-0.8,0.04-1.47,0.04h-0.32c-0.95-0.14-1.94-0.18-2.92-0.18c0,0-1.37,0-1.42,0
			c-0.47,0-0.93,0-1.22-0.06c-0.18-0.05-0.7-0.41-1.08-0.66c-1.09-0.75-2.45-1.65-4.33-2.06c-0.95-0.2-1.94-0.34-2.93-0.47
			c-0.89-0.1-1.74-0.25-2.63-0.43c-1.18-0.28-2.31-0.34-3.21-0.34l-1.45,0.06c-0.52,0-0.9-0.06-1.04-0.1
			c-0.33-0.09-0.99-0.46-1.55-0.8c-1-0.56-2.17-1.27-3.58-1.65c-1.47-0.42-2.83-0.52-3.91-0.61c-0.7-0.04-1.47-0.09-1.79-0.18
			c-0.81-0.29-1.6-0.61-2.4-0.95c-0.99-0.43-1.94-0.84-2.87-1.18l-1.85-0.61c-1.17-0.38-2.35-0.8-3.53-1.22
			c-0.23-0.09-0.79-0.56-1.22-0.9c-0.9-0.75-2.03-1.69-3.53-2.31c-0.99-0.37-2.03-0.7-3.02-1.03c-0.8-0.23-1.59-0.48-2.35-0.8
			c-1.09-0.47-2.26-0.8-3.39-1.08c-0.71-0.19-1.41-0.34-2.07-0.62c-0.99-0.47-2.03-0.85-3.11-1.17c-0.75-0.24-1.5-0.48-2.17-0.81
			c-0.37-0.18-0.94-0.66-1.5-1.13c-0.85-0.75-1.83-1.55-3.12-2.25l-1.45-0.76c-1.18-0.61-2.35-1.22-3.53-1.88
			c-0.94-0.57-1.98-0.99-3.02-1.42c-0.7-0.32-1.45-0.61-2.16-0.98c-0.67-0.43-1.28-0.95-1.89-1.46c-0.84-0.66-1.69-1.37-2.63-1.93
			c-0.71-0.47-1.37-0.99-1.98-1.56c-0.84-0.66-1.65-1.27-2.49-1.88c-1.56-1.04-3.12-2.12-4.68-3.2c-0.79-0.57-1.54-1.23-2.3-1.84
			c-0.71-0.56-1.36-1.13-2.07-1.69c-1.08-0.81-2.17-1.38-3.16-1.84c-0.7-0.38-1.36-0.71-1.74-0.99c-0.14-0.19-0.47-0.75-0.7-1.13
			c-0.66-1.09-1.47-2.45-2.78-3.58l-1.7-1.37c-0.89-0.7-1.79-1.45-2.63-2.17c-0.67-0.61-1.33-1.17-1.98-1.74
			c-0.8-0.61-1.56-1.27-2.31-1.97c-1.22-1.13-2.59-1.74-3.68-2.26c-0.46-0.19-1.12-0.52-1.27-0.66c-0.79-0.76-1.74-1.47-2.63-2.17
			c-0.61-0.47-1.28-0.9-1.74-1.42c-0.56-0.51-0.95-1.17-1.42-1.79c-0.66-0.93-1.31-1.88-2.12-2.73c-0.32-0.37-0.75-0.98-1.13-1.68
			c-0.57-0.9-1.22-1.99-2.11-2.98l-1.56-1.74c-0.75-0.8-1.46-1.6-2.21-2.45c-0.62-0.79-1.23-1.6-1.84-2.44
			c-0.52-0.66-1.04-1.37-1.55-2.03c-0.52-0.61-0.89-1.32-1.27-1.97c-0.57-0.95-1.13-1.94-1.79-2.78c-0.72-0.95-1.56-1.75-2.35-2.6
			c-0.52-0.47-1.09-0.99-1.52-1.54c-0.79-1.19-1.78-2.08-2.64-2.83c-0.52-0.47-1.08-0.99-1.31-1.37c-0.09-0.1-0.19-0.23-0.28-0.38
			v-0.37c0-0.34,0-0.66-0.1-0.95c0.29-0.61,0.61-1.36,0.8-2.31l0.99-0.75c0.89-0.76,1.46-1.74,1.69-2.82
			c0.47-0.38,0.85-0.76,1.13-1.18c1.51-0.85,2.12-2.21,2.41-3.11c0.28-0.52,0.75-1.41,0.89-2.49c0.29-0.43,0.47-0.86,0.61-1.23
			l0.43-0.42c0.04,0,0.09-0.05,0.18-0.1c0.38-0.18,0.76-0.38,1.13-0.56c1.47-0.85,2.31-2.4,2.31-4.05v-0.43l0.33-0.33
			c0.8-0.84,1.27-2.02,1.27-3.2V348c0.61-1.23,2.03-3.72,2.36-4.24c0.33-0.37,1.13-1.36,1.37-2.74c0.28-0.32,0.52-0.65,0.7-0.98
			c0.84-0.47,1.65-1.22,2.26-2.26c0,0,0.8,0,0.95,0c1.13,0,2.16-0.29,3.06-0.85c0.85-0.09,1.55-0.37,2.16-0.71h1.13
			c0.42-0.04,0.89-0.04,1.32-0.04l2.5,0.04c0.56,0,2.02,0,3.58-0.9c0.99-0.09,1.74-0.36,2.4-0.74c0.85-0.1,1.56-0.34,2.17-0.66
			c0.32,0,0.99-0.05,1.31-0.14c1.74-0.38,3.21-1.42,4.1-2.78c0.19-0.05,0.38-0.14,0.56-0.24h0.2c1.08,0,2.06-0.23,2.92-0.71
			c0.09,0.05,0.13,0.05,0.18,0.05c1.56,0,2.69-0.61,3.39-1.08c1.6-0.42,3.35-1.23,4.62-2.17c1.22-0.28,2.16-0.84,2.87-1.27
			c0.56-0.28,1.08-0.57,1.69-0.84h0.25c1.69,0,2.96-0.66,3.85-1.18c1.32-0.33,2.26-1.04,3.02-1.6c0.23-0.1,0.42-0.19,0.8-0.38
			c0.33,0.04,0.7,0.09,1.03,0.09c1.75,0,2.97-0.71,3.76-1.22c1.33-0.42,2.51-1.27,3.3-2.45c0.34-0.43,0.57-0.9,0.76-1.42
			c0.85-0.23,1.93-0.51,3.11-1.27c2.4-0.32,3.91-1.97,4.81-2.96c0.18-0.14,0.32-0.29,0.46-0.47c0.94-0.33,1.65-0.89,2.07-1.27
			c1.18-0.23,2.27-0.81,3.06-1.56c0.76-0.09,1.42-0.32,1.94-0.61h0.05c2.06,0,3.52-0.99,4.27-1.56c1.24-0.52,2.03-1.27,2.6-1.93
			c0.75-0.33,1.46-0.79,1.97-1.4c0.11-0.11,0.38-0.34,1.33-0.76l0.61-0.28c0.66-0.29,1.36-0.61,2.17-1.09
			c1.79-0.13,3.24-0.9,4.28-2.26c0.29-0.38,0.61-0.65,0.94-0.99l1.13-1.04c0.19-0.18,0.48-0.41,0.75-0.75
			c0.23-0.09,0.52-0.18,0.75-0.33c0.2-0.05,0.43-0.05,0.52-0.05c0.2,0,0.43,0.05,0.61,0.05c1.79,0,3.35-0.8,4.62-2.45
			c0.29-0.27,0.47-0.56,0.67-0.84c0.7-0.19,1.4-0.56,2.11-1.08c0.19-0.2,0.42-0.38,0.76-0.76c1.6-0.46,2.44-1.55,2.72-1.93
			c0,0,1.33-1.27,1.65-1.6c0.61-0.19,1.13-0.43,1.51-0.57c0.66-0.23,1.27-0.56,1.84-0.89c1.51-0.15,2.55-0.9,3.02-1.23
			c0.27-0.19,0.51-0.37,0.75-0.57c1.22-0.41,2.4-1.26,3.1-2.76c0.52-0.29,1.13-0.67,1.74-1.24c0.52-0.18,0.99-0.41,1.33-0.66
			c1.18-0.36,2.02-1.08,2.58-1.69c0.61-0.23,1.09-0.52,1.47-0.75c1.69-0.57,3.19-2.03,3.76-3.87l0.29-0.27
			c0.42-0.38,0.84-0.81,1.26-1.28c0,0,0.1-0.09,0.57-0.37c0.99-0.09,1.88-0.34,2.69-0.76c0.38-0.05,0.79-0.09,1.17-0.19
			c0.8-0.23,1.56-0.7,2.17-1.31l0.48-0.52c0.18-0.19,0.36-0.43,0.65-0.66c0.19-0.19,0.37-0.33,0.52-0.47
			c0.94-0.19,1.65-0.61,2.16-0.95c0.47-0.14,0.9-0.27,1.23-0.47c2.88-0.05,5.23-1.74,6.16-4.37c0.15-0.2,0.34-0.43,0.48-0.76
			c0.28-0.1,0.51-0.19,0.76-0.33c2.02-0.13,3.71-1.13,4.89-2.78c0.04-0.09,0.14-0.18,0.19-0.33c0.23-0.09,0.42-0.23,0.62-0.37
			c1.69-0.61,3.28-1.98,3.95-3.82c1.03-0.38,1.97-1.08,2.59-2.17c0.85-0.37,1.98-0.93,2.96-1.92c1.04-0.48,1.79-1.09,2.31-1.79
			c0.8-0.2,1.46-0.47,1.98-0.76c2.4-0.14,3.86-1.55,4.57-2.45c1.41-0.32,2.96-1.22,3.76-2.73c0.19-0.09,0.33-0.19,0.47-0.23
			c1.7-0.24,3.73-1.18,5.13-4c0,0,0.05,0,0.1-0.05c0.62-0.15,1.13-0.38,1.65-0.61c1.8-0.05,3.16-1.04,4-2.31
			c2.46-0.33,4.47-1.98,5.04-4.15c0.2-0.19,0.99-0.52,1.83-0.94c1.04-0.47,1.8-1.17,2.51-1.84c0.52-0.42,0.88-0.93,1.17-1.5
			c0.1-0.05,0.19-0.09,0.28-0.14c0.38-0.24,0.76-0.43,1.13-0.62c1.08-0.51,2.55-1.22,3.77-2.4h0.47c1.09,0,2.17-0.47,3.06-1.18
			c0.43,0.1,0.9,0.2,1.42,0.2c0.23,0,0.52,0,0.8-0.06c0.9,1.14,2.26,1.85,3.77,1.85c0,0,3.8,0,4.57,0c0.27,0.14,0.56,0.27,0.79,0.37
			c0.81,0.85,2.08,1.74,3.77,1.89c0.37,0.18,0.8,0.37,1.36,0.66c0.71,0.36,1.99,0.99,3.63,1.03c0.62,0.33,1.23,0.61,1.89,0.89
			c0.79,0.38,1.6,0.7,1.88,1.04c1.17,1.27,2.55,1.56,3.11,1.65c0.71,0.56,1.46,0.99,2.16,1.31c1.33,1.65,3.02,2.36,4.15,2.88
			l1.18,0.56c1.45,0.66,2.67,1.27,3.29,2.03c0.99,1.32,2.21,1.97,3.34,2.54c1.13,1.18,2.55,1.69,3.59,2.12
			c2.11,0.8,3.57,1.79,4.7,3.16c0.34,0.42,0.75,0.8,1.37,1.32c0.94,1.36,2.21,1.97,3.06,2.3c0.42,0.43,2.11,2.17,2.11,2.17
			c0.57,0.57,1.28,0.98,2.08,1.22c0.05,0.05,0.14,0.14,0.19,0.24c0.28,0.33,0.56,0.65,0.89,0.99c1.23,1.27,2.6,2.07,3.82,2.68
			c0.71,1.18,1.61,1.93,2.26,2.45c0.48,0.7,1.18,1.22,1.93,1.56c0.7,0.32,1.51,1.13,2.4,2.06c0.66,0.72,1.33,1.42,1.74,1.8
			c0.34,0.42,1.22,1.55,2.87,2.02c0.11,0.09,0.61,0.7,0.86,0.95c0.27,0.32,0.61,0.61,1.13,1.03c0.18,0.8,0.65,1.5,1.22,2.07
			l3.62,3.48c0.57,0.52,1.13,0.95,1.74,1.13l0.52,0.52c0.34,1.09,1.09,2.31,2.78,3.35c0.43,0.29,0.86,0.47,1.27,0.61
			c0.43,0.42,1.09,0.99,2.12,1.46c0.38,0.98,0.95,1.7,1.47,2.22c0.47,1.4,1.45,2.3,1.83,2.58c0.52,0.52,1.04,1.04,1.56,1.51
			c0.8,0.99,1.74,1.5,2.58,1.7c0.34,0.18,0.71,0.37,1.13,0.56l3.03,2.97c0.55,1.51,1.63,2.44,2.2,3.01
			c0.56,0.56,1.28,1.28,2.31,1.94c0.33,1.22,1.03,2.3,2.12,3.19c0.38,0.34,0.7,0.72,0.99,1.04c1.51,1.88,2.58,3.01,4.43,4.14
			c0.7,1.13,1.6,1.94,2.26,2.5c0.57,0.66,1.18,1.23,1.79,1.84l1.65,1.69c0.66,1.84,2.11,2.92,2.82,3.49
			c0.52,0.65,1.46,1.74,2.92,2.5c0.89,1.74,2.22,2.72,2.68,3.1c0.15,0.14,0.24,0.38,0.33,0.57c0.38,0.61,0.9,1.51,1.7,2.35
			c0.09,0.33,0.29,0.75,0.56,1.18c0.14,0.47,0.43,1.13,1,1.78c0.36,0.48,0.79,0.86,1.17,1.29c0.19,0.13,0.61,0.61,0.66,0.65
			c0.23,0.71,0.61,1.41,1.18,1.93c0.51,0.52,4.81,4.81,4.81,4.81c0.41,2.16,1.78,4,3.85,4.89c0.52,0.85,1.08,1.56,1.46,2.08
			c0.23,0.51,0.48,0.99,0.75,1.54c0.19,0.57,0.48,1.42,1.09,2.37c0.47,0.65,1.08,1.26,1.69,1.92c0.05,0,0.95,0.86,1.04,0.95
			C443.95,350.41,441.73,354.64,441.73,354.64z"/>
		<path class="st3" d="M379.38,188.08c-0.09,0.23-0.14,0.52-0.19,0.8c-0.04,0.09-0.09,0.29-0.09,0.29
			c-0.29,1.31-0.18,2.58-0.09,3.48v0.05c-0.05,0.09-0.09,0.18-0.09,0.23c-0.15,0.29-0.24,0.61-0.34,0.94
			c-0.23,0.8-0.18,1.75,0.1,2.65c-0.14,0.18-0.43,0.65-0.48,0.7l-0.37,0.75c-0.09,0.24-0.19,0.47-0.24,0.66
			c-0.09,0.33-0.18,0.65-0.18,0.99c-0.48,0.84-0.71,1.6-0.75,2.31c-0.15,0.28-0.34,0.56-0.48,0.89c-0.61,0.75-1.03,1.55-1.37,2.16
			c0,0-0.09,0.11-0.18,0.24c-1.18,0.89-1.88,2.31-1.88,3.76c0,0.29,0,0.57,0.04,0.9c-0.04,0.14-0.14,0.29-0.14,0.34
			c-0.1,0.18-0.19,0.41-0.24,0.61c-0.43,0.23-0.79,0.47-1.27,0.84c-0.23,0.2-0.7,0.66-0.9,0.9c-0.27,0.37-0.52,0.75-0.7,1.18
			c-0.09,0.18-0.23,0.61-0.23,0.61c-0.29,0.7-0.43,1.45-0.38,2.4c-0.09,0.18-0.14,0.33-0.23,0.52c-0.15,0.18-0.29,0.42-0.43,0.66
			c-0.43,0.28-0.8,0.61-1.13,0.99c-0.43,0.52-0.99,1.36-1.22,2.68c-0.05,0.14-0.05,0.28-0.05,0.42c-0.1,0.1-0.15,0.24-0.19,0.33
			c-0.14,0.19-0.24,0.43-0.33,0.66c-0.19,0.24-0.42,0.57-0.76,1.04c-0.04,0.05-0.04,0.05-0.04,0.05c-1.18,0.23-2.31,0.94-3.02,1.92
			c-0.38,0.38-1.08,0.99-1.64,1.94c-0.43-0.43-1-0.95-1.65-1.37c-0.14-0.23-0.28-0.42-0.48-0.66c-0.5-0.61-1.13-1.22-1.59-1.7
			c-0.29-0.27-0.52-0.51-0.9-0.79c-0.7-0.57-1.83-1.47-3.53-2.12c-0.38-0.43-0.85-0.8-1.31-1.09c-0.38-0.18-0.72-0.32-1.04-0.47
			c-0.76-0.66-1.51-1.07-2.12-1.45c-0.23-0.14-0.52-0.25-0.66-0.38c-0.47-0.62-1.04-1.09-1.74-1.56c-0.38-0.28-0.75-0.51-1.09-0.66
			c-0.79-0.41-1.74-0.75-2.64-1.08c-0.28-0.1-0.56-0.19-0.56-0.19c-0.19-0.04-0.33-0.09-0.52-0.14c-0.05-0.09-0.57-0.61-0.57-0.61
			c-0.32-0.38-0.66-0.7-1.02-1.04c-0.43-0.38-0.95-0.75-1.85-1.22c-1.5-0.85-3.2-1.79-5.09-2.4c-1.69-0.52-3.24-1.32-4.61-2.07
			c-0.98-0.62-2.02-0.75-2.78-0.8c-0.98-0.9-2.22-1.42-3.53-1.51c-0.37-0.19-0.8-0.38-1.18-0.47c0.14-0.14,0.29-0.34,0.43-0.48
			c0.61-0.27,1.6-0.75,2.4-1.6c0.05-0.05,0.38-0.18,0.43-0.23c0.18-0.09,0.47-0.23,0.65-0.38c0,0,0.57-0.23,0.66-0.28
			c0.61-0.24,1.13-0.56,1.42-0.76c0.14-0.09,0.32-0.23,0.46-0.37c1.04-0.18,1.8-0.66,2.32-1.04c0.93-0.27,1.83-0.84,2.44-1.51
			c0.71-0.75,1.09-1.17,1.09-1.27c0.14-0.04,0.37-0.09,0.61-0.18c1.08-0.29,1.93-0.85,2.49-1.27c0.05-0.06,0.09-0.06,0.14-0.1
			c2.73-0.51,4.29-2.5,5.09-3.49c0.15-0.18,0.29-0.32,0.38-0.46c0.04-0.06,0.09-0.1,0.14-0.15c0.24-0.14,0.47-0.23,1.03-0.52
			c0.1-0.04,1.13-0.61,1.47-0.75c0.05,0,1.13-0.09,1.13-0.09c0.37-0.05,0.75-0.09,1.08-0.24c0.71-0.23,1.41-0.61,1.98-1.18
			c0,0,0.04-0.04,0.09-0.09c0.24-0.14,0.7-0.47,1.27-0.89c0.05,0,0.05,0,0.05-0.05c0.28-0.1,0.51-0.19,0.8-0.33
			c0.38-0.18,0.7-0.33,1.13-0.56l0.52-0.24c0.57-0.19,1.32-0.47,2.07-0.94c0.42-0.05,0.76-0.14,0.89-0.19
			c0.57-0.1,1.09-0.28,1.56-0.56c1.56-0.1,2.68-0.72,3.58-1.24c0.66-0.18,1.42-0.5,2.03-1.17c0.14,0,2.67,0,2.67,0
			c1,0,1.99-0.32,2.83-0.89c0.14,0,0.33,0.05,0.52,0.09c0.47,0.09,0.9,0.09,1.37,0.09c0.23,0,0.89-0.04,1.07-0.04
			c0.63-0.09,1.24-0.09,1.9-0.09h1.08c0.89-0.05,1.74-0.29,2.45-0.81c0.09,0.06,0.18,0.06,0.27,0.06c0.43,0.04,0.86,0.09,1.28,0.13
			c0.05,0.05,0.14,0.1,0.19,0.14c0.7,0.61,1.42,1.27,2.07,1.99v2.53c0,0.57-0.04,1.32,0.14,2.31
			C379.19,187.46,379.29,187.74,379.38,188.08z"/>
		<path class="st1" d="M260.85,217.22l-0.14,0.05c0,0-0.7,0.52-0.75,0.52h-0.29c-0.93,0-1.88,0.27-2.67,0.84
			c-0.34,0.2-0.63,0.47-0.86,0.67c-0.23,0.18-0.42,0.41-0.66,0.66l-0.13,0.13h-0.43c-1.98,0-3.63,1.18-4.34,2.88l-0.18,0.33
			c-0.09,0-0.23,0.05-0.34,0.05c-1.08,0.18-2.3,1.13-3.01,1.97c-0.33,0.38-0.65,0.81-0.9,1.18c-0.09,0.19-0.18,0.33-0.23,0.47
			c-0.52,0.23-1.08,0.56-1.65,1.13l-2.44,2.44c-0.66,0.25-1.22,0.57-1.84,1.04c-0.28,0.2-0.56,0.48-0.67,0.57
			c-0.27,0.29-0.56,0.56-0.7,0.7l-0.79,0.95c-0.14,0.09-0.48,0.23-1,0.38l-1.6,0.56c-0.18,0.05-0.57,0.23-0.75,0.28
			c-0.99,0.43-2.49,1.18-3.77,2.87l-0.14,0.15c-0.8,0.19-1.56,0.61-2.17,1.22l-0.93,0.94c-0.67,0.66-1.33,1.28-1.94,1.98
			c-0.14,0.05-0.61,0.23-0.75,0.33c-1.37,0.04-2.64,0.56-3.44,1.69c-0.14,0.09-0.33,0.2-0.47,0.29c-0.75,0.37-1.83,0.99-2.83,2.06
			l-0.27,0.39c-0.29,0.13-0.57,0.28-0.81,0.42c-1.6,0.47-3.01,1.41-4,2.74c-0.14,0.13-0.23,0.27-0.33,0.47
			c-0.15,0.04-0.28,0.09-0.38,0.14c-0.38,0.14-0.75,0.32-1.08,0.61c-0.14,0.04-0.23,0.04-0.34,0.09c-0.36,0.14-0.65,0.29-0.98,0.47
			c-0.71,0.1-1.37,0.28-1.98,0.61s-0.99,0.57-1.41,1.09c-0.29,0.23-0.52,0.43-0.52,0.43c-0.28,0.27-0.61,0.55-1.08,1.13
			c-0.14,0.18-0.29,0.37-0.38,0.56c-1.45,0.23-2.78,0.94-3.91,2.16c-0.42,0.43-0.89,0.9-1.64,1.65l-0.38,0.38
			c-0.33,0.28-0.66,0.66-1.04,0.89c-1.41,0.56-2.59,1.42-3.53,2.17c-0.47,0.38-0.85,0.76-1.27,1.17c0,0-0.76,0.81-0.8,0.86
			c-0.71,0.09-1.41,0.32-1.98,0.74c-0.38,0.25-0.76,0.48-1.13,0.66c-0.28,0.15-0.56,0.24-0.71,0.34c-1.64,0.42-3.1,1.6-3.9,3.05
			c-0.34,0.2-0.61,0.43-0.85,0.62c-1.27,0.19-2.5,0.8-3.26,1.84c-0.14,0.09-0.32,0.19-0.52,0.28c-0.41,0.23-0.84,0.47-1.22,0.75
			c-0.52,0.38-0.98,0.76-1.36,1.13c0,0,0,0-0.05,0c-0.85,0.19-1.6,0.52-2.26,0.99c-0.23,0.14-0.42,0.33-0.65,0.56
			c-0.05,0.05-0.15,0.14-0.25,0.24c-0.18,0.1-0.46,0.19-0.75,0.38c-0.33,0-1.65,0-1.65,0c-1.26,0-2.49,0.52-3.34,1.41l-0.93,0.94
			c-0.52,0.47-1.04,0.99-1.52,1.56h-0.13c-1.33,0.09-2.55,0.75-3.4,1.78l-0.38,0.48h-0.13c-0.81,0-1.56,0.18-2.27,0.56
			c-0.38,0.23-0.75,0.48-1.13,0.8c-0.28,0.19-0.56,0.47-0.85,0.76c0,0.05-0.09,0.09-0.14,0.18c-2.07,0.1-3.82,1.09-4.99,2.69
			c-0.42,0.19-0.94,0.43-1.46,0.8c-0.28,0.09-0.51,0.18-0.76,0.33c-0.37,0.14-0.89,0.47-1.4,0.99c-0.14,0.14-0.34,0.37-0.52,0.62
			c-0.52,0-1,0.09-1.46,0.18c-0.19-0.05-0.42-0.05-0.62-0.05c-1.18,0-2.87,0.37-4.23,2.17c-0.57,0.52-1.04,1.09-1.36,1.5l-0.15,0.14
			c-0.05,0.06-0.1,0.06-0.14,0.06c-0.95,0.18-1.84,0.56-2.59,1.08c-0.38,0.23-0.76,0.56-1.13,0.89c-0.05,0.05-0.1,0.09-0.15,0.14
			h-0.7c-0.43,0-0.89,0.09-1.31,0.19c-0.29,0.1-0.9,0.33-1.18,0.52c-0.38,0.14-0.72,0.37-0.81,0.47c-0.23,0.15-0.56,0.42-0.75,0.61
			l-0.09,0.1c-0.14,0.14-0.47,0.52-0.57,0.66c-0.04,0.09-0.38,0.61-0.42,0.66c-0.38,0.18-0.71,0.47-0.99,0.7
			c-1.18,0.09-2.12,0.38-2.88,0.81h-1.5c-1.6,0-3.06,0.79-3.95,2.15c-0.15,0.2-0.81,0.67-1.33,1c-0.61,0.38-1.31,0.89-2.06,1.51
			c-1.04,0.18-1.85,0.61-2.36,0.99c-0.24,0.14-0.42,0.32-0.71,0.56c-0.61,0.1-1.27,0.33-1.84,0.66c-0.32,0.23-0.7,0.46-1.22,0.84
			c-0.38,0.1-0.7,0.19-1.13,0.29c-0.29,0.14-0.7,0.28-1.13,0.51c-0.38,0.15-0.66,0.33-0.75,0.38c-0.33,0.2-0.61,0.43-1.13,0.76
			c0.52-0.76,0.89-1.65,1.04-2.59c0.04-0.05,0.41-0.52,0.41-0.52c0.25-0.38,0.48-0.75,0.72-1.13c0.14-0.23,0.28-0.52,0.51-0.8
			c0.71-0.47,1.28-1.13,1.65-1.94c0,0,0.04-0.04,0.1-0.04c0.41-0.23,0.8-0.52,1.12-0.85c0.29-0.28,0.67-0.76,0.85-1.08
			c0.14-0.2,0.34-0.52,0.47-0.95c0.05-0.09,1.55-1.51,2.22-2.21c0.52-0.57,0.93-1.22,1.13-1.97c0.56-0.52,0.98-1.09,1.36-1.84
			c0.14-0.29,0.29-0.67,0.38-0.99c0.28-0.43,0.52-0.85,0.71-1.27c0,0,0.38-0.9,0.42-1.04c0.14-0.19,0.28-0.42,0.42-0.61
			c0.05,0,0.05-0.04,0.1-0.04c0.37-0.11,0.84-0.29,1.27-0.52c0,0,0.47-0.05,0.7-0.09l0.61-0.2c0.75-0.28,1.52-0.8,2.08-1.41
			c0.57-0.61,0.84-1.22,0.99-1.69c0.19-0.38,0.37-0.77,0.51-1.33c1.51-1.27,1.89-2.87,2.03-3.48c0,0,0-0.1,0.05-0.19
			c0.04-0.18,0.09-0.38,0.18-0.56c0.43-0.14,0.86-0.43,1.24-0.75c0.36-0.2,0.75-0.38,0.98-0.52c0.15-0.09,0.52-0.38,0.65-0.48
			c0.67-0.47,1.24-1.08,1.65-1.74c0.05,0,0.57-0.38,0.72-0.47c0.89-0.7,1.54-1.6,1.97-2.83c0.09-0.09,0.24-0.27,0.43-0.42
			c1.22-0.09,2.35-0.61,3.19-1.55c0,0,0.61-0.71,0.67-0.76c0.09-0.09,1.84-1.83,1.84-1.83c0.61-0.61,0.99-1.36,1.22-2.17
			c0.47-0.14,0.94-0.37,1.36-0.66c0.29-0.18,0.52-0.38,0.76-0.56c0.14-0.1,0.23-0.19,0.28-0.24c0.24-0.24,0.47-0.42,0.7-0.65
			c0,0,1.09-1.13,1.13-1.18l0.2-0.2c0.14,0,0.23-0.04,0.32-0.09c0.57-0.23,1.13-0.66,1.56-1.08c0.52-0.52,0.84-1.09,1.08-1.56
			c0.05-0.09,0.14-0.37,0.14-0.37c0.38-0.19,0.7-0.38,1.13-0.66c0.47-0.28,0.95-0.62,1.08-0.8c0.48-0.33,0.86-0.71,1.18-1.13
			c0.52-0.66,1.13-1.23,1.79-1.79l0.05-0.09c0.51-0.2,0.94-0.38,1.17-0.57c0.29-0.18,0.76-0.56,0.99-0.81
			c0.25-0.23,0.48-0.46,0.66-0.7c0.09-0.05,0.9-0.75,1.22-1.04c1.24-0.46,2.41-1.45,3.07-3.1c0-0.05,0.05-0.05,0.05-0.05
			c0.23-0.09,0.47-0.24,0.66-0.33c0.09,0,0.18,0,0.18,0c0.72,0,3.82-0.19,5.14-3.39c1.18-0.37,2.16-1.23,2.73-2.36l0.29-0.61
			c0.09-0.09,0.13-0.18,0.18-0.23c0.18-0.15,0.38-0.24,0.99-0.52c0.71-0.29,1.74-0.71,2.78-1.6c0.05,0,0.09-0.05,0.09-0.05
			c0.52-0.13,1-0.33,1.5-0.56h0.76c1.14,0,2.22-0.38,3.06-1.13c0.2-0.14,0.34-0.29,0.47-0.43c1.32-0.18,2.74-0.84,3.73-2.35
			c0.61-0.05,1.22-0.23,1.88-0.57c0.28-0.14,0.61-0.33,0.84-0.52c0.15-0.09,0.29-0.23,0.48-0.38c0.09-0.09,0.24-0.23,0.38-0.32
			c0.42-0.43,0.75-0.9,0.99-1.31c0.14-0.11,0.46-0.34,0.46-0.34c0.43-0.33,0.81-0.7,1.13-1.18c0.15-0.09,0.81-0.51,0.85-0.51
			c0.1-0.05,0.48-0.24,0.57-0.28c0.56-0.34,1.17-0.62,1.74-0.99l0.8-0.52c0.33-0.24,0.65-0.48,0.94-0.75
			c2.35-0.11,3.35-0.57,6.36-2.03c0.65-0.34,1.42-0.57,2.17-0.8l1.92-0.67c1.47-0.52,2.46-1.08,3.21-1.88h0.05
			c0.7,0,2.26,0,3.72-0.79c0.28-0.05,0.57-0.05,1.03-0.05c0.42-0.05,0.8-0.1,1.23-0.2c0.94-0.13,1.79-0.61,2.49-1.22h3.67
			c1.28,0,2.6-0.66,3.54-1.65c0.09,0,0.19-0.04,0.28-0.04c0.33-0.05,0.7-0.14,0.7-0.14c0.38-0.09,0.95-0.29,1.33-0.48
			c0.05,0,0.09-0.04,0.14-0.09c0.18,0.05,0.33,0.05,0.42,0.05c0.33,0,0.66-0.05,0.75-0.05c0.1,0,1.04-0.04,1.04-0.04
			c0.33,0,1.56,0.04,1.65,0.04c1.5,0,2.87-0.42,4-1.22c0.23-0.09,0.52-0.2,0.71-0.29h0.61c1.74,0,3.06-0.7,3.82-1.18
			c0.09,0,0.47-0.23,0.56-0.23c0.14-0.09,0.33-0.19,0.48-0.19c0.51,0.06,0.98,0.1,1.49,0.1c0.95,0,1.79-0.19,2.46-0.42
			c0.42,0.13,0.75,0.18,0.84,0.18c0.34,0.09,0.85,0.14,1.18,0.14c0.95,0,1.83-0.28,2.6-0.75c0.04,0,0.04,0,0.09,0
			c0.84,0,1.55-0.14,2.17-0.38c0.61,0.19,1.31,0.38,2.2,0.38c1.23,0.7,2.36,0.9,3.16,0.9c0.43,0,0.85-0.05,1.22-0.15
			C260.89,216.62,260.94,216.89,260.85,217.22z"/>
		<path class="st1" d="M443.52,348.24c-0.61-0.66-1.22-1.27-1.69-1.92c-0.61-0.95-0.9-1.8-1.09-2.37c-0.27-0.55-0.52-1.03-0.75-1.54
			c-0.38-0.52-0.94-1.23-1.46-2.08c-2.07-0.89-3.44-2.73-3.85-4.89c0,0-4.3-4.29-4.81-4.81c-0.57-0.52-0.95-1.22-1.18-1.93
			c-0.05-0.04-0.47-0.52-0.66-0.65c-0.38-0.43-0.81-0.81-1.17-1.29c-0.57-0.65-0.86-1.31-1-1.78c-0.27-0.43-0.47-0.85-0.56-1.18
			c-0.8-0.84-1.32-1.74-1.7-2.35c-0.09-0.19-0.18-0.43-0.33-0.57c-0.46-0.38-1.79-1.36-2.68-3.1c-1.46-0.76-2.4-1.85-2.92-2.5
			c-0.71-0.57-2.16-1.65-2.82-3.49l-1.65-1.69c-0.61-0.61-1.22-1.18-1.79-1.84c-0.66-0.56-1.56-1.37-2.26-2.5
			c-1.85-1.13-2.92-2.26-4.43-4.14c-0.29-0.32-0.61-0.7-0.99-1.04c-1.09-0.89-1.79-1.97-2.12-3.19c-1.03-0.66-1.75-1.38-2.31-1.94
			c-0.57-0.57-1.65-1.5-2.2-3.01l-3.03-2.97c-0.42-0.19-0.79-0.38-1.13-0.56c-0.84-0.2-1.78-0.71-2.58-1.7
			c-0.52-0.47-1.04-0.99-1.56-1.51c-0.38-0.28-1.36-1.18-1.83-2.58c-0.52-0.52-1.09-1.24-1.47-2.22c-1.03-0.47-1.69-1.04-2.12-1.46
			c-0.41-0.14-0.84-0.32-1.27-0.61c-1.69-1.04-2.44-2.26-2.78-3.35l-0.52-0.52c-0.61-0.18-1.17-0.61-1.74-1.13l-3.62-3.48
			c-0.57-0.57-1.04-1.27-1.22-2.07c-0.52-0.42-0.86-0.71-1.13-1.03c-0.25-0.25-0.75-0.86-0.86-0.95c-1.65-0.47-2.53-1.6-2.87-2.02
			c-0.41-0.38-1.08-1.08-1.74-1.8c-0.89-0.93-1.7-1.74-2.4-2.06c-0.75-0.34-1.45-0.86-1.93-1.56c-0.65-0.52-1.55-1.27-2.26-2.45
			c-1.22-0.61-2.59-1.41-3.82-2.68c-0.33-0.34-0.61-0.66-0.89-0.99c-0.05-0.1-0.14-0.19-0.19-0.24c-0.8-0.24-1.51-0.65-2.08-1.22
			c0,0-1.69-1.74-2.11-2.17c-0.85-0.33-2.12-0.94-3.06-2.3c-0.62-0.52-1.03-0.9-1.37-1.32c-1.13-1.37-2.59-2.36-4.7-3.16
			c-1.04-0.43-2.46-0.94-3.59-2.12c-1.13-0.57-2.35-1.22-3.34-2.54c-0.62-0.76-1.84-1.37-3.29-2.03l-1.18-0.56
			c-1.13-0.52-2.82-1.23-4.15-2.88c-0.7-0.32-1.45-0.75-2.16-1.31c-0.56-0.09-1.94-0.38-3.11-1.65c-0.28-0.34-1.09-0.66-1.88-1.04
			c-0.66-0.28-1.27-0.56-1.89-0.89c-1.64-0.04-2.92-0.67-3.63-1.03c-0.56-0.29-0.99-0.48-1.36-0.66c-1.69-0.15-2.96-1.04-3.77-1.89
			c-0.23-0.1-0.52-0.23-0.79-0.37c-0.77,0-4.57,0-4.57,0c-1.51,0-2.87-0.71-3.77-1.85c-0.28,0.06-0.57,0.06-0.8,0.06
			c-0.52,0-0.99-0.1-1.42-0.2c-0.89,0.71-1.97,1.18-3.06,1.18h-0.47c-1.22,1.18-2.69,1.89-3.77,2.4c-0.37,0.19-0.75,0.38-1.13,0.62
			c-0.09,0.05-0.18,0.09-0.28,0.14c-0.29,0.57-0.65,1.08-1.17,1.5c-0.71,0.67-1.47,1.37-2.51,1.84c-0.84,0.42-1.63,0.75-1.83,0.94
			c-0.57,2.17-2.58,3.82-5.04,4.15c-0.84,1.27-2.2,2.26-4,2.31c-0.52,0.23-1.03,0.46-1.65,0.61c-0.05,0.05-0.1,0.05-0.1,0.05
			c-1.4,2.82-3.43,3.76-5.13,4c-0.14,0.04-0.28,0.14-0.47,0.23c-0.8,1.51-2.35,2.41-3.76,2.73c-0.71,0.9-2.17,2.31-4.57,2.45
			c-0.52,0.29-1.18,0.56-1.98,0.76c-0.52,0.7-1.27,1.31-2.31,1.79c-0.98,0.99-2.11,1.55-2.96,1.92c-0.62,1.09-1.56,1.79-2.59,2.17
			c-0.67,1.84-2.26,3.21-3.95,3.82c-0.2,0.14-0.39,0.28-0.62,0.37c-0.05,0.15-0.15,0.24-0.19,0.33c-1.18,1.65-2.87,2.65-4.89,2.78
			c-0.25,0.14-0.48,0.23-0.76,0.33c-0.14,0.33-0.33,0.56-0.48,0.76c-0.93,2.63-3.28,4.32-6.16,4.37c-0.33,0.2-0.76,0.33-1.23,0.47
			c-0.51,0.34-1.22,0.76-2.16,0.95c-0.15,0.14-0.33,0.28-0.52,0.47c-0.29,0.23-0.47,0.47-0.65,0.66l-0.48,0.52
			c-0.61,0.61-1.37,1.08-2.17,1.31c-0.38,0.1-0.79,0.14-1.17,0.19c-0.81,0.42-1.7,0.67-2.69,0.76c-0.47,0.28-0.57,0.37-0.57,0.37
			c-0.42,0.47-0.84,0.9-1.26,1.28l-0.29,0.27c-0.57,1.84-2.07,3.3-3.76,3.87c-0.38,0.23-0.86,0.52-1.47,0.75
			c-0.56,0.61-1.4,1.33-2.58,1.69c-0.34,0.25-0.81,0.48-1.33,0.66c-0.61,0.57-1.22,0.95-1.74,1.24c-0.7,1.5-1.88,2.35-3.1,2.76
			c-0.24,0.2-0.48,0.38-0.75,0.57c-0.47,0.33-1.51,1.08-3.02,1.23c-0.57,0.33-1.18,0.66-1.84,0.89c-0.38,0.14-0.9,0.38-1.51,0.57
			c-0.32,0.33-1.65,1.6-1.65,1.6c-0.28,0.38-1.12,1.47-2.72,1.93c-0.34,0.38-0.57,0.56-0.76,0.76c-0.71,0.52-1.41,0.89-2.11,1.08
			c-0.2,0.28-0.38,0.57-0.67,0.84c-1.27,1.65-2.83,2.45-4.62,2.45c-0.18,0-0.41-0.05-0.61-0.05c-0.09,0-0.32,0-0.52,0.05
			c-0.23,0.15-0.52,0.24-0.75,0.33c-0.27,0.34-0.56,0.57-0.75,0.75l-1.13,1.04c-0.33,0.34-0.65,0.61-0.94,0.99
			c-1.04,1.36-2.49,2.13-4.28,2.26c-0.81,0.48-1.51,0.8-2.17,1.09l-0.61,0.28c-0.95,0.42-1.22,0.65-1.33,0.76
			c-0.51,0.61-1.22,1.07-1.97,1.4c-0.57,0.66-1.36,1.41-2.6,1.93c-0.75,0.57-2.21,1.56-4.27,1.56h-0.05
			c-0.52,0.29-1.18,0.52-1.94,0.61c-0.79,0.75-1.88,1.33-3.06,1.56c-0.42,0.38-1.13,0.94-2.07,1.27c-0.14,0.18-0.28,0.33-0.46,0.47
			c-0.9,0.99-2.41,2.64-4.81,2.96c-1.18,0.76-2.26,1.04-3.11,1.27c-0.19,0.52-0.42,0.99-0.76,1.42c-0.79,1.18-1.97,2.03-3.3,2.45
			c-0.79,0.51-2.01,1.22-3.76,1.22c-0.33,0-0.7-0.05-1.03-0.09c-0.38,0.19-0.57,0.28-0.8,0.38c-0.76,0.56-1.7,1.27-3.02,1.6
			c-0.89,0.52-2.16,1.18-3.85,1.18h-0.25c-0.61,0.27-1.13,0.56-1.69,0.84c-0.71,0.43-1.65,0.99-2.87,1.27
			c-1.27,0.94-3.02,1.75-4.62,2.17c-0.7,0.47-1.83,1.08-3.39,1.08c-0.05,0-0.09,0-0.18-0.05c-0.86,0.48-1.84,0.71-2.92,0.71h-0.2
			c-0.18,0.1-0.37,0.19-0.56,0.24c-0.89,1.36-2.36,2.4-4.1,2.78c-0.32,0.09-0.99,0.14-1.31,0.14c-0.61,0.32-1.32,0.56-2.17,0.66
			c-0.66,0.38-1.41,0.65-2.4,0.74c-1.56,0.9-3.02,0.9-3.58,0.9l-2.5-0.04c-0.43,0-0.9,0-1.32,0.04h-1.13
			c-0.61,0.34-1.31,0.62-2.16,0.71c-0.9,0.56-1.93,0.85-3.06,0.85c-0.15,0-0.95,0-0.95,0c-0.61,1.04-1.42,1.79-2.26,2.26
			c-0.18,0.33-0.42,0.66-0.7,0.98c-0.24,1.38-1.04,2.37-1.37,2.74c-0.33,0.52-1.75,3.01-2.36,4.24v0.09c0,1.18-0.47,2.36-1.27,3.2
			l-0.33,0.33v0.43c0,1.65-0.84,3.2-2.31,4.05c-0.37,0.18-0.75,0.38-1.13,0.56c-0.09,0.05-0.14,0.1-0.18,0.1l-0.43,0.42
			c-0.14,0.37-0.32,0.8-0.61,1.23c-0.14,1.08-0.61,1.97-0.89,2.49c-0.29,0.9-0.9,2.26-2.41,3.11c-0.28,0.42-0.66,0.8-1.13,1.18
			c-0.23,1.08-0.8,2.06-1.69,2.82l-0.99,0.75c-0.19,0.95-0.51,1.7-0.8,2.31c0.1,0.29,0.1,0.61,0.1,0.95v0.37
			c0.09,0.15,0.19,0.28,0.28,0.38c0.23,0.38,0.79,0.9,1.31,1.37c0.86,0.75,1.85,1.64,2.64,2.83c0.43,0.55,1,1.07,1.52,1.54
			c0.79,0.85,1.63,1.65,2.35,2.6c0.66,0.84,1.22,1.83,1.79,2.78c0.38,0.65,0.75,1.36,1.27,1.97c0.51,0.66,1.03,1.37,1.55,2.03
			c0.61,0.84,1.22,1.65,1.84,2.44c0.75,0.85,1.46,1.65,2.21,2.45l1.56,1.74c0.89,0.99,1.54,2.08,2.11,2.98
			c0.38,0.7,0.81,1.31,1.13,1.68c0.81,0.85,1.46,1.8,2.12,2.73c0.47,0.62,0.86,1.28,1.42,1.79c0.46,0.52,1.13,0.95,1.74,1.42
			c0.89,0.7,1.84,1.41,2.63,2.17c0.15,0.14,0.81,0.47,1.27,0.66c1.09,0.52,2.46,1.13,3.68,2.26c0.75,0.7,1.51,1.36,2.31,1.97
			c0.65,0.57,1.31,1.13,1.98,1.74c0.84,0.72,1.74,1.47,2.63,2.17l1.7,1.37c1.31,1.13,2.12,2.49,2.78,3.58
			c0.23,0.38,0.56,0.94,0.7,1.13c0.38,0.28,1.04,0.61,1.74,0.99c0.99,0.46,2.08,1.03,3.16,1.84c0.71,0.56,1.36,1.13,2.07,1.69
			c0.76,0.61,1.51,1.27,2.3,1.84c1.56,1.08,3.12,2.16,4.68,3.2c0.84,0.61,1.65,1.22,2.49,1.88c0.61,0.57,1.27,1.09,1.98,1.56
			c0.94,0.56,1.79,1.27,2.63,1.93c0.61,0.51,1.22,1.03,1.89,1.46c0.71,0.37,1.46,0.66,2.16,0.98c1.04,0.43,2.08,0.85,3.02,1.42
			c1.18,0.66,2.35,1.27,3.53,1.88l1.45,0.76c1.29,0.7,2.27,1.5,3.12,2.25c0.56,0.47,1.13,0.95,1.5,1.13
			c0.67,0.33,1.42,0.57,2.17,0.81c1.08,0.32,2.12,0.7,3.11,1.17c0.66,0.28,1.36,0.43,2.07,0.62c1.13,0.28,2.3,0.61,3.39,1.08
			c0.76,0.32,1.55,0.57,2.35,0.8c0.99,0.33,2.03,0.66,3.02,1.03c1.5,0.62,2.63,1.56,3.53,2.31c0.43,0.34,0.99,0.81,1.22,0.9
			c1.18,0.42,2.36,0.84,3.53,1.22l1.85,0.61c0.93,0.34,1.88,0.75,2.87,1.18c0.8,0.34,1.59,0.66,2.4,0.95
			c0.32,0.09,1.09,0.14,1.79,0.18c1.08,0.09,2.44,0.19,3.91,0.61c1.41,0.38,2.58,1.09,3.58,1.65c0.56,0.34,1.22,0.71,1.55,0.8
			c0.14,0.04,0.52,0.1,1.04,0.1l1.45-0.06c0.9,0,2.03,0.06,3.21,0.34c0.89,0.18,1.74,0.33,2.63,0.43c0.99,0.13,1.98,0.27,2.93,0.47
			c1.88,0.41,3.24,1.31,4.33,2.06c0.38,0.25,0.9,0.61,1.08,0.66c0.29,0.06,0.75,0.06,1.22,0.06c0.05,0,1.42,0,1.42,0
			c0.98,0,1.97,0.04,2.92,0.18h0.32c0.67,0,1.04-0.04,1.47-0.04c0.75-0.1,1.55-0.14,2.3-0.14c0.57,0,1.09,0,1.61,0.09
			c1.5,0.19,2.78,0.7,3.82,1.08c0.61,0.24,1.31,0.51,1.63,0.51c0.34,0,0.95-0.09,1.51-0.23c1-0.23,2.17-0.47,3.49-0.47h0.76
			c1.07,0.09,2.16,0.29,3.19,0.52c0.81,0.14,1.61,0.29,2.4,0.33c0.72,0,1.33-0.15,1.9-0.24c1.17-0.18,2.3-0.37,3.43-0.37h0.33
			c1.46,0.05,2.78,0.37,3.86,0.66c0.66,0.18,1.36,0.37,1.74,0.37c1.51,0,2.83,0.33,3.91,0.57c0.66,0.14,1.32,0.33,1.7,0.33
			c0.75-0.05,1.46-0.23,2.12-0.38c1.18-0.23,2.4-0.52,3.58-0.57c0.75-0.04,1.46-0.23,2.16-0.37c1.18-0.29,2.31-0.52,3.44-0.56
			c0.28-0.05,0.61-0.05,0.95-0.05c0.89,0,1.83,0.09,2.77,0.23c0.56,0.05,1.08,0.14,1.64,0.14c2.17-0.23,4.05-0.46,5.9-0.7
			c0.61-0.1,1.18-0.1,1.79-0.1c0.65,0,1.31,0.05,1.97,0.1c0.43,0,0.9,0.04,1.33,0.04h0.32c0.24-0.18,0.43-0.37,0.66-0.61
			c1.13-0.93,2.68-2.26,4.85-2.64c1.09-0.23,2.17-0.32,3.2-0.37c0.8-0.09,1.65-0.14,2.41-0.29c0.56-0.14,1.17-0.18,1.79-0.18
			c0.98,0,2.01,0.18,3.05,0.38c0.38,0.09,0.81,0.18,1.18,0.18c0.05-0.04,0.61-0.42,0.99-0.7c1.04-0.66,2.35-1.56,4-1.98
			c1.04-0.28,2.17-0.48,3.3-0.62c0.75-0.09,1.55-0.18,2.31-0.42c0.89-0.23,1.88-0.46,2.87-0.71c0.89-0.18,1.74-0.37,2.59-0.65
			c0.15-0.1,0.71-0.52,1.08-0.8c0.99-0.76,2.17-1.69,3.82-2.26l1.51-0.52c1.27-0.43,2.54-0.85,3.76-1.33
			c0.94-0.37,1.89-0.5,2.97-0.5c0.8,0,1.6,0.09,2.4,0.18c0.37,0.05,0.8,0.14,1.13,0.14c0-0.05,0.62-0.47,1.18-0.89
			c0.94-0.67,1.97-1.42,3.3-1.98c0.18-0.09,0.75-0.61,1.13-0.95c0.89-0.79,1.97-1.79,3.48-2.49c1.46-0.7,2.97-0.9,4.14-1.08
			c0.52-0.1,1.27-0.19,1.52-0.28c0.79-0.43,1.74-0.85,2.67-1.24c0.81-0.36,1.65-0.7,2.41-1.13c0.89-0.46,1.84-0.93,2.77-1.36
			c0.81-0.38,1.6-0.7,2.37-1.13c0.7-0.42,1.31-0.89,1.97-1.4c0.84-0.67,1.74-1.28,2.64-1.85c0.7-0.41,1.41-0.93,2.06-1.45
			c0.86-0.66,1.7-1.27,2.55-1.84c0.8-0.52,1.55-1.08,2.31-1.65c0.75-0.56,1.51-1.13,2.26-1.65c0.43-0.28,0.94-0.8,1.45-1.37
			c0.81-0.79,1.65-1.68,2.74-2.49c1.69-1.18,3.53-1.47,4.85-1.7c0.33-0.04,0.62-0.04,0.89-0.13c0.14-0.25,0.34-0.57,0.48-0.86
			c0.61-1.08,1.46-2.63,2.91-3.85c1.13-0.9,2.31-1.47,3.3-1.94c0.66-0.32,1.32-0.66,1.65-0.94c0.71-0.62,1.46-1.18,2.17-1.75
			c0.75-0.56,1.5-1.13,2.26-1.74c0.61-0.56,1.13-1.17,1.65-1.79c0.7-0.84,1.45-1.64,2.25-2.35c0.58-0.56,1.19-1.13,1.85-1.69
			c0.75-0.71,1.54-1.37,2.26-2.13c0.84-0.79,1.59-1.59,2.35-2.4l1.65-1.69c0.61-0.61,1.27-1.27,1.92-1.88
			c0.71-0.66,1.42-1.32,2.08-2.03c0.75-0.8,1.56-1.5,2.35-2.2c0.62-0.58,1.23-1.09,1.79-1.71c0.09-0.14,0.34-0.8,0.52-1.22
			c0.43-1.18,0.99-2.63,2.12-3.96c1.18-1.41,2.59-2.16,3.72-2.83c0.38-0.18,0.94-0.52,1.13-0.65c0.47-0.62,0.99-1.41,1.56-2.22
			c0.51-0.75,1.03-1.54,1.6-2.31c0.14-0.18,0.37-0.93,0.56-1.4c0.37-1.13,0.85-2.55,1.84-3.91c0.89-1.23,1.97-2.13,2.82-2.88
			c0.48-0.38,1.09-0.85,1.23-1.13c0.09-0.13,0.23-0.79,0.38-1.26c0.27-1.23,0.65-2.74,1.6-4.2c0.93-1.41,2.11-2.4,3.06-3.15
			c0.38-0.29,0.94-0.76,1.08-0.95c0.09-0.14,0.28-0.89,0.43-1.45c0.28-1.13,0.66-2.55,1.41-3.96c0.56-0.99,1.13-2.03,1.64-3.07
			c0,0,2.22-4.23,2.83-5.45C444.47,349.1,443.57,348.24,443.52,348.24z M221.4,336.08l-0.01,0.96c0,0.94-0.28,1.84-0.8,2.61
			c0.01,0.13,0.03,0.25,0.03,0.38c0.03,0.7,0.04,1.4-0.04,2.04c-0.11,1.06-0.6,2.04-1.36,2.79l-3.93,3.92
			c-0.88,0.87-2.07,1.37-3.31,1.37l-1.1,0.02c-0.45,0-0.96-0.01-1.45-0.06c-0.2,0.06-0.54,0.08-0.9,0.08
			c-1.29,0-2.33-0.33-3.14-0.79h-0.18c-0.36,0-1.12-0.09-1.47-0.17c-0.75-0.16-1.45-0.5-2.09-1c-0.87-0.29-2.03-0.88-2.92-2.17
			c-0.12-0.14-0.31-0.27-0.48-0.42c-0.61-0.55-1.5-1.32-2.21-2.46c-0.98-0.59-1.76-1.47-2.23-2.56c-0.19-0.46-0.31-0.82-0.43-1.17
			c-0.06-0.18-0.1-0.35-0.18-0.53c-0.11-0.15-0.29-0.32-0.41-0.4c-1.69-1.09-2.39-2.59-2.75-3.42c-0.56-0.47-1.06-1-1.58-1.54
			l-0.58-0.6c-0.89-0.89-1.38-2.09-1.38-3.35v-0.3l-0.25-0.18c-1.11-0.9-2.11-2.53-2.11-3.96v-1.37c0.01-0.93,0.03-1.78-0.01-2.62
			c-0.02-0.81,0.11-1.5,0.29-2.09c-0.45-1.54-0.25-2.93-0.16-3.62c0.06-0.7,0.29-1.45,0.64-2.13c-0.01-0.39-0.01-0.81,0.06-1.27
			c0.06-0.42,0.16-0.83,0.34-1.22c0.39-0.9,0.93-1.56,1.38-2.02c0.4-1.26,1.32-2.32,2.57-2.87l2.61-1.17
			c0.61-0.26,1.26-0.4,1.91-0.4l5.5,0.01c0.94,0.02,2.03,0.43,2.87,1.01c0.69,0.21,1.22,0.51,1.6,0.78
			c1.67,0.47,2.64,1.69,3.02,2.17c0.21,0.18,0.57,0.55,0.91,0.94l0.1,0.09c1.53,0.47,2.73,1.68,3.18,3.21
			c0.07,0.07,0.15,0.14,0.23,0.2c0.75,0.65,2.02,1.76,2.73,3.5c0.27,0.3,0.52,0.6,0.83,0.83c1.35,1.06,1.93,2.29,2.24,3
			c0.71,0.76,1.13,1.74,1.22,2.77l0.63,0.62c0.04,0.05,0.27,0.32,0.32,0.36c0.82,0.88,1.51,2.3,1.51,3.5v2.14
			c0.59,1.11,0.83,2.45,0.73,3.99C221.42,334.49,221.41,335.29,221.4,336.08z M332.76,269.24c0,1.73-0.96,3.32-2.5,4.14l-0.43,0.27
			c-0.71,0.44-1.67,1.03-2.95,1.31c-0.19,0.06-0.4,0.1-0.6,0.13c-0.88,0.53-1.94,0.87-2.88,0.87c-0.14,0-0.63-0.04-0.76-0.05h-5.84
			c-1.24,0-2.44-0.5-3.32-1.37l-1.38-1.4c-0.91-0.92-1.84-1.88-2.81-2.77c-0.31-0.27-0.6-0.58-0.86-0.91
			c-0.75-0.23-1.44-0.63-1.97-1.17l-0.53-0.49c-0.64-0.58-1.53-1.37-2.25-2.5l-0.45-0.74c-0.19-0.31-0.44-0.73-0.55-0.84
			c-0.94-0.77-1.54-2-1.73-3.24c-0.11-0.12-0.21-0.22-0.31-0.31c-0.69-0.73-1.12-1.65-1.25-2.63c-0.05-0.4-0.07-0.79-0.06-1.19
			c-0.66-1.01-0.91-2.25-0.68-3.49c-0.14-0.73-0.35-2.57,0.62-4.41c0.05-0.45,0.09-0.93,0.07-1.16c-0.23-2.04,0.5-3.61,0.89-4.45
			c0-0.02,0.01-0.05,0.02-0.06c0.04-1.8,1.02-3.18,2.33-4c0.16-0.28,0.36-0.54,0.59-0.81c0.9-1.02,2.19-1.61,3.55-1.61h8.47
			c1.14,0,2.24,0.41,3.1,1.16c0.28,0.23,0.53,0.5,0.79,0.75c0.01,0,0.01,0.01,0.02,0.03c2.29,0.88,3.42,2.45,3.95,3.91
			c0.41,0.42,0.81,0.86,1.26,1.23c1.03,0.89,1.55,1.89,1.82,2.58c0.52,0.45,0.96,0.93,1.34,1.32c0.18,0.21,0.36,0.4,0.57,0.59
			c1.24,1.15,2.02,2.42,2.3,3.79c0.85,0.96,1.19,1.95,1.38,2.48c1.01,1.56,1,3.1,0.99,3.89c0.03,0.7,0.05,1.3,0.02,1.87
			c0.84,1.49,1.05,3.17,0.65,4.74C333.75,266.21,333.54,267.77,332.76,269.24z"/>
	</g>
</g>
</svg>
